G04 #@! TF.GenerationSoftware,KiCad,Pcbnew,(5.1.10)-1*
G04 #@! TF.CreationDate,2021-09-13T16:17:20-07:00*
G04 #@! TF.ProjectId,keyboard_pcb,6b657962-6f61-4726-945f-7063622e6b69,v0.1*
G04 #@! TF.SameCoordinates,Original*
G04 #@! TF.FileFunction,Other,User*
%FSLAX46Y46*%
G04 Gerber Fmt 4.6, Leading zero omitted, Abs format (unit mm)*
G04 Created by KiCad (PCBNEW (5.1.10)-1) date 2021-09-13 16:17:20*
%MOMM*%
%LPD*%
G01*
G04 APERTURE LIST*
%ADD10C,0.050000*%
G04 APERTURE END LIST*
D10*
X154865000Y-59690000D02*
G75*
G03*
X154865000Y-59690000I-1800000J0D01*
G01*
X132610000Y-49530000D02*
G75*
G03*
X132610000Y-49530000I-1800000J0D01*
G01*
X124355000Y-53340000D02*
G75*
G03*
X124355000Y-53340000I-1800000J0D01*
G01*
X116203274Y-57150000D02*
G75*
G03*
X116203274Y-57150000I-1800000J0D01*
G01*
X165375000Y-165735000D02*
G75*
G03*
X165375000Y-165735000I-3450000J0D01*
G01*
X165375000Y-41275000D02*
G75*
G03*
X165375000Y-41275000I-3450000J0D01*
G01*
X51710000Y-165735000D02*
G75*
G03*
X51710000Y-165735000I-3450000J0D01*
G01*
X51710000Y-41275000D02*
G75*
G03*
X51710000Y-41275000I-3450000J0D01*
G01*
X142625000Y-157730000D02*
X142625000Y-144530000D01*
X155825000Y-157730000D02*
X142625000Y-157730000D01*
X155825000Y-144530000D02*
X155825000Y-157730000D01*
X142625000Y-144530000D02*
X155825000Y-144530000D01*
X142625000Y-137410000D02*
X142625000Y-124210000D01*
X155825000Y-137410000D02*
X142625000Y-137410000D01*
X155825000Y-124210000D02*
X155825000Y-137410000D01*
X142625000Y-124210000D02*
X155825000Y-124210000D01*
X142625000Y-117090000D02*
X142625000Y-103890000D01*
X155825000Y-117090000D02*
X142625000Y-117090000D01*
X155825000Y-103890000D02*
X155825000Y-117090000D01*
X142625000Y-103890000D02*
X155825000Y-103890000D01*
X142625000Y-96770000D02*
X142625000Y-83570000D01*
X155825000Y-96770000D02*
X142625000Y-96770000D01*
X155825000Y-83570000D02*
X155825000Y-96770000D01*
X142625000Y-83570000D02*
X155825000Y-83570000D01*
X122305000Y-157730000D02*
X122305000Y-144530000D01*
X135505000Y-157730000D02*
X122305000Y-157730000D01*
X135505000Y-144530000D02*
X135505000Y-157730000D01*
X122305000Y-144530000D02*
X135505000Y-144530000D01*
X121670000Y-137410000D02*
X121670000Y-124210000D01*
X134870000Y-137410000D02*
X121670000Y-137410000D01*
X134870000Y-124210000D02*
X134870000Y-137410000D01*
X121670000Y-124210000D02*
X134870000Y-124210000D01*
X121035000Y-117090000D02*
X121035000Y-103890000D01*
X134235000Y-117090000D02*
X121035000Y-117090000D01*
X134235000Y-103890000D02*
X134235000Y-117090000D01*
X121035000Y-103890000D02*
X134235000Y-103890000D01*
X120400000Y-96770000D02*
X120400000Y-83570000D01*
X133600000Y-96770000D02*
X120400000Y-96770000D01*
X133600000Y-83570000D02*
X133600000Y-96770000D01*
X120400000Y-83570000D02*
X133600000Y-83570000D01*
X101985000Y-157730000D02*
X101985000Y-144530000D01*
X115185000Y-157730000D02*
X101985000Y-157730000D01*
X115185000Y-144530000D02*
X115185000Y-157730000D01*
X101985000Y-144530000D02*
X115185000Y-144530000D01*
X101350000Y-137410000D02*
X101350000Y-124210000D01*
X114550000Y-137410000D02*
X101350000Y-137410000D01*
X114550000Y-124210000D02*
X114550000Y-137410000D01*
X101350000Y-124210000D02*
X114550000Y-124210000D01*
X100715000Y-117090000D02*
X100715000Y-103890000D01*
X113915000Y-117090000D02*
X100715000Y-117090000D01*
X113915000Y-103890000D02*
X113915000Y-117090000D01*
X100715000Y-103890000D02*
X113915000Y-103890000D01*
X100080000Y-96770000D02*
X100080000Y-83570000D01*
X113280000Y-96770000D02*
X100080000Y-96770000D01*
X113280000Y-83570000D02*
X113280000Y-96770000D01*
X100080000Y-83570000D02*
X113280000Y-83570000D01*
X81665000Y-157730000D02*
X81665000Y-144530000D01*
X94865000Y-157730000D02*
X81665000Y-157730000D01*
X94865000Y-144530000D02*
X94865000Y-157730000D01*
X81665000Y-144530000D02*
X94865000Y-144530000D01*
X81030000Y-137410000D02*
X81030000Y-124210000D01*
X94230000Y-137410000D02*
X81030000Y-137410000D01*
X94230000Y-124210000D02*
X94230000Y-137410000D01*
X81030000Y-124210000D02*
X94230000Y-124210000D01*
X80395000Y-117090000D02*
X80395000Y-103890000D01*
X93595000Y-117090000D02*
X80395000Y-117090000D01*
X93595000Y-103890000D02*
X93595000Y-117090000D01*
X80395000Y-103890000D02*
X93595000Y-103890000D01*
X79760000Y-96770000D02*
X79760000Y-83570000D01*
X92960000Y-96770000D02*
X79760000Y-96770000D01*
X92960000Y-83570000D02*
X92960000Y-96770000D01*
X79760000Y-83570000D02*
X92960000Y-83570000D01*
X61345000Y-161540000D02*
X61345000Y-148340000D01*
X74545000Y-161540000D02*
X61345000Y-161540000D01*
X74545000Y-148340000D02*
X74545000Y-161540000D01*
X61345000Y-148340000D02*
X74545000Y-148340000D01*
X60710000Y-141220000D02*
X60710000Y-128020000D01*
X73910000Y-141220000D02*
X60710000Y-141220000D01*
X73910000Y-128020000D02*
X73910000Y-141220000D01*
X60710000Y-128020000D02*
X73910000Y-128020000D01*
X60075000Y-120900000D02*
X60075000Y-107700000D01*
X73275000Y-120900000D02*
X60075000Y-120900000D01*
X73275000Y-107700000D02*
X73275000Y-120900000D01*
X60075000Y-107700000D02*
X73275000Y-107700000D01*
X59440000Y-100580000D02*
X59440000Y-87380000D01*
X72640000Y-100580000D02*
X59440000Y-100580000D01*
X72640000Y-87380000D02*
X72640000Y-100580000D01*
X59440000Y-87380000D02*
X72640000Y-87380000D01*
M02*
