G04 #@! TF.GenerationSoftware,KiCad,Pcbnew,(5.1.10)-1*
G04 #@! TF.CreationDate,2021-09-13T16:17:20-07:00*
G04 #@! TF.ProjectId,keyboard_pcb,6b657962-6f61-4726-945f-7063622e6b69,v0.1*
G04 #@! TF.SameCoordinates,Original*
G04 #@! TF.FileFunction,Legend,Top*
G04 #@! TF.FilePolarity,Positive*
%FSLAX46Y46*%
G04 Gerber Fmt 4.6, Leading zero omitted, Abs format (unit mm)*
G04 Created by KiCad (PCBNEW (5.1.10)-1) date 2021-09-13 16:17:20*
%MOMM*%
%LPD*%
G01*
G04 APERTURE LIST*
%ADD10C,0.150000*%
%ADD11C,0.120000*%
%ADD12C,0.100000*%
G04 APERTURE END LIST*
D10*
X144478809Y-165187380D02*
X145050238Y-165187380D01*
X144764523Y-166187380D02*
X144764523Y-165187380D01*
X145812142Y-166187380D02*
X145812142Y-165663571D01*
X145764523Y-165568333D01*
X145669285Y-165520714D01*
X145478809Y-165520714D01*
X145383571Y-165568333D01*
X145812142Y-166139761D02*
X145716904Y-166187380D01*
X145478809Y-166187380D01*
X145383571Y-166139761D01*
X145335952Y-166044523D01*
X145335952Y-165949285D01*
X145383571Y-165854047D01*
X145478809Y-165806428D01*
X145716904Y-165806428D01*
X145812142Y-165758809D01*
X146288333Y-166187380D02*
X146288333Y-165520714D01*
X146288333Y-165711190D02*
X146335952Y-165615952D01*
X146383571Y-165568333D01*
X146478809Y-165520714D01*
X146574047Y-165520714D01*
X146907380Y-166187380D02*
X146907380Y-165520714D01*
X146907380Y-165711190D02*
X146955000Y-165615952D01*
X147002619Y-165568333D01*
X147097857Y-165520714D01*
X147193095Y-165520714D01*
X147955000Y-166187380D02*
X147955000Y-165663571D01*
X147907380Y-165568333D01*
X147812142Y-165520714D01*
X147621666Y-165520714D01*
X147526428Y-165568333D01*
X147955000Y-166139761D02*
X147859761Y-166187380D01*
X147621666Y-166187380D01*
X147526428Y-166139761D01*
X147478809Y-166044523D01*
X147478809Y-165949285D01*
X147526428Y-165854047D01*
X147621666Y-165806428D01*
X147859761Y-165806428D01*
X147955000Y-165758809D01*
X148431190Y-166187380D02*
X148431190Y-165187380D01*
X148431190Y-165568333D02*
X148526428Y-165520714D01*
X148716904Y-165520714D01*
X148812142Y-165568333D01*
X148859761Y-165615952D01*
X148907380Y-165711190D01*
X148907380Y-165996904D01*
X148859761Y-166092142D01*
X148812142Y-166139761D01*
X148716904Y-166187380D01*
X148526428Y-166187380D01*
X148431190Y-166139761D01*
X149335952Y-166187380D02*
X149335952Y-165520714D01*
X149335952Y-165711190D02*
X149383571Y-165615952D01*
X149431190Y-165568333D01*
X149526428Y-165520714D01*
X149621666Y-165520714D01*
X150383571Y-165520714D02*
X150383571Y-166187380D01*
X149955000Y-165520714D02*
X149955000Y-166044523D01*
X150002619Y-166139761D01*
X150097857Y-166187380D01*
X150240714Y-166187380D01*
X150335952Y-166139761D01*
X150383571Y-166092142D01*
X150859761Y-166187380D02*
X150859761Y-165187380D01*
X151288333Y-166187380D02*
X151288333Y-165663571D01*
X151240714Y-165568333D01*
X151145476Y-165520714D01*
X151002619Y-165520714D01*
X150907380Y-165568333D01*
X150859761Y-165615952D01*
X97140476Y-167568571D02*
X96807142Y-167568571D01*
X96807142Y-168092380D02*
X96807142Y-167092380D01*
X97283333Y-167092380D01*
X97664285Y-168092380D02*
X97664285Y-167425714D01*
X97664285Y-167616190D02*
X97711904Y-167520952D01*
X97759523Y-167473333D01*
X97854761Y-167425714D01*
X97950000Y-167425714D01*
X98664285Y-168044761D02*
X98569047Y-168092380D01*
X98378571Y-168092380D01*
X98283333Y-168044761D01*
X98235714Y-167949523D01*
X98235714Y-167568571D01*
X98283333Y-167473333D01*
X98378571Y-167425714D01*
X98569047Y-167425714D01*
X98664285Y-167473333D01*
X98711904Y-167568571D01*
X98711904Y-167663809D01*
X98235714Y-167759047D01*
X99521428Y-168044761D02*
X99426190Y-168092380D01*
X99235714Y-168092380D01*
X99140476Y-168044761D01*
X99092857Y-167949523D01*
X99092857Y-167568571D01*
X99140476Y-167473333D01*
X99235714Y-167425714D01*
X99426190Y-167425714D01*
X99521428Y-167473333D01*
X99569047Y-167568571D01*
X99569047Y-167663809D01*
X99092857Y-167759047D01*
X100616666Y-167425714D02*
X100997619Y-167425714D01*
X100759523Y-168092380D02*
X100759523Y-167235238D01*
X100807142Y-167140000D01*
X100902380Y-167092380D01*
X100997619Y-167092380D01*
X101473809Y-168092380D02*
X101378571Y-168044761D01*
X101330952Y-167997142D01*
X101283333Y-167901904D01*
X101283333Y-167616190D01*
X101330952Y-167520952D01*
X101378571Y-167473333D01*
X101473809Y-167425714D01*
X101616666Y-167425714D01*
X101711904Y-167473333D01*
X101759523Y-167520952D01*
X101807142Y-167616190D01*
X101807142Y-167901904D01*
X101759523Y-167997142D01*
X101711904Y-168044761D01*
X101616666Y-168092380D01*
X101473809Y-168092380D01*
X102235714Y-168092380D02*
X102235714Y-167425714D01*
X102235714Y-167616190D02*
X102283333Y-167520952D01*
X102330952Y-167473333D01*
X102426190Y-167425714D01*
X102521428Y-167425714D01*
X103616666Y-167425714D02*
X103616666Y-168092380D01*
X103616666Y-167520952D02*
X103664285Y-167473333D01*
X103759523Y-167425714D01*
X103902380Y-167425714D01*
X103997619Y-167473333D01*
X104045238Y-167568571D01*
X104045238Y-168092380D01*
X104664285Y-168092380D02*
X104569047Y-168044761D01*
X104521428Y-167997142D01*
X104473809Y-167901904D01*
X104473809Y-167616190D01*
X104521428Y-167520952D01*
X104569047Y-167473333D01*
X104664285Y-167425714D01*
X104807142Y-167425714D01*
X104902380Y-167473333D01*
X104950000Y-167520952D01*
X104997619Y-167616190D01*
X104997619Y-167901904D01*
X104950000Y-167997142D01*
X104902380Y-168044761D01*
X104807142Y-168092380D01*
X104664285Y-168092380D01*
X105426190Y-167425714D02*
X105426190Y-168092380D01*
X105426190Y-167520952D02*
X105473809Y-167473333D01*
X105569047Y-167425714D01*
X105711904Y-167425714D01*
X105807142Y-167473333D01*
X105854761Y-167568571D01*
X105854761Y-168092380D01*
X106330952Y-167711428D02*
X107092857Y-167711428D01*
X107997619Y-168044761D02*
X107902380Y-168092380D01*
X107711904Y-168092380D01*
X107616666Y-168044761D01*
X107569047Y-167997142D01*
X107521428Y-167901904D01*
X107521428Y-167616190D01*
X107569047Y-167520952D01*
X107616666Y-167473333D01*
X107711904Y-167425714D01*
X107902380Y-167425714D01*
X107997619Y-167473333D01*
X108569047Y-168092380D02*
X108473809Y-168044761D01*
X108426190Y-167997142D01*
X108378571Y-167901904D01*
X108378571Y-167616190D01*
X108426190Y-167520952D01*
X108473809Y-167473333D01*
X108569047Y-167425714D01*
X108711904Y-167425714D01*
X108807142Y-167473333D01*
X108854761Y-167520952D01*
X108902380Y-167616190D01*
X108902380Y-167901904D01*
X108854761Y-167997142D01*
X108807142Y-168044761D01*
X108711904Y-168092380D01*
X108569047Y-168092380D01*
X109330952Y-168092380D02*
X109330952Y-167425714D01*
X109330952Y-167520952D02*
X109378571Y-167473333D01*
X109473809Y-167425714D01*
X109616666Y-167425714D01*
X109711904Y-167473333D01*
X109759523Y-167568571D01*
X109759523Y-168092380D01*
X109759523Y-167568571D02*
X109807142Y-167473333D01*
X109902380Y-167425714D01*
X110045238Y-167425714D01*
X110140476Y-167473333D01*
X110188095Y-167568571D01*
X110188095Y-168092380D01*
X110664285Y-168092380D02*
X110664285Y-167425714D01*
X110664285Y-167520952D02*
X110711904Y-167473333D01*
X110807142Y-167425714D01*
X110950000Y-167425714D01*
X111045238Y-167473333D01*
X111092857Y-167568571D01*
X111092857Y-168092380D01*
X111092857Y-167568571D02*
X111140476Y-167473333D01*
X111235714Y-167425714D01*
X111378571Y-167425714D01*
X111473809Y-167473333D01*
X111521428Y-167568571D01*
X111521428Y-168092380D01*
X112378571Y-168044761D02*
X112283333Y-168092380D01*
X112092857Y-168092380D01*
X111997619Y-168044761D01*
X111950000Y-167949523D01*
X111950000Y-167568571D01*
X111997619Y-167473333D01*
X112092857Y-167425714D01*
X112283333Y-167425714D01*
X112378571Y-167473333D01*
X112426190Y-167568571D01*
X112426190Y-167663809D01*
X111950000Y-167759047D01*
X112854761Y-168092380D02*
X112854761Y-167425714D01*
X112854761Y-167616190D02*
X112902380Y-167520952D01*
X112950000Y-167473333D01*
X113045238Y-167425714D01*
X113140476Y-167425714D01*
X113902380Y-168044761D02*
X113807142Y-168092380D01*
X113616666Y-168092380D01*
X113521428Y-168044761D01*
X113473809Y-167997142D01*
X113426190Y-167901904D01*
X113426190Y-167616190D01*
X113473809Y-167520952D01*
X113521428Y-167473333D01*
X113616666Y-167425714D01*
X113807142Y-167425714D01*
X113902380Y-167473333D01*
X114330952Y-168092380D02*
X114330952Y-167425714D01*
X114330952Y-167092380D02*
X114283333Y-167140000D01*
X114330952Y-167187619D01*
X114378571Y-167140000D01*
X114330952Y-167092380D01*
X114330952Y-167187619D01*
X115235714Y-168092380D02*
X115235714Y-167568571D01*
X115188095Y-167473333D01*
X115092857Y-167425714D01*
X114902380Y-167425714D01*
X114807142Y-167473333D01*
X115235714Y-168044761D02*
X115140476Y-168092380D01*
X114902380Y-168092380D01*
X114807142Y-168044761D01*
X114759523Y-167949523D01*
X114759523Y-167854285D01*
X114807142Y-167759047D01*
X114902380Y-167711428D01*
X115140476Y-167711428D01*
X115235714Y-167663809D01*
X115854761Y-168092380D02*
X115759523Y-168044761D01*
X115711904Y-167949523D01*
X115711904Y-167092380D01*
X117426190Y-167425714D02*
X117426190Y-168092380D01*
X116997619Y-167425714D02*
X116997619Y-167949523D01*
X117045238Y-168044761D01*
X117140476Y-168092380D01*
X117283333Y-168092380D01*
X117378571Y-168044761D01*
X117426190Y-167997142D01*
X117854761Y-168044761D02*
X117950000Y-168092380D01*
X118140476Y-168092380D01*
X118235714Y-168044761D01*
X118283333Y-167949523D01*
X118283333Y-167901904D01*
X118235714Y-167806666D01*
X118140476Y-167759047D01*
X117997619Y-167759047D01*
X117902380Y-167711428D01*
X117854761Y-167616190D01*
X117854761Y-167568571D01*
X117902380Y-167473333D01*
X117997619Y-167425714D01*
X118140476Y-167425714D01*
X118235714Y-167473333D01*
X119092857Y-168044761D02*
X118997619Y-168092380D01*
X118807142Y-168092380D01*
X118711904Y-168044761D01*
X118664285Y-167949523D01*
X118664285Y-167568571D01*
X118711904Y-167473333D01*
X118807142Y-167425714D01*
X118997619Y-167425714D01*
X119092857Y-167473333D01*
X119140476Y-167568571D01*
X119140476Y-167663809D01*
X118664285Y-167759047D01*
X92664285Y-164600000D02*
X92569047Y-164552380D01*
X92426190Y-164552380D01*
X92283333Y-164600000D01*
X92188095Y-164695238D01*
X92140476Y-164790476D01*
X92092857Y-164980952D01*
X92092857Y-165123809D01*
X92140476Y-165314285D01*
X92188095Y-165409523D01*
X92283333Y-165504761D01*
X92426190Y-165552380D01*
X92521428Y-165552380D01*
X92664285Y-165504761D01*
X92711904Y-165457142D01*
X92711904Y-165123809D01*
X92521428Y-165123809D01*
X93569047Y-165552380D02*
X93569047Y-165028571D01*
X93521428Y-164933333D01*
X93426190Y-164885714D01*
X93235714Y-164885714D01*
X93140476Y-164933333D01*
X93569047Y-165504761D02*
X93473809Y-165552380D01*
X93235714Y-165552380D01*
X93140476Y-165504761D01*
X93092857Y-165409523D01*
X93092857Y-165314285D01*
X93140476Y-165219047D01*
X93235714Y-165171428D01*
X93473809Y-165171428D01*
X93569047Y-165123809D01*
X94045238Y-165552380D02*
X94045238Y-164885714D01*
X94045238Y-164980952D02*
X94092857Y-164933333D01*
X94188095Y-164885714D01*
X94330952Y-164885714D01*
X94426190Y-164933333D01*
X94473809Y-165028571D01*
X94473809Y-165552380D01*
X94473809Y-165028571D02*
X94521428Y-164933333D01*
X94616666Y-164885714D01*
X94759523Y-164885714D01*
X94854761Y-164933333D01*
X94902380Y-165028571D01*
X94902380Y-165552380D01*
X95759523Y-165504761D02*
X95664285Y-165552380D01*
X95473809Y-165552380D01*
X95378571Y-165504761D01*
X95330952Y-165409523D01*
X95330952Y-165028571D01*
X95378571Y-164933333D01*
X95473809Y-164885714D01*
X95664285Y-164885714D01*
X95759523Y-164933333D01*
X95807142Y-165028571D01*
X95807142Y-165123809D01*
X95330952Y-165219047D01*
X96235714Y-165552380D02*
X96235714Y-164552380D01*
X96330952Y-165171428D02*
X96616666Y-165552380D01*
X96616666Y-164885714D02*
X96235714Y-165266666D01*
X97426190Y-165504761D02*
X97330952Y-165552380D01*
X97140476Y-165552380D01*
X97045238Y-165504761D01*
X96997619Y-165409523D01*
X96997619Y-165028571D01*
X97045238Y-164933333D01*
X97140476Y-164885714D01*
X97330952Y-164885714D01*
X97426190Y-164933333D01*
X97473809Y-165028571D01*
X97473809Y-165123809D01*
X96997619Y-165219047D01*
X97807142Y-164885714D02*
X98045238Y-165552380D01*
X98283333Y-164885714D02*
X98045238Y-165552380D01*
X97950000Y-165790476D01*
X97902380Y-165838095D01*
X97807142Y-165885714D01*
X98664285Y-164885714D02*
X98664285Y-165885714D01*
X98664285Y-164933333D02*
X98759523Y-164885714D01*
X98950000Y-164885714D01*
X99045238Y-164933333D01*
X99092857Y-164980952D01*
X99140476Y-165076190D01*
X99140476Y-165361904D01*
X99092857Y-165457142D01*
X99045238Y-165504761D01*
X98950000Y-165552380D01*
X98759523Y-165552380D01*
X98664285Y-165504761D01*
X99997619Y-165552380D02*
X99997619Y-165028571D01*
X99950000Y-164933333D01*
X99854761Y-164885714D01*
X99664285Y-164885714D01*
X99569047Y-164933333D01*
X99997619Y-165504761D02*
X99902380Y-165552380D01*
X99664285Y-165552380D01*
X99569047Y-165504761D01*
X99521428Y-165409523D01*
X99521428Y-165314285D01*
X99569047Y-165219047D01*
X99664285Y-165171428D01*
X99902380Y-165171428D01*
X99997619Y-165123809D01*
X100902380Y-165552380D02*
X100902380Y-164552380D01*
X100902380Y-165504761D02*
X100807142Y-165552380D01*
X100616666Y-165552380D01*
X100521428Y-165504761D01*
X100473809Y-165457142D01*
X100426190Y-165361904D01*
X100426190Y-165076190D01*
X100473809Y-164980952D01*
X100521428Y-164933333D01*
X100616666Y-164885714D01*
X100807142Y-164885714D01*
X100902380Y-164933333D01*
X101140476Y-165647619D02*
X101902380Y-165647619D01*
X102045238Y-164885714D02*
X102283333Y-165552380D01*
X102521428Y-164885714D01*
X103092857Y-164552380D02*
X103188095Y-164552380D01*
X103283333Y-164600000D01*
X103330952Y-164647619D01*
X103378571Y-164742857D01*
X103426190Y-164933333D01*
X103426190Y-165171428D01*
X103378571Y-165361904D01*
X103330952Y-165457142D01*
X103283333Y-165504761D01*
X103188095Y-165552380D01*
X103092857Y-165552380D01*
X102997619Y-165504761D01*
X102950000Y-165457142D01*
X102902380Y-165361904D01*
X102854761Y-165171428D01*
X102854761Y-164933333D01*
X102902380Y-164742857D01*
X102950000Y-164647619D01*
X102997619Y-164600000D01*
X103092857Y-164552380D01*
X103854761Y-165457142D02*
X103902380Y-165504761D01*
X103854761Y-165552380D01*
X103807142Y-165504761D01*
X103854761Y-165457142D01*
X103854761Y-165552380D01*
X104854761Y-165552380D02*
X104283333Y-165552380D01*
X104569047Y-165552380D02*
X104569047Y-164552380D01*
X104473809Y-164695238D01*
X104378571Y-164790476D01*
X104283333Y-164838095D01*
X106330952Y-165933333D02*
X106283333Y-165885714D01*
X106188095Y-165742857D01*
X106140476Y-165647619D01*
X106092857Y-165504761D01*
X106045238Y-165266666D01*
X106045238Y-165076190D01*
X106092857Y-164838095D01*
X106140476Y-164695238D01*
X106188095Y-164600000D01*
X106283333Y-164457142D01*
X106330952Y-164409523D01*
X107140476Y-165504761D02*
X107045238Y-165552380D01*
X106854761Y-165552380D01*
X106759523Y-165504761D01*
X106711904Y-165457142D01*
X106664285Y-165361904D01*
X106664285Y-165076190D01*
X106711904Y-164980952D01*
X106759523Y-164933333D01*
X106854761Y-164885714D01*
X107045238Y-164885714D01*
X107140476Y-164933333D01*
X107473809Y-165933333D02*
X107521428Y-165885714D01*
X107616666Y-165742857D01*
X107664285Y-165647619D01*
X107711904Y-165504761D01*
X107759523Y-165266666D01*
X107759523Y-165076190D01*
X107711904Y-164838095D01*
X107664285Y-164695238D01*
X107616666Y-164600000D01*
X107521428Y-164457142D01*
X107473809Y-164409523D01*
X108950000Y-164647619D02*
X108997619Y-164600000D01*
X109092857Y-164552380D01*
X109330952Y-164552380D01*
X109426190Y-164600000D01*
X109473809Y-164647619D01*
X109521428Y-164742857D01*
X109521428Y-164838095D01*
X109473809Y-164980952D01*
X108902380Y-165552380D01*
X109521428Y-165552380D01*
X110140476Y-164552380D02*
X110235714Y-164552380D01*
X110330952Y-164600000D01*
X110378571Y-164647619D01*
X110426190Y-164742857D01*
X110473809Y-164933333D01*
X110473809Y-165171428D01*
X110426190Y-165361904D01*
X110378571Y-165457142D01*
X110330952Y-165504761D01*
X110235714Y-165552380D01*
X110140476Y-165552380D01*
X110045238Y-165504761D01*
X109997619Y-165457142D01*
X109950000Y-165361904D01*
X109902380Y-165171428D01*
X109902380Y-164933333D01*
X109950000Y-164742857D01*
X109997619Y-164647619D01*
X110045238Y-164600000D01*
X110140476Y-164552380D01*
X110854761Y-164647619D02*
X110902380Y-164600000D01*
X110997619Y-164552380D01*
X111235714Y-164552380D01*
X111330952Y-164600000D01*
X111378571Y-164647619D01*
X111426190Y-164742857D01*
X111426190Y-164838095D01*
X111378571Y-164980952D01*
X110807142Y-165552380D01*
X111426190Y-165552380D01*
X112378571Y-165552380D02*
X111807142Y-165552380D01*
X112092857Y-165552380D02*
X112092857Y-164552380D01*
X111997619Y-164695238D01*
X111902380Y-164790476D01*
X111807142Y-164838095D01*
X112807142Y-165171428D02*
X113569047Y-165171428D01*
X115092857Y-164552380D02*
X115092857Y-165266666D01*
X115045238Y-165409523D01*
X114950000Y-165504761D01*
X114807142Y-165552380D01*
X114711904Y-165552380D01*
X115997619Y-165552380D02*
X115997619Y-165028571D01*
X115950000Y-164933333D01*
X115854761Y-164885714D01*
X115664285Y-164885714D01*
X115569047Y-164933333D01*
X115997619Y-165504761D02*
X115902380Y-165552380D01*
X115664285Y-165552380D01*
X115569047Y-165504761D01*
X115521428Y-165409523D01*
X115521428Y-165314285D01*
X115569047Y-165219047D01*
X115664285Y-165171428D01*
X115902380Y-165171428D01*
X115997619Y-165123809D01*
X116473809Y-164885714D02*
X116473809Y-165552380D01*
X116473809Y-164980952D02*
X116521428Y-164933333D01*
X116616666Y-164885714D01*
X116759523Y-164885714D01*
X116854761Y-164933333D01*
X116902380Y-165028571D01*
X116902380Y-165552380D01*
X117378571Y-165552380D02*
X117378571Y-164885714D01*
X117378571Y-164552380D02*
X117330952Y-164600000D01*
X117378571Y-164647619D01*
X117426190Y-164600000D01*
X117378571Y-164552380D01*
X117378571Y-164647619D01*
X118473809Y-164552380D02*
X118807142Y-165552380D01*
X119140476Y-164552380D01*
X119902380Y-165552380D02*
X119902380Y-165028571D01*
X119854761Y-164933333D01*
X119759523Y-164885714D01*
X119569047Y-164885714D01*
X119473809Y-164933333D01*
X119902380Y-165504761D02*
X119807142Y-165552380D01*
X119569047Y-165552380D01*
X119473809Y-165504761D01*
X119426190Y-165409523D01*
X119426190Y-165314285D01*
X119473809Y-165219047D01*
X119569047Y-165171428D01*
X119807142Y-165171428D01*
X119902380Y-165123809D01*
X120807142Y-165552380D02*
X120807142Y-165028571D01*
X120759523Y-164933333D01*
X120664285Y-164885714D01*
X120473809Y-164885714D01*
X120378571Y-164933333D01*
X120807142Y-165504761D02*
X120711904Y-165552380D01*
X120473809Y-165552380D01*
X120378571Y-165504761D01*
X120330952Y-165409523D01*
X120330952Y-165314285D01*
X120378571Y-165219047D01*
X120473809Y-165171428D01*
X120711904Y-165171428D01*
X120807142Y-165123809D01*
X121283333Y-165552380D02*
X121283333Y-164885714D01*
X121283333Y-165076190D02*
X121330952Y-164980952D01*
X121378571Y-164933333D01*
X121473809Y-164885714D01*
X121569047Y-164885714D01*
X122330952Y-165552380D02*
X122330952Y-165028571D01*
X122283333Y-164933333D01*
X122188095Y-164885714D01*
X121997619Y-164885714D01*
X121902380Y-164933333D01*
X122330952Y-165504761D02*
X122235714Y-165552380D01*
X121997619Y-165552380D01*
X121902380Y-165504761D01*
X121854761Y-165409523D01*
X121854761Y-165314285D01*
X121902380Y-165219047D01*
X121997619Y-165171428D01*
X122235714Y-165171428D01*
X122330952Y-165123809D01*
X122949999Y-165552380D02*
X122854761Y-165504761D01*
X122807142Y-165409523D01*
X122807142Y-164552380D01*
X123759523Y-165552380D02*
X123759523Y-165028571D01*
X123711904Y-164933333D01*
X123616666Y-164885714D01*
X123426190Y-164885714D01*
X123330952Y-164933333D01*
X123759523Y-165504761D02*
X123664285Y-165552380D01*
X123426190Y-165552380D01*
X123330952Y-165504761D01*
X123283333Y-165409523D01*
X123283333Y-165314285D01*
X123330952Y-165219047D01*
X123426190Y-165171428D01*
X123664285Y-165171428D01*
X123759523Y-165123809D01*
D11*
X154765000Y-59690000D02*
G75*
G03*
X154765000Y-59690000I-1700000J0D01*
G01*
X132510000Y-49530000D02*
G75*
G03*
X132510000Y-49530000I-1700000J0D01*
G01*
X124255000Y-53340000D02*
G75*
G03*
X124255000Y-53340000I-1700000J0D01*
G01*
X116103274Y-57150000D02*
G75*
G03*
X116103274Y-57150000I-1700000J0D01*
G01*
D10*
X53340000Y-63500000D02*
X52070000Y-63500000D01*
X52070000Y-63500000D02*
X52070000Y-55880000D01*
X52070000Y-55880000D02*
X53340000Y-55880000D01*
X58420000Y-63500000D02*
X58420000Y-55880000D01*
X58420000Y-55880000D02*
X53340000Y-55880000D01*
X58420000Y-63500000D02*
X53340000Y-63500000D01*
X85852000Y-58420000D02*
X85852000Y-60960000D01*
X85852000Y-60960000D02*
X81280000Y-60960000D01*
X81280000Y-60960000D02*
X81280000Y-58420000D01*
X81280000Y-58420000D02*
X85852000Y-58420000D01*
X75565000Y-64770000D02*
X75565000Y-54610000D01*
X65405000Y-54610000D02*
X65405000Y-64770000D01*
X75565000Y-54610000D02*
X65405000Y-54610000D01*
X75565000Y-64770000D02*
X65405000Y-64770000D01*
X53340000Y-50800000D02*
X88900000Y-50800000D01*
X88900000Y-50800000D02*
X88900000Y-68580000D01*
X88900000Y-68580000D02*
X53340000Y-68580000D01*
X53340000Y-68580000D02*
X53340000Y-50800000D01*
X76200000Y-54610000D02*
X78740000Y-54610000D01*
X78740000Y-54610000D02*
X78740000Y-57785000D01*
X78740000Y-57785000D02*
X76200000Y-57785000D01*
X76200000Y-57785000D02*
X76200000Y-54610000D01*
D12*
G36*
X67945000Y-59055000D02*
G01*
X68199000Y-58801000D01*
X68453000Y-59182000D01*
X68199000Y-59436000D01*
X67945000Y-59055000D01*
G37*
X67945000Y-59055000D02*
X68199000Y-58801000D01*
X68453000Y-59182000D01*
X68199000Y-59436000D01*
X67945000Y-59055000D01*
G36*
X68326000Y-59563000D02*
G01*
X68580000Y-59309000D01*
X68834000Y-59690000D01*
X68580000Y-59944000D01*
X68326000Y-59563000D01*
G37*
X68326000Y-59563000D02*
X68580000Y-59309000D01*
X68834000Y-59690000D01*
X68580000Y-59944000D01*
X68326000Y-59563000D01*
G36*
X68707000Y-60071000D02*
G01*
X68961000Y-59817000D01*
X69215000Y-60198000D01*
X68961000Y-60452000D01*
X68707000Y-60071000D01*
G37*
X68707000Y-60071000D02*
X68961000Y-59817000D01*
X69215000Y-60198000D01*
X68961000Y-60452000D01*
X68707000Y-60071000D01*
G36*
X68707000Y-59182000D02*
G01*
X68961000Y-58928000D01*
X69215000Y-59309000D01*
X68961000Y-59563000D01*
X68707000Y-59182000D01*
G37*
X68707000Y-59182000D02*
X68961000Y-58928000D01*
X69215000Y-59309000D01*
X68961000Y-59563000D01*
X68707000Y-59182000D01*
G36*
X69088000Y-59690000D02*
G01*
X69342000Y-59436000D01*
X69596000Y-59817000D01*
X69342000Y-60071000D01*
X69088000Y-59690000D01*
G37*
X69088000Y-59690000D02*
X69342000Y-59436000D01*
X69596000Y-59817000D01*
X69342000Y-60071000D01*
X69088000Y-59690000D01*
G36*
X69469000Y-60198000D02*
G01*
X69723000Y-59944000D01*
X69977000Y-60325000D01*
X69723000Y-60579000D01*
X69469000Y-60198000D01*
G37*
X69469000Y-60198000D02*
X69723000Y-59944000D01*
X69977000Y-60325000D01*
X69723000Y-60579000D01*
X69469000Y-60198000D01*
G36*
X67564000Y-59436000D02*
G01*
X67818000Y-59182000D01*
X68072000Y-59563000D01*
X67818000Y-59817000D01*
X67564000Y-59436000D01*
G37*
X67564000Y-59436000D02*
X67818000Y-59182000D01*
X68072000Y-59563000D01*
X67818000Y-59817000D01*
X67564000Y-59436000D01*
G36*
X67183000Y-59817000D02*
G01*
X67437000Y-59563000D01*
X67691000Y-59944000D01*
X67437000Y-60198000D01*
X67183000Y-59817000D01*
G37*
X67183000Y-59817000D02*
X67437000Y-59563000D01*
X67691000Y-59944000D01*
X67437000Y-60198000D01*
X67183000Y-59817000D01*
D11*
X142240000Y-144145000D02*
X156210000Y-144145000D01*
X156210000Y-144145000D02*
X156210000Y-158115000D01*
X156210000Y-158115000D02*
X142240000Y-158115000D01*
X142240000Y-158115000D02*
X142240000Y-144145000D01*
X142240000Y-123825000D02*
X156210000Y-123825000D01*
X156210000Y-123825000D02*
X156210000Y-137795000D01*
X156210000Y-137795000D02*
X142240000Y-137795000D01*
X142240000Y-137795000D02*
X142240000Y-123825000D01*
X142240000Y-103505000D02*
X156210000Y-103505000D01*
X156210000Y-103505000D02*
X156210000Y-117475000D01*
X156210000Y-117475000D02*
X142240000Y-117475000D01*
X142240000Y-117475000D02*
X142240000Y-103505000D01*
X142240000Y-83185000D02*
X156210000Y-83185000D01*
X156210000Y-83185000D02*
X156210000Y-97155000D01*
X156210000Y-97155000D02*
X142240000Y-97155000D01*
X142240000Y-97155000D02*
X142240000Y-83185000D01*
X121920000Y-144145000D02*
X135890000Y-144145000D01*
X135890000Y-144145000D02*
X135890000Y-158115000D01*
X135890000Y-158115000D02*
X121920000Y-158115000D01*
X121920000Y-158115000D02*
X121920000Y-144145000D01*
X121285000Y-123825000D02*
X135255000Y-123825000D01*
X135255000Y-123825000D02*
X135255000Y-137795000D01*
X135255000Y-137795000D02*
X121285000Y-137795000D01*
X121285000Y-137795000D02*
X121285000Y-123825000D01*
X120650000Y-103505000D02*
X134620000Y-103505000D01*
X134620000Y-103505000D02*
X134620000Y-117475000D01*
X134620000Y-117475000D02*
X120650000Y-117475000D01*
X120650000Y-117475000D02*
X120650000Y-103505000D01*
X120015000Y-83185000D02*
X133985000Y-83185000D01*
X133985000Y-83185000D02*
X133985000Y-97155000D01*
X133985000Y-97155000D02*
X120015000Y-97155000D01*
X120015000Y-97155000D02*
X120015000Y-83185000D01*
X101600000Y-144145000D02*
X115570000Y-144145000D01*
X115570000Y-144145000D02*
X115570000Y-158115000D01*
X115570000Y-158115000D02*
X101600000Y-158115000D01*
X101600000Y-158115000D02*
X101600000Y-144145000D01*
X100965000Y-123825000D02*
X114935000Y-123825000D01*
X114935000Y-123825000D02*
X114935000Y-137795000D01*
X114935000Y-137795000D02*
X100965000Y-137795000D01*
X100965000Y-137795000D02*
X100965000Y-123825000D01*
X100330000Y-103505000D02*
X114300000Y-103505000D01*
X114300000Y-103505000D02*
X114300000Y-117475000D01*
X114300000Y-117475000D02*
X100330000Y-117475000D01*
X100330000Y-117475000D02*
X100330000Y-103505000D01*
X99695000Y-83185000D02*
X113665000Y-83185000D01*
X113665000Y-83185000D02*
X113665000Y-97155000D01*
X113665000Y-97155000D02*
X99695000Y-97155000D01*
X99695000Y-97155000D02*
X99695000Y-83185000D01*
X81280000Y-144145000D02*
X95250000Y-144145000D01*
X95250000Y-144145000D02*
X95250000Y-158115000D01*
X95250000Y-158115000D02*
X81280000Y-158115000D01*
X81280000Y-158115000D02*
X81280000Y-144145000D01*
X80645000Y-123825000D02*
X94615000Y-123825000D01*
X94615000Y-123825000D02*
X94615000Y-137795000D01*
X94615000Y-137795000D02*
X80645000Y-137795000D01*
X80645000Y-137795000D02*
X80645000Y-123825000D01*
X80010000Y-103505000D02*
X93980000Y-103505000D01*
X93980000Y-103505000D02*
X93980000Y-117475000D01*
X93980000Y-117475000D02*
X80010000Y-117475000D01*
X80010000Y-117475000D02*
X80010000Y-103505000D01*
X79375000Y-83185000D02*
X93345000Y-83185000D01*
X93345000Y-83185000D02*
X93345000Y-97155000D01*
X93345000Y-97155000D02*
X79375000Y-97155000D01*
X79375000Y-97155000D02*
X79375000Y-83185000D01*
X60960000Y-147955000D02*
X74930000Y-147955000D01*
X74930000Y-147955000D02*
X74930000Y-161925000D01*
X74930000Y-161925000D02*
X60960000Y-161925000D01*
X60960000Y-161925000D02*
X60960000Y-147955000D01*
X60325000Y-127635000D02*
X74295000Y-127635000D01*
X74295000Y-127635000D02*
X74295000Y-141605000D01*
X74295000Y-141605000D02*
X60325000Y-141605000D01*
X60325000Y-141605000D02*
X60325000Y-127635000D01*
X59690000Y-107315000D02*
X73660000Y-107315000D01*
X73660000Y-107315000D02*
X73660000Y-121285000D01*
X73660000Y-121285000D02*
X59690000Y-121285000D01*
X59690000Y-121285000D02*
X59690000Y-107315000D01*
X59055000Y-86995000D02*
X73025000Y-86995000D01*
X73025000Y-86995000D02*
X73025000Y-100965000D01*
X73025000Y-100965000D02*
X59055000Y-100965000D01*
X59055000Y-100965000D02*
X59055000Y-86995000D01*
D10*
X150779285Y-56644380D02*
X151350714Y-56644380D01*
X151065000Y-57644380D02*
X151065000Y-56644380D01*
X152207857Y-56692000D02*
X152112619Y-56644380D01*
X151969761Y-56644380D01*
X151826904Y-56692000D01*
X151731666Y-56787238D01*
X151684047Y-56882476D01*
X151636428Y-57072952D01*
X151636428Y-57215809D01*
X151684047Y-57406285D01*
X151731666Y-57501523D01*
X151826904Y-57596761D01*
X151969761Y-57644380D01*
X152065000Y-57644380D01*
X152207857Y-57596761D01*
X152255476Y-57549142D01*
X152255476Y-57215809D01*
X152065000Y-57215809D01*
X152684047Y-57644380D02*
X152684047Y-56644380D01*
X153255476Y-57644380D01*
X153255476Y-56644380D01*
X153731666Y-57644380D02*
X153731666Y-56644380D01*
X153969761Y-56644380D01*
X154112619Y-56692000D01*
X154207857Y-56787238D01*
X154255476Y-56882476D01*
X154303095Y-57072952D01*
X154303095Y-57215809D01*
X154255476Y-57406285D01*
X154207857Y-57501523D01*
X154112619Y-57596761D01*
X153969761Y-57644380D01*
X153731666Y-57644380D01*
X155255476Y-57644380D02*
X154684047Y-57644380D01*
X154969761Y-57644380D02*
X154969761Y-56644380D01*
X154874523Y-56787238D01*
X154779285Y-56882476D01*
X154684047Y-56930095D01*
X130048095Y-46484380D02*
X130619523Y-46484380D01*
X130333809Y-47484380D02*
X130333809Y-46484380D01*
X130905238Y-46579619D02*
X130952857Y-46532000D01*
X131048095Y-46484380D01*
X131286190Y-46484380D01*
X131381428Y-46532000D01*
X131429047Y-46579619D01*
X131476666Y-46674857D01*
X131476666Y-46770095D01*
X131429047Y-46912952D01*
X130857619Y-47484380D01*
X131476666Y-47484380D01*
X121793095Y-50294380D02*
X122364523Y-50294380D01*
X122078809Y-51294380D02*
X122078809Y-50294380D01*
X123221666Y-51294380D02*
X122650238Y-51294380D01*
X122935952Y-51294380D02*
X122935952Y-50294380D01*
X122840714Y-50437238D01*
X122745476Y-50532476D01*
X122650238Y-50580095D01*
X113641369Y-54104380D02*
X114212797Y-54104380D01*
X113927083Y-55104380D02*
X113927083Y-54104380D01*
X114736607Y-54104380D02*
X114831845Y-54104380D01*
X114927083Y-54152000D01*
X114974702Y-54199619D01*
X115022321Y-54294857D01*
X115069940Y-54485333D01*
X115069940Y-54723428D01*
X115022321Y-54913904D01*
X114974702Y-55009142D01*
X114927083Y-55056761D01*
X114831845Y-55104380D01*
X114736607Y-55104380D01*
X114641369Y-55056761D01*
X114593750Y-55009142D01*
X114546131Y-54913904D01*
X114498512Y-54723428D01*
X114498512Y-54485333D01*
X114546131Y-54294857D01*
X114593750Y-54199619D01*
X114641369Y-54152000D01*
X114736607Y-54104380D01*
X161163095Y-161987380D02*
X161163095Y-160987380D01*
X161163095Y-161463571D02*
X161734523Y-161463571D01*
X161734523Y-161987380D02*
X161734523Y-160987380D01*
X162115476Y-160987380D02*
X162734523Y-160987380D01*
X162401190Y-161368333D01*
X162544047Y-161368333D01*
X162639285Y-161415952D01*
X162686904Y-161463571D01*
X162734523Y-161558809D01*
X162734523Y-161796904D01*
X162686904Y-161892142D01*
X162639285Y-161939761D01*
X162544047Y-161987380D01*
X162258333Y-161987380D01*
X162163095Y-161939761D01*
X162115476Y-161892142D01*
X161163095Y-37527380D02*
X161163095Y-36527380D01*
X161163095Y-37003571D02*
X161734523Y-37003571D01*
X161734523Y-37527380D02*
X161734523Y-36527380D01*
X162163095Y-36622619D02*
X162210714Y-36575000D01*
X162305952Y-36527380D01*
X162544047Y-36527380D01*
X162639285Y-36575000D01*
X162686904Y-36622619D01*
X162734523Y-36717857D01*
X162734523Y-36813095D01*
X162686904Y-36955952D01*
X162115476Y-37527380D01*
X162734523Y-37527380D01*
X47498095Y-161987380D02*
X47498095Y-160987380D01*
X47498095Y-161463571D02*
X48069523Y-161463571D01*
X48069523Y-161987380D02*
X48069523Y-160987380D01*
X49069523Y-161987380D02*
X48498095Y-161987380D01*
X48783809Y-161987380D02*
X48783809Y-160987380D01*
X48688571Y-161130238D01*
X48593333Y-161225476D01*
X48498095Y-161273095D01*
X47498095Y-37527380D02*
X47498095Y-36527380D01*
X47498095Y-37003571D02*
X48069523Y-37003571D01*
X48069523Y-37527380D02*
X48069523Y-36527380D01*
X48736190Y-36527380D02*
X48831428Y-36527380D01*
X48926666Y-36575000D01*
X48974285Y-36622619D01*
X49021904Y-36717857D01*
X49069523Y-36908333D01*
X49069523Y-37146428D01*
X49021904Y-37336904D01*
X48974285Y-37432142D01*
X48926666Y-37479761D01*
X48831428Y-37527380D01*
X48736190Y-37527380D01*
X48640952Y-37479761D01*
X48593333Y-37432142D01*
X48545714Y-37336904D01*
X48498095Y-37146428D01*
X48498095Y-36908333D01*
X48545714Y-36717857D01*
X48593333Y-36622619D01*
X48640952Y-36575000D01*
X48736190Y-36527380D01*
X70358095Y-48982380D02*
X70358095Y-49791904D01*
X70405714Y-49887142D01*
X70453333Y-49934761D01*
X70548571Y-49982380D01*
X70739047Y-49982380D01*
X70834285Y-49934761D01*
X70881904Y-49887142D01*
X70929523Y-49791904D01*
X70929523Y-48982380D01*
X71929523Y-49982380D02*
X71358095Y-49982380D01*
X71643809Y-49982380D02*
X71643809Y-48982380D01*
X71548571Y-49125238D01*
X71453333Y-49220476D01*
X71358095Y-49268095D01*
X71690666Y-62773333D02*
X70990666Y-62773333D01*
X71490666Y-62540000D01*
X70990666Y-62306666D01*
X71690666Y-62306666D01*
X71690666Y-61973333D02*
X70990666Y-61973333D01*
X71690666Y-61640000D02*
X70990666Y-61640000D01*
X71490666Y-61406666D01*
X70990666Y-61173333D01*
X71690666Y-61173333D01*
X70990666Y-60906666D02*
X71690666Y-60440000D01*
X70990666Y-60440000D02*
X71690666Y-60906666D01*
X71690666Y-59773333D02*
X71357333Y-60006666D01*
X71690666Y-60173333D02*
X70990666Y-60173333D01*
X70990666Y-59906666D01*
X71024000Y-59840000D01*
X71057333Y-59806666D01*
X71124000Y-59773333D01*
X71224000Y-59773333D01*
X71290666Y-59806666D01*
X71324000Y-59840000D01*
X71357333Y-59906666D01*
X71357333Y-60173333D01*
X70990666Y-59573333D02*
X70990666Y-59173333D01*
X71690666Y-59373333D02*
X70990666Y-59373333D01*
X71690666Y-58573333D02*
X71690666Y-58973333D01*
X71690666Y-58773333D02*
X70990666Y-58773333D01*
X71090666Y-58840000D01*
X71157333Y-58906666D01*
X71190666Y-58973333D01*
X70990666Y-58140000D02*
X70990666Y-58073333D01*
X71024000Y-58006666D01*
X71057333Y-57973333D01*
X71124000Y-57940000D01*
X71257333Y-57906666D01*
X71424000Y-57906666D01*
X71557333Y-57940000D01*
X71624000Y-57973333D01*
X71657333Y-58006666D01*
X71690666Y-58073333D01*
X71690666Y-58140000D01*
X71657333Y-58206666D01*
X71624000Y-58240000D01*
X71557333Y-58273333D01*
X71424000Y-58306666D01*
X71257333Y-58306666D01*
X71124000Y-58273333D01*
X71057333Y-58240000D01*
X71024000Y-58206666D01*
X70990666Y-58140000D01*
X70990666Y-57306666D02*
X70990666Y-57440000D01*
X71024000Y-57506666D01*
X71057333Y-57540000D01*
X71157333Y-57606666D01*
X71290666Y-57640000D01*
X71557333Y-57640000D01*
X71624000Y-57606666D01*
X71657333Y-57573333D01*
X71690666Y-57506666D01*
X71690666Y-57373333D01*
X71657333Y-57306666D01*
X71624000Y-57273333D01*
X71557333Y-57240000D01*
X71390666Y-57240000D01*
X71324000Y-57273333D01*
X71290666Y-57306666D01*
X71257333Y-57373333D01*
X71257333Y-57506666D01*
X71290666Y-57573333D01*
X71324000Y-57606666D01*
X71390666Y-57640000D01*
X71057333Y-56973333D02*
X71024000Y-56940000D01*
X70990666Y-56873333D01*
X70990666Y-56706666D01*
X71024000Y-56640000D01*
X71057333Y-56606666D01*
X71124000Y-56573333D01*
X71190666Y-56573333D01*
X71290666Y-56606666D01*
X71690666Y-57006666D01*
X71690666Y-56573333D01*
X73214666Y-61090000D02*
X72514666Y-61090000D01*
X72514666Y-60923333D01*
X72548000Y-60823333D01*
X72614666Y-60756666D01*
X72681333Y-60723333D01*
X72814666Y-60690000D01*
X72914666Y-60690000D01*
X73048000Y-60723333D01*
X73114666Y-60756666D01*
X73181333Y-60823333D01*
X73214666Y-60923333D01*
X73214666Y-61090000D01*
X72514666Y-60490000D02*
X73214666Y-60256666D01*
X72514666Y-60023333D01*
X73214666Y-59456666D02*
X73214666Y-59790000D01*
X72514666Y-59790000D01*
X72514666Y-58923333D02*
X72514666Y-59056666D01*
X72548000Y-59123333D01*
X72581333Y-59156666D01*
X72681333Y-59223333D01*
X72814666Y-59256666D01*
X73081333Y-59256666D01*
X73148000Y-59223333D01*
X73181333Y-59190000D01*
X73214666Y-59123333D01*
X73214666Y-58990000D01*
X73181333Y-58923333D01*
X73148000Y-58890000D01*
X73081333Y-58856666D01*
X72914666Y-58856666D01*
X72848000Y-58890000D01*
X72814666Y-58923333D01*
X72781333Y-58990000D01*
X72781333Y-59123333D01*
X72814666Y-59190000D01*
X72848000Y-59223333D01*
X72914666Y-59256666D01*
X73014666Y-58590000D02*
X73014666Y-58256666D01*
X73214666Y-58656666D02*
X72514666Y-58423333D01*
X73214666Y-58190000D01*
X147415476Y-143660761D02*
X147558333Y-143708380D01*
X147796428Y-143708380D01*
X147891666Y-143660761D01*
X147939285Y-143613142D01*
X147986904Y-143517904D01*
X147986904Y-143422666D01*
X147939285Y-143327428D01*
X147891666Y-143279809D01*
X147796428Y-143232190D01*
X147605952Y-143184571D01*
X147510714Y-143136952D01*
X147463095Y-143089333D01*
X147415476Y-142994095D01*
X147415476Y-142898857D01*
X147463095Y-142803619D01*
X147510714Y-142756000D01*
X147605952Y-142708380D01*
X147844047Y-142708380D01*
X147986904Y-142756000D01*
X148320238Y-142708380D02*
X148558333Y-143708380D01*
X148748809Y-142994095D01*
X148939285Y-143708380D01*
X149177380Y-142708380D01*
X149510714Y-142803619D02*
X149558333Y-142756000D01*
X149653571Y-142708380D01*
X149891666Y-142708380D01*
X149986904Y-142756000D01*
X150034523Y-142803619D01*
X150082142Y-142898857D01*
X150082142Y-142994095D01*
X150034523Y-143136952D01*
X149463095Y-143708380D01*
X150082142Y-143708380D01*
X150701190Y-142708380D02*
X150796428Y-142708380D01*
X150891666Y-142756000D01*
X150939285Y-142803619D01*
X150986904Y-142898857D01*
X151034523Y-143089333D01*
X151034523Y-143327428D01*
X150986904Y-143517904D01*
X150939285Y-143613142D01*
X150891666Y-143660761D01*
X150796428Y-143708380D01*
X150701190Y-143708380D01*
X150605952Y-143660761D01*
X150558333Y-143613142D01*
X150510714Y-143517904D01*
X150463095Y-143327428D01*
X150463095Y-143089333D01*
X150510714Y-142898857D01*
X150558333Y-142803619D01*
X150605952Y-142756000D01*
X150701190Y-142708380D01*
X147415476Y-123340761D02*
X147558333Y-123388380D01*
X147796428Y-123388380D01*
X147891666Y-123340761D01*
X147939285Y-123293142D01*
X147986904Y-123197904D01*
X147986904Y-123102666D01*
X147939285Y-123007428D01*
X147891666Y-122959809D01*
X147796428Y-122912190D01*
X147605952Y-122864571D01*
X147510714Y-122816952D01*
X147463095Y-122769333D01*
X147415476Y-122674095D01*
X147415476Y-122578857D01*
X147463095Y-122483619D01*
X147510714Y-122436000D01*
X147605952Y-122388380D01*
X147844047Y-122388380D01*
X147986904Y-122436000D01*
X148320238Y-122388380D02*
X148558333Y-123388380D01*
X148748809Y-122674095D01*
X148939285Y-123388380D01*
X149177380Y-122388380D01*
X150082142Y-123388380D02*
X149510714Y-123388380D01*
X149796428Y-123388380D02*
X149796428Y-122388380D01*
X149701190Y-122531238D01*
X149605952Y-122626476D01*
X149510714Y-122674095D01*
X150558333Y-123388380D02*
X150748809Y-123388380D01*
X150844047Y-123340761D01*
X150891666Y-123293142D01*
X150986904Y-123150285D01*
X151034523Y-122959809D01*
X151034523Y-122578857D01*
X150986904Y-122483619D01*
X150939285Y-122436000D01*
X150844047Y-122388380D01*
X150653571Y-122388380D01*
X150558333Y-122436000D01*
X150510714Y-122483619D01*
X150463095Y-122578857D01*
X150463095Y-122816952D01*
X150510714Y-122912190D01*
X150558333Y-122959809D01*
X150653571Y-123007428D01*
X150844047Y-123007428D01*
X150939285Y-122959809D01*
X150986904Y-122912190D01*
X151034523Y-122816952D01*
X147415476Y-103020761D02*
X147558333Y-103068380D01*
X147796428Y-103068380D01*
X147891666Y-103020761D01*
X147939285Y-102973142D01*
X147986904Y-102877904D01*
X147986904Y-102782666D01*
X147939285Y-102687428D01*
X147891666Y-102639809D01*
X147796428Y-102592190D01*
X147605952Y-102544571D01*
X147510714Y-102496952D01*
X147463095Y-102449333D01*
X147415476Y-102354095D01*
X147415476Y-102258857D01*
X147463095Y-102163619D01*
X147510714Y-102116000D01*
X147605952Y-102068380D01*
X147844047Y-102068380D01*
X147986904Y-102116000D01*
X148320238Y-102068380D02*
X148558333Y-103068380D01*
X148748809Y-102354095D01*
X148939285Y-103068380D01*
X149177380Y-102068380D01*
X150082142Y-103068380D02*
X149510714Y-103068380D01*
X149796428Y-103068380D02*
X149796428Y-102068380D01*
X149701190Y-102211238D01*
X149605952Y-102306476D01*
X149510714Y-102354095D01*
X150653571Y-102496952D02*
X150558333Y-102449333D01*
X150510714Y-102401714D01*
X150463095Y-102306476D01*
X150463095Y-102258857D01*
X150510714Y-102163619D01*
X150558333Y-102116000D01*
X150653571Y-102068380D01*
X150844047Y-102068380D01*
X150939285Y-102116000D01*
X150986904Y-102163619D01*
X151034523Y-102258857D01*
X151034523Y-102306476D01*
X150986904Y-102401714D01*
X150939285Y-102449333D01*
X150844047Y-102496952D01*
X150653571Y-102496952D01*
X150558333Y-102544571D01*
X150510714Y-102592190D01*
X150463095Y-102687428D01*
X150463095Y-102877904D01*
X150510714Y-102973142D01*
X150558333Y-103020761D01*
X150653571Y-103068380D01*
X150844047Y-103068380D01*
X150939285Y-103020761D01*
X150986904Y-102973142D01*
X151034523Y-102877904D01*
X151034523Y-102687428D01*
X150986904Y-102592190D01*
X150939285Y-102544571D01*
X150844047Y-102496952D01*
X147415476Y-82700761D02*
X147558333Y-82748380D01*
X147796428Y-82748380D01*
X147891666Y-82700761D01*
X147939285Y-82653142D01*
X147986904Y-82557904D01*
X147986904Y-82462666D01*
X147939285Y-82367428D01*
X147891666Y-82319809D01*
X147796428Y-82272190D01*
X147605952Y-82224571D01*
X147510714Y-82176952D01*
X147463095Y-82129333D01*
X147415476Y-82034095D01*
X147415476Y-81938857D01*
X147463095Y-81843619D01*
X147510714Y-81796000D01*
X147605952Y-81748380D01*
X147844047Y-81748380D01*
X147986904Y-81796000D01*
X148320238Y-81748380D02*
X148558333Y-82748380D01*
X148748809Y-82034095D01*
X148939285Y-82748380D01*
X149177380Y-81748380D01*
X150082142Y-82748380D02*
X149510714Y-82748380D01*
X149796428Y-82748380D02*
X149796428Y-81748380D01*
X149701190Y-81891238D01*
X149605952Y-81986476D01*
X149510714Y-82034095D01*
X150415476Y-81748380D02*
X151082142Y-81748380D01*
X150653571Y-82748380D01*
X127095476Y-143660761D02*
X127238333Y-143708380D01*
X127476428Y-143708380D01*
X127571666Y-143660761D01*
X127619285Y-143613142D01*
X127666904Y-143517904D01*
X127666904Y-143422666D01*
X127619285Y-143327428D01*
X127571666Y-143279809D01*
X127476428Y-143232190D01*
X127285952Y-143184571D01*
X127190714Y-143136952D01*
X127143095Y-143089333D01*
X127095476Y-142994095D01*
X127095476Y-142898857D01*
X127143095Y-142803619D01*
X127190714Y-142756000D01*
X127285952Y-142708380D01*
X127524047Y-142708380D01*
X127666904Y-142756000D01*
X128000238Y-142708380D02*
X128238333Y-143708380D01*
X128428809Y-142994095D01*
X128619285Y-143708380D01*
X128857380Y-142708380D01*
X129762142Y-143708380D02*
X129190714Y-143708380D01*
X129476428Y-143708380D02*
X129476428Y-142708380D01*
X129381190Y-142851238D01*
X129285952Y-142946476D01*
X129190714Y-142994095D01*
X130619285Y-142708380D02*
X130428809Y-142708380D01*
X130333571Y-142756000D01*
X130285952Y-142803619D01*
X130190714Y-142946476D01*
X130143095Y-143136952D01*
X130143095Y-143517904D01*
X130190714Y-143613142D01*
X130238333Y-143660761D01*
X130333571Y-143708380D01*
X130524047Y-143708380D01*
X130619285Y-143660761D01*
X130666904Y-143613142D01*
X130714523Y-143517904D01*
X130714523Y-143279809D01*
X130666904Y-143184571D01*
X130619285Y-143136952D01*
X130524047Y-143089333D01*
X130333571Y-143089333D01*
X130238333Y-143136952D01*
X130190714Y-143184571D01*
X130143095Y-143279809D01*
X126460476Y-123340761D02*
X126603333Y-123388380D01*
X126841428Y-123388380D01*
X126936666Y-123340761D01*
X126984285Y-123293142D01*
X127031904Y-123197904D01*
X127031904Y-123102666D01*
X126984285Y-123007428D01*
X126936666Y-122959809D01*
X126841428Y-122912190D01*
X126650952Y-122864571D01*
X126555714Y-122816952D01*
X126508095Y-122769333D01*
X126460476Y-122674095D01*
X126460476Y-122578857D01*
X126508095Y-122483619D01*
X126555714Y-122436000D01*
X126650952Y-122388380D01*
X126889047Y-122388380D01*
X127031904Y-122436000D01*
X127365238Y-122388380D02*
X127603333Y-123388380D01*
X127793809Y-122674095D01*
X127984285Y-123388380D01*
X128222380Y-122388380D01*
X129127142Y-123388380D02*
X128555714Y-123388380D01*
X128841428Y-123388380D02*
X128841428Y-122388380D01*
X128746190Y-122531238D01*
X128650952Y-122626476D01*
X128555714Y-122674095D01*
X130031904Y-122388380D02*
X129555714Y-122388380D01*
X129508095Y-122864571D01*
X129555714Y-122816952D01*
X129650952Y-122769333D01*
X129889047Y-122769333D01*
X129984285Y-122816952D01*
X130031904Y-122864571D01*
X130079523Y-122959809D01*
X130079523Y-123197904D01*
X130031904Y-123293142D01*
X129984285Y-123340761D01*
X129889047Y-123388380D01*
X129650952Y-123388380D01*
X129555714Y-123340761D01*
X129508095Y-123293142D01*
X125825476Y-103020761D02*
X125968333Y-103068380D01*
X126206428Y-103068380D01*
X126301666Y-103020761D01*
X126349285Y-102973142D01*
X126396904Y-102877904D01*
X126396904Y-102782666D01*
X126349285Y-102687428D01*
X126301666Y-102639809D01*
X126206428Y-102592190D01*
X126015952Y-102544571D01*
X125920714Y-102496952D01*
X125873095Y-102449333D01*
X125825476Y-102354095D01*
X125825476Y-102258857D01*
X125873095Y-102163619D01*
X125920714Y-102116000D01*
X126015952Y-102068380D01*
X126254047Y-102068380D01*
X126396904Y-102116000D01*
X126730238Y-102068380D02*
X126968333Y-103068380D01*
X127158809Y-102354095D01*
X127349285Y-103068380D01*
X127587380Y-102068380D01*
X128492142Y-103068380D02*
X127920714Y-103068380D01*
X128206428Y-103068380D02*
X128206428Y-102068380D01*
X128111190Y-102211238D01*
X128015952Y-102306476D01*
X127920714Y-102354095D01*
X129349285Y-102401714D02*
X129349285Y-103068380D01*
X129111190Y-102020761D02*
X128873095Y-102735047D01*
X129492142Y-102735047D01*
X125190476Y-82700761D02*
X125333333Y-82748380D01*
X125571428Y-82748380D01*
X125666666Y-82700761D01*
X125714285Y-82653142D01*
X125761904Y-82557904D01*
X125761904Y-82462666D01*
X125714285Y-82367428D01*
X125666666Y-82319809D01*
X125571428Y-82272190D01*
X125380952Y-82224571D01*
X125285714Y-82176952D01*
X125238095Y-82129333D01*
X125190476Y-82034095D01*
X125190476Y-81938857D01*
X125238095Y-81843619D01*
X125285714Y-81796000D01*
X125380952Y-81748380D01*
X125619047Y-81748380D01*
X125761904Y-81796000D01*
X126095238Y-81748380D02*
X126333333Y-82748380D01*
X126523809Y-82034095D01*
X126714285Y-82748380D01*
X126952380Y-81748380D01*
X127857142Y-82748380D02*
X127285714Y-82748380D01*
X127571428Y-82748380D02*
X127571428Y-81748380D01*
X127476190Y-81891238D01*
X127380952Y-81986476D01*
X127285714Y-82034095D01*
X128190476Y-81748380D02*
X128809523Y-81748380D01*
X128476190Y-82129333D01*
X128619047Y-82129333D01*
X128714285Y-82176952D01*
X128761904Y-82224571D01*
X128809523Y-82319809D01*
X128809523Y-82557904D01*
X128761904Y-82653142D01*
X128714285Y-82700761D01*
X128619047Y-82748380D01*
X128333333Y-82748380D01*
X128238095Y-82700761D01*
X128190476Y-82653142D01*
X106775476Y-143660761D02*
X106918333Y-143708380D01*
X107156428Y-143708380D01*
X107251666Y-143660761D01*
X107299285Y-143613142D01*
X107346904Y-143517904D01*
X107346904Y-143422666D01*
X107299285Y-143327428D01*
X107251666Y-143279809D01*
X107156428Y-143232190D01*
X106965952Y-143184571D01*
X106870714Y-143136952D01*
X106823095Y-143089333D01*
X106775476Y-142994095D01*
X106775476Y-142898857D01*
X106823095Y-142803619D01*
X106870714Y-142756000D01*
X106965952Y-142708380D01*
X107204047Y-142708380D01*
X107346904Y-142756000D01*
X107680238Y-142708380D02*
X107918333Y-143708380D01*
X108108809Y-142994095D01*
X108299285Y-143708380D01*
X108537380Y-142708380D01*
X109442142Y-143708380D02*
X108870714Y-143708380D01*
X109156428Y-143708380D02*
X109156428Y-142708380D01*
X109061190Y-142851238D01*
X108965952Y-142946476D01*
X108870714Y-142994095D01*
X109823095Y-142803619D02*
X109870714Y-142756000D01*
X109965952Y-142708380D01*
X110204047Y-142708380D01*
X110299285Y-142756000D01*
X110346904Y-142803619D01*
X110394523Y-142898857D01*
X110394523Y-142994095D01*
X110346904Y-143136952D01*
X109775476Y-143708380D01*
X110394523Y-143708380D01*
X106140476Y-123340761D02*
X106283333Y-123388380D01*
X106521428Y-123388380D01*
X106616666Y-123340761D01*
X106664285Y-123293142D01*
X106711904Y-123197904D01*
X106711904Y-123102666D01*
X106664285Y-123007428D01*
X106616666Y-122959809D01*
X106521428Y-122912190D01*
X106330952Y-122864571D01*
X106235714Y-122816952D01*
X106188095Y-122769333D01*
X106140476Y-122674095D01*
X106140476Y-122578857D01*
X106188095Y-122483619D01*
X106235714Y-122436000D01*
X106330952Y-122388380D01*
X106569047Y-122388380D01*
X106711904Y-122436000D01*
X107045238Y-122388380D02*
X107283333Y-123388380D01*
X107473809Y-122674095D01*
X107664285Y-123388380D01*
X107902380Y-122388380D01*
X108807142Y-123388380D02*
X108235714Y-123388380D01*
X108521428Y-123388380D02*
X108521428Y-122388380D01*
X108426190Y-122531238D01*
X108330952Y-122626476D01*
X108235714Y-122674095D01*
X109759523Y-123388380D02*
X109188095Y-123388380D01*
X109473809Y-123388380D02*
X109473809Y-122388380D01*
X109378571Y-122531238D01*
X109283333Y-122626476D01*
X109188095Y-122674095D01*
X105505476Y-103020761D02*
X105648333Y-103068380D01*
X105886428Y-103068380D01*
X105981666Y-103020761D01*
X106029285Y-102973142D01*
X106076904Y-102877904D01*
X106076904Y-102782666D01*
X106029285Y-102687428D01*
X105981666Y-102639809D01*
X105886428Y-102592190D01*
X105695952Y-102544571D01*
X105600714Y-102496952D01*
X105553095Y-102449333D01*
X105505476Y-102354095D01*
X105505476Y-102258857D01*
X105553095Y-102163619D01*
X105600714Y-102116000D01*
X105695952Y-102068380D01*
X105934047Y-102068380D01*
X106076904Y-102116000D01*
X106410238Y-102068380D02*
X106648333Y-103068380D01*
X106838809Y-102354095D01*
X107029285Y-103068380D01*
X107267380Y-102068380D01*
X108172142Y-103068380D02*
X107600714Y-103068380D01*
X107886428Y-103068380D02*
X107886428Y-102068380D01*
X107791190Y-102211238D01*
X107695952Y-102306476D01*
X107600714Y-102354095D01*
X108791190Y-102068380D02*
X108886428Y-102068380D01*
X108981666Y-102116000D01*
X109029285Y-102163619D01*
X109076904Y-102258857D01*
X109124523Y-102449333D01*
X109124523Y-102687428D01*
X109076904Y-102877904D01*
X109029285Y-102973142D01*
X108981666Y-103020761D01*
X108886428Y-103068380D01*
X108791190Y-103068380D01*
X108695952Y-103020761D01*
X108648333Y-102973142D01*
X108600714Y-102877904D01*
X108553095Y-102687428D01*
X108553095Y-102449333D01*
X108600714Y-102258857D01*
X108648333Y-102163619D01*
X108695952Y-102116000D01*
X108791190Y-102068380D01*
X105346666Y-82700761D02*
X105489523Y-82748380D01*
X105727619Y-82748380D01*
X105822857Y-82700761D01*
X105870476Y-82653142D01*
X105918095Y-82557904D01*
X105918095Y-82462666D01*
X105870476Y-82367428D01*
X105822857Y-82319809D01*
X105727619Y-82272190D01*
X105537142Y-82224571D01*
X105441904Y-82176952D01*
X105394285Y-82129333D01*
X105346666Y-82034095D01*
X105346666Y-81938857D01*
X105394285Y-81843619D01*
X105441904Y-81796000D01*
X105537142Y-81748380D01*
X105775238Y-81748380D01*
X105918095Y-81796000D01*
X106251428Y-81748380D02*
X106489523Y-82748380D01*
X106680000Y-82034095D01*
X106870476Y-82748380D01*
X107108571Y-81748380D01*
X107537142Y-82748380D02*
X107727619Y-82748380D01*
X107822857Y-82700761D01*
X107870476Y-82653142D01*
X107965714Y-82510285D01*
X108013333Y-82319809D01*
X108013333Y-81938857D01*
X107965714Y-81843619D01*
X107918095Y-81796000D01*
X107822857Y-81748380D01*
X107632380Y-81748380D01*
X107537142Y-81796000D01*
X107489523Y-81843619D01*
X107441904Y-81938857D01*
X107441904Y-82176952D01*
X107489523Y-82272190D01*
X107537142Y-82319809D01*
X107632380Y-82367428D01*
X107822857Y-82367428D01*
X107918095Y-82319809D01*
X107965714Y-82272190D01*
X108013333Y-82176952D01*
X86931666Y-143660761D02*
X87074523Y-143708380D01*
X87312619Y-143708380D01*
X87407857Y-143660761D01*
X87455476Y-143613142D01*
X87503095Y-143517904D01*
X87503095Y-143422666D01*
X87455476Y-143327428D01*
X87407857Y-143279809D01*
X87312619Y-143232190D01*
X87122142Y-143184571D01*
X87026904Y-143136952D01*
X86979285Y-143089333D01*
X86931666Y-142994095D01*
X86931666Y-142898857D01*
X86979285Y-142803619D01*
X87026904Y-142756000D01*
X87122142Y-142708380D01*
X87360238Y-142708380D01*
X87503095Y-142756000D01*
X87836428Y-142708380D02*
X88074523Y-143708380D01*
X88265000Y-142994095D01*
X88455476Y-143708380D01*
X88693571Y-142708380D01*
X89217380Y-143136952D02*
X89122142Y-143089333D01*
X89074523Y-143041714D01*
X89026904Y-142946476D01*
X89026904Y-142898857D01*
X89074523Y-142803619D01*
X89122142Y-142756000D01*
X89217380Y-142708380D01*
X89407857Y-142708380D01*
X89503095Y-142756000D01*
X89550714Y-142803619D01*
X89598333Y-142898857D01*
X89598333Y-142946476D01*
X89550714Y-143041714D01*
X89503095Y-143089333D01*
X89407857Y-143136952D01*
X89217380Y-143136952D01*
X89122142Y-143184571D01*
X89074523Y-143232190D01*
X89026904Y-143327428D01*
X89026904Y-143517904D01*
X89074523Y-143613142D01*
X89122142Y-143660761D01*
X89217380Y-143708380D01*
X89407857Y-143708380D01*
X89503095Y-143660761D01*
X89550714Y-143613142D01*
X89598333Y-143517904D01*
X89598333Y-143327428D01*
X89550714Y-143232190D01*
X89503095Y-143184571D01*
X89407857Y-143136952D01*
X86296666Y-123340761D02*
X86439523Y-123388380D01*
X86677619Y-123388380D01*
X86772857Y-123340761D01*
X86820476Y-123293142D01*
X86868095Y-123197904D01*
X86868095Y-123102666D01*
X86820476Y-123007428D01*
X86772857Y-122959809D01*
X86677619Y-122912190D01*
X86487142Y-122864571D01*
X86391904Y-122816952D01*
X86344285Y-122769333D01*
X86296666Y-122674095D01*
X86296666Y-122578857D01*
X86344285Y-122483619D01*
X86391904Y-122436000D01*
X86487142Y-122388380D01*
X86725238Y-122388380D01*
X86868095Y-122436000D01*
X87201428Y-122388380D02*
X87439523Y-123388380D01*
X87630000Y-122674095D01*
X87820476Y-123388380D01*
X88058571Y-122388380D01*
X88344285Y-122388380D02*
X89010952Y-122388380D01*
X88582380Y-123388380D01*
X85661666Y-103020761D02*
X85804523Y-103068380D01*
X86042619Y-103068380D01*
X86137857Y-103020761D01*
X86185476Y-102973142D01*
X86233095Y-102877904D01*
X86233095Y-102782666D01*
X86185476Y-102687428D01*
X86137857Y-102639809D01*
X86042619Y-102592190D01*
X85852142Y-102544571D01*
X85756904Y-102496952D01*
X85709285Y-102449333D01*
X85661666Y-102354095D01*
X85661666Y-102258857D01*
X85709285Y-102163619D01*
X85756904Y-102116000D01*
X85852142Y-102068380D01*
X86090238Y-102068380D01*
X86233095Y-102116000D01*
X86566428Y-102068380D02*
X86804523Y-103068380D01*
X86995000Y-102354095D01*
X87185476Y-103068380D01*
X87423571Y-102068380D01*
X88233095Y-102068380D02*
X88042619Y-102068380D01*
X87947380Y-102116000D01*
X87899761Y-102163619D01*
X87804523Y-102306476D01*
X87756904Y-102496952D01*
X87756904Y-102877904D01*
X87804523Y-102973142D01*
X87852142Y-103020761D01*
X87947380Y-103068380D01*
X88137857Y-103068380D01*
X88233095Y-103020761D01*
X88280714Y-102973142D01*
X88328333Y-102877904D01*
X88328333Y-102639809D01*
X88280714Y-102544571D01*
X88233095Y-102496952D01*
X88137857Y-102449333D01*
X87947380Y-102449333D01*
X87852142Y-102496952D01*
X87804523Y-102544571D01*
X87756904Y-102639809D01*
X85026666Y-82700761D02*
X85169523Y-82748380D01*
X85407619Y-82748380D01*
X85502857Y-82700761D01*
X85550476Y-82653142D01*
X85598095Y-82557904D01*
X85598095Y-82462666D01*
X85550476Y-82367428D01*
X85502857Y-82319809D01*
X85407619Y-82272190D01*
X85217142Y-82224571D01*
X85121904Y-82176952D01*
X85074285Y-82129333D01*
X85026666Y-82034095D01*
X85026666Y-81938857D01*
X85074285Y-81843619D01*
X85121904Y-81796000D01*
X85217142Y-81748380D01*
X85455238Y-81748380D01*
X85598095Y-81796000D01*
X85931428Y-81748380D02*
X86169523Y-82748380D01*
X86360000Y-82034095D01*
X86550476Y-82748380D01*
X86788571Y-81748380D01*
X87645714Y-81748380D02*
X87169523Y-81748380D01*
X87121904Y-82224571D01*
X87169523Y-82176952D01*
X87264761Y-82129333D01*
X87502857Y-82129333D01*
X87598095Y-82176952D01*
X87645714Y-82224571D01*
X87693333Y-82319809D01*
X87693333Y-82557904D01*
X87645714Y-82653142D01*
X87598095Y-82700761D01*
X87502857Y-82748380D01*
X87264761Y-82748380D01*
X87169523Y-82700761D01*
X87121904Y-82653142D01*
X66611666Y-147470761D02*
X66754523Y-147518380D01*
X66992619Y-147518380D01*
X67087857Y-147470761D01*
X67135476Y-147423142D01*
X67183095Y-147327904D01*
X67183095Y-147232666D01*
X67135476Y-147137428D01*
X67087857Y-147089809D01*
X66992619Y-147042190D01*
X66802142Y-146994571D01*
X66706904Y-146946952D01*
X66659285Y-146899333D01*
X66611666Y-146804095D01*
X66611666Y-146708857D01*
X66659285Y-146613619D01*
X66706904Y-146566000D01*
X66802142Y-146518380D01*
X67040238Y-146518380D01*
X67183095Y-146566000D01*
X67516428Y-146518380D02*
X67754523Y-147518380D01*
X67945000Y-146804095D01*
X68135476Y-147518380D01*
X68373571Y-146518380D01*
X69183095Y-146851714D02*
X69183095Y-147518380D01*
X68945000Y-146470761D02*
X68706904Y-147185047D01*
X69325952Y-147185047D01*
X65976666Y-127150761D02*
X66119523Y-127198380D01*
X66357619Y-127198380D01*
X66452857Y-127150761D01*
X66500476Y-127103142D01*
X66548095Y-127007904D01*
X66548095Y-126912666D01*
X66500476Y-126817428D01*
X66452857Y-126769809D01*
X66357619Y-126722190D01*
X66167142Y-126674571D01*
X66071904Y-126626952D01*
X66024285Y-126579333D01*
X65976666Y-126484095D01*
X65976666Y-126388857D01*
X66024285Y-126293619D01*
X66071904Y-126246000D01*
X66167142Y-126198380D01*
X66405238Y-126198380D01*
X66548095Y-126246000D01*
X66881428Y-126198380D02*
X67119523Y-127198380D01*
X67310000Y-126484095D01*
X67500476Y-127198380D01*
X67738571Y-126198380D01*
X68024285Y-126198380D02*
X68643333Y-126198380D01*
X68310000Y-126579333D01*
X68452857Y-126579333D01*
X68548095Y-126626952D01*
X68595714Y-126674571D01*
X68643333Y-126769809D01*
X68643333Y-127007904D01*
X68595714Y-127103142D01*
X68548095Y-127150761D01*
X68452857Y-127198380D01*
X68167142Y-127198380D01*
X68071904Y-127150761D01*
X68024285Y-127103142D01*
X65341666Y-106830761D02*
X65484523Y-106878380D01*
X65722619Y-106878380D01*
X65817857Y-106830761D01*
X65865476Y-106783142D01*
X65913095Y-106687904D01*
X65913095Y-106592666D01*
X65865476Y-106497428D01*
X65817857Y-106449809D01*
X65722619Y-106402190D01*
X65532142Y-106354571D01*
X65436904Y-106306952D01*
X65389285Y-106259333D01*
X65341666Y-106164095D01*
X65341666Y-106068857D01*
X65389285Y-105973619D01*
X65436904Y-105926000D01*
X65532142Y-105878380D01*
X65770238Y-105878380D01*
X65913095Y-105926000D01*
X66246428Y-105878380D02*
X66484523Y-106878380D01*
X66675000Y-106164095D01*
X66865476Y-106878380D01*
X67103571Y-105878380D01*
X67436904Y-105973619D02*
X67484523Y-105926000D01*
X67579761Y-105878380D01*
X67817857Y-105878380D01*
X67913095Y-105926000D01*
X67960714Y-105973619D01*
X68008333Y-106068857D01*
X68008333Y-106164095D01*
X67960714Y-106306952D01*
X67389285Y-106878380D01*
X68008333Y-106878380D01*
X64706666Y-86510761D02*
X64849523Y-86558380D01*
X65087619Y-86558380D01*
X65182857Y-86510761D01*
X65230476Y-86463142D01*
X65278095Y-86367904D01*
X65278095Y-86272666D01*
X65230476Y-86177428D01*
X65182857Y-86129809D01*
X65087619Y-86082190D01*
X64897142Y-86034571D01*
X64801904Y-85986952D01*
X64754285Y-85939333D01*
X64706666Y-85844095D01*
X64706666Y-85748857D01*
X64754285Y-85653619D01*
X64801904Y-85606000D01*
X64897142Y-85558380D01*
X65135238Y-85558380D01*
X65278095Y-85606000D01*
X65611428Y-85558380D02*
X65849523Y-86558380D01*
X66040000Y-85844095D01*
X66230476Y-86558380D01*
X66468571Y-85558380D01*
X67373333Y-86558380D02*
X66801904Y-86558380D01*
X67087619Y-86558380D02*
X67087619Y-85558380D01*
X66992380Y-85701238D01*
X66897142Y-85796476D01*
X66801904Y-85844095D01*
M02*
