M48
INCH,TZ
T1C0.0669
T2C0.1260
T3C0.1575
%
G90
G05
T1
X24000Y-37000
X24250Y-45000
X24500Y-53000
X24750Y-61000
X28000Y-37000
X28250Y-45000
X28500Y-53000
X28750Y-61000
X32000Y-35500
X32250Y-43500
X32500Y-51500
X32750Y-59500
X36000Y-35500
X36250Y-43500
X36500Y-51500
X36750Y-59500
X40000Y-35500
X40250Y-43500
X40500Y-51500
X40750Y-59500
X44000Y-35500
X44250Y-43500
X44500Y-51500
X44750Y-59500
X48000Y-35500
X48250Y-43500
X48500Y-51500
X48750Y-59500
X52000Y-35500
X52250Y-43500
X52500Y-51500
X52750Y-59500
X56750Y-35500
X56750Y-43500
X56750Y-51500
X56750Y-59500
X60750Y-35500
X60750Y-43500
X60750Y-51500
X60750Y-59500
T2
X19000Y-16250
X19000Y-65250
X63750Y-16250
X63750Y-65250
T3
X26000Y-37000
X26250Y-45000
X26500Y-53000
X26750Y-61000
X34000Y-35500
X34250Y-43500
X34500Y-51500
X34750Y-59500
X42000Y-35500
X42250Y-43500
X42500Y-51500
X42750Y-59500
X50000Y-35500
X50250Y-43500
X50500Y-51500
X50750Y-59500
X58750Y-35500
X58750Y-43500
X58750Y-51500
X58750Y-59500
T0
M30
