G04 #@! TF.GenerationSoftware,KiCad,Pcbnew,(5.1.10)-1*
G04 #@! TF.CreationDate,2021-09-13T16:17:20-07:00*
G04 #@! TF.ProjectId,keyboard_pcb,6b657962-6f61-4726-945f-7063622e6b69,v0.1*
G04 #@! TF.SameCoordinates,Original*
G04 #@! TF.FileFunction,Soldermask,Top*
G04 #@! TF.FilePolarity,Negative*
%FSLAX46Y46*%
G04 Gerber Fmt 4.6, Leading zero omitted, Abs format (unit mm)*
G04 Created by KiCad (PCBNEW (5.1.10)-1) date 2021-09-13 16:17:20*
%MOMM*%
%LPD*%
G01*
G04 APERTURE LIST*
%ADD10C,3.000000*%
%ADD11C,3.200000*%
%ADD12C,1.600000*%
%ADD13C,1.700000*%
%ADD14C,4.000000*%
%ADD15C,2.200000*%
G04 APERTURE END LIST*
D10*
X153065000Y-59690000D03*
X130810000Y-49530000D03*
X122555000Y-53340000D03*
X114403274Y-57150000D03*
D11*
X161925000Y-165735000D03*
X161925000Y-41275000D03*
X48260000Y-165735000D03*
X48260000Y-41275000D03*
D12*
X87630000Y-52070000D03*
X87630000Y-67310000D03*
X85090000Y-52070000D03*
X82550000Y-52070000D03*
X80010000Y-52070000D03*
X77470000Y-52070000D03*
X74930000Y-52070000D03*
X72390000Y-52070000D03*
X69850000Y-52070000D03*
X67310000Y-52070000D03*
X64770000Y-52070000D03*
X62230000Y-52070000D03*
X59690000Y-52070000D03*
X57150000Y-52070000D03*
X54610000Y-52070000D03*
X85090000Y-67310000D03*
X82550000Y-67310000D03*
X80010000Y-67310000D03*
X77470000Y-67310000D03*
X74930000Y-67310000D03*
X72390000Y-67310000D03*
X69850000Y-67310000D03*
X67310000Y-67310000D03*
X64770000Y-67310000D03*
X62230000Y-67310000D03*
X59690000Y-67310000D03*
X57150000Y-67310000D03*
X54610000Y-67310000D03*
D13*
X154305000Y-151130000D03*
X144145000Y-151130000D03*
D14*
X149225000Y-151130000D03*
D15*
X145415000Y-148590000D03*
X151765000Y-146050000D03*
D13*
X154305000Y-130810000D03*
X144145000Y-130810000D03*
D14*
X149225000Y-130810000D03*
D15*
X145415000Y-128270000D03*
X151765000Y-125730000D03*
D13*
X154305000Y-110490000D03*
X144145000Y-110490000D03*
D14*
X149225000Y-110490000D03*
D15*
X145415000Y-107950000D03*
X151765000Y-105410000D03*
D13*
X154305000Y-90170000D03*
X144145000Y-90170000D03*
D14*
X149225000Y-90170000D03*
D15*
X145415000Y-87630000D03*
X151765000Y-85090000D03*
D13*
X133985000Y-151130000D03*
X123825000Y-151130000D03*
D14*
X128905000Y-151130000D03*
D15*
X125095000Y-148590000D03*
X131445000Y-146050000D03*
D13*
X133350000Y-130810000D03*
X123190000Y-130810000D03*
D14*
X128270000Y-130810000D03*
D15*
X124460000Y-128270000D03*
X130810000Y-125730000D03*
D13*
X132715000Y-110490000D03*
X122555000Y-110490000D03*
D14*
X127635000Y-110490000D03*
D15*
X123825000Y-107950000D03*
X130175000Y-105410000D03*
D13*
X132080000Y-90170000D03*
X121920000Y-90170000D03*
D14*
X127000000Y-90170000D03*
D15*
X123190000Y-87630000D03*
X129540000Y-85090000D03*
D13*
X113665000Y-151130000D03*
X103505000Y-151130000D03*
D14*
X108585000Y-151130000D03*
D15*
X104775000Y-148590000D03*
X111125000Y-146050000D03*
D13*
X113030000Y-130810000D03*
X102870000Y-130810000D03*
D14*
X107950000Y-130810000D03*
D15*
X104140000Y-128270000D03*
X110490000Y-125730000D03*
D13*
X112395000Y-110490000D03*
X102235000Y-110490000D03*
D14*
X107315000Y-110490000D03*
D15*
X103505000Y-107950000D03*
X109855000Y-105410000D03*
D13*
X111760000Y-90170000D03*
X101600000Y-90170000D03*
D14*
X106680000Y-90170000D03*
D15*
X102870000Y-87630000D03*
X109220000Y-85090000D03*
D13*
X93345000Y-151130000D03*
X83185000Y-151130000D03*
D14*
X88265000Y-151130000D03*
D15*
X84455000Y-148590000D03*
X90805000Y-146050000D03*
D13*
X92710000Y-130810000D03*
X82550000Y-130810000D03*
D14*
X87630000Y-130810000D03*
D15*
X83820000Y-128270000D03*
X90170000Y-125730000D03*
D13*
X92075000Y-110490000D03*
X81915000Y-110490000D03*
D14*
X86995000Y-110490000D03*
D15*
X83185000Y-107950000D03*
X89535000Y-105410000D03*
D13*
X91440000Y-90170000D03*
X81280000Y-90170000D03*
D14*
X86360000Y-90170000D03*
D15*
X82550000Y-87630000D03*
X88900000Y-85090000D03*
D13*
X73025000Y-154940000D03*
X62865000Y-154940000D03*
D14*
X67945000Y-154940000D03*
D15*
X64135000Y-152400000D03*
X70485000Y-149860000D03*
D13*
X72390000Y-134620000D03*
X62230000Y-134620000D03*
D14*
X67310000Y-134620000D03*
D15*
X63500000Y-132080000D03*
X69850000Y-129540000D03*
D13*
X71755000Y-114300000D03*
X61595000Y-114300000D03*
D14*
X66675000Y-114300000D03*
D15*
X62865000Y-111760000D03*
X69215000Y-109220000D03*
D13*
X71120000Y-93980000D03*
X60960000Y-93980000D03*
D14*
X66040000Y-93980000D03*
D15*
X62230000Y-91440000D03*
X68580000Y-88900000D03*
M02*
