M48
INCH,TZ
T1C0.0433
T2C0.0591
T3C0.0787
%
G90
G05
T1
X21500Y-20500
X21500Y-26500
X22500Y-20500
X22500Y-26500
X23500Y-20500
X23500Y-26500
X24500Y-20500
X24500Y-26500
X25500Y-20500
X25500Y-26500
X26500Y-20500
X26500Y-26500
X27500Y-20500
X27500Y-26500
X28500Y-20500
X28500Y-26500
X29500Y-20500
X29500Y-26500
X30500Y-20500
X30500Y-26500
X31500Y-20500
X31500Y-26500
X32500Y-20500
X32500Y-26500
X33500Y-20500
X33500Y-26500
X34500Y-20500
X34500Y-26500
T2
X24500Y-36000
X24750Y-44000
X25000Y-52000
X25250Y-60000
X27000Y-35000
X27250Y-43000
X27500Y-51000
X27750Y-59000
X32500Y-34500
X32750Y-42500
X33000Y-50500
X33250Y-58500
X35000Y-33500
X35250Y-41500
X35500Y-49500
X35750Y-57500
X40500Y-34500
X40750Y-42500
X41000Y-50500
X41250Y-58500
X43000Y-33500
X43250Y-41500
X43500Y-49500
X43750Y-57500
X48500Y-34500
X48750Y-42500
X49000Y-50500
X49250Y-58500
X51000Y-33500
X51250Y-41500
X51500Y-49500
X51750Y-57500
X57250Y-34500
X57250Y-42500
X57250Y-50500
X57250Y-58500
X59750Y-33500
X59750Y-41500
X59750Y-49500
X59750Y-57500
T3
X45041Y-22500
X48250Y-21000
X51500Y-19500
X60262Y-23500
T0
M30
