G04 #@! TF.GenerationSoftware,KiCad,Pcbnew,(5.1.10)-1*
G04 #@! TF.CreationDate,2021-09-13T16:17:20-07:00*
G04 #@! TF.ProjectId,keyboard_pcb,6b657962-6f61-4726-945f-7063622e6b69,v0.1*
G04 #@! TF.SameCoordinates,Original*
G04 #@! TF.FileFunction,Other,Fab,Top*
%FSLAX46Y46*%
G04 Gerber Fmt 4.6, Leading zero omitted, Abs format (unit mm)*
G04 Created by KiCad (PCBNEW (5.1.10)-1) date 2021-09-13 16:17:20*
%MOMM*%
%LPD*%
G01*
G04 APERTURE LIST*
%ADD10C,0.100000*%
%ADD11C,0.150000*%
G04 APERTURE END LIST*
D10*
X142875000Y-144780000D02*
X155575000Y-144780000D01*
X155575000Y-144780000D02*
X155575000Y-157480000D01*
X155575000Y-157480000D02*
X142875000Y-157480000D01*
X142875000Y-157480000D02*
X142875000Y-144780000D01*
X142875000Y-124460000D02*
X155575000Y-124460000D01*
X155575000Y-124460000D02*
X155575000Y-137160000D01*
X155575000Y-137160000D02*
X142875000Y-137160000D01*
X142875000Y-137160000D02*
X142875000Y-124460000D01*
X142875000Y-104140000D02*
X155575000Y-104140000D01*
X155575000Y-104140000D02*
X155575000Y-116840000D01*
X155575000Y-116840000D02*
X142875000Y-116840000D01*
X142875000Y-116840000D02*
X142875000Y-104140000D01*
X142875000Y-83820000D02*
X155575000Y-83820000D01*
X155575000Y-83820000D02*
X155575000Y-96520000D01*
X155575000Y-96520000D02*
X142875000Y-96520000D01*
X142875000Y-96520000D02*
X142875000Y-83820000D01*
X122555000Y-144780000D02*
X135255000Y-144780000D01*
X135255000Y-144780000D02*
X135255000Y-157480000D01*
X135255000Y-157480000D02*
X122555000Y-157480000D01*
X122555000Y-157480000D02*
X122555000Y-144780000D01*
X121920000Y-124460000D02*
X134620000Y-124460000D01*
X134620000Y-124460000D02*
X134620000Y-137160000D01*
X134620000Y-137160000D02*
X121920000Y-137160000D01*
X121920000Y-137160000D02*
X121920000Y-124460000D01*
X121285000Y-104140000D02*
X133985000Y-104140000D01*
X133985000Y-104140000D02*
X133985000Y-116840000D01*
X133985000Y-116840000D02*
X121285000Y-116840000D01*
X121285000Y-116840000D02*
X121285000Y-104140000D01*
X120650000Y-83820000D02*
X133350000Y-83820000D01*
X133350000Y-83820000D02*
X133350000Y-96520000D01*
X133350000Y-96520000D02*
X120650000Y-96520000D01*
X120650000Y-96520000D02*
X120650000Y-83820000D01*
X102235000Y-144780000D02*
X114935000Y-144780000D01*
X114935000Y-144780000D02*
X114935000Y-157480000D01*
X114935000Y-157480000D02*
X102235000Y-157480000D01*
X102235000Y-157480000D02*
X102235000Y-144780000D01*
X101600000Y-124460000D02*
X114300000Y-124460000D01*
X114300000Y-124460000D02*
X114300000Y-137160000D01*
X114300000Y-137160000D02*
X101600000Y-137160000D01*
X101600000Y-137160000D02*
X101600000Y-124460000D01*
X100965000Y-104140000D02*
X113665000Y-104140000D01*
X113665000Y-104140000D02*
X113665000Y-116840000D01*
X113665000Y-116840000D02*
X100965000Y-116840000D01*
X100965000Y-116840000D02*
X100965000Y-104140000D01*
X100330000Y-83820000D02*
X113030000Y-83820000D01*
X113030000Y-83820000D02*
X113030000Y-96520000D01*
X113030000Y-96520000D02*
X100330000Y-96520000D01*
X100330000Y-96520000D02*
X100330000Y-83820000D01*
X81915000Y-144780000D02*
X94615000Y-144780000D01*
X94615000Y-144780000D02*
X94615000Y-157480000D01*
X94615000Y-157480000D02*
X81915000Y-157480000D01*
X81915000Y-157480000D02*
X81915000Y-144780000D01*
X81280000Y-124460000D02*
X93980000Y-124460000D01*
X93980000Y-124460000D02*
X93980000Y-137160000D01*
X93980000Y-137160000D02*
X81280000Y-137160000D01*
X81280000Y-137160000D02*
X81280000Y-124460000D01*
X80645000Y-104140000D02*
X93345000Y-104140000D01*
X93345000Y-104140000D02*
X93345000Y-116840000D01*
X93345000Y-116840000D02*
X80645000Y-116840000D01*
X80645000Y-116840000D02*
X80645000Y-104140000D01*
X80010000Y-83820000D02*
X92710000Y-83820000D01*
X92710000Y-83820000D02*
X92710000Y-96520000D01*
X92710000Y-96520000D02*
X80010000Y-96520000D01*
X80010000Y-96520000D02*
X80010000Y-83820000D01*
X61595000Y-148590000D02*
X74295000Y-148590000D01*
X74295000Y-148590000D02*
X74295000Y-161290000D01*
X74295000Y-161290000D02*
X61595000Y-161290000D01*
X61595000Y-161290000D02*
X61595000Y-148590000D01*
X60960000Y-128270000D02*
X73660000Y-128270000D01*
X73660000Y-128270000D02*
X73660000Y-140970000D01*
X73660000Y-140970000D02*
X60960000Y-140970000D01*
X60960000Y-140970000D02*
X60960000Y-128270000D01*
X60325000Y-107950000D02*
X73025000Y-107950000D01*
X73025000Y-107950000D02*
X73025000Y-120650000D01*
X73025000Y-120650000D02*
X60325000Y-120650000D01*
X60325000Y-120650000D02*
X60325000Y-107950000D01*
X59690000Y-87630000D02*
X72390000Y-87630000D01*
X72390000Y-87630000D02*
X72390000Y-100330000D01*
X72390000Y-100330000D02*
X59690000Y-100330000D01*
X59690000Y-100330000D02*
X59690000Y-87630000D01*
D11*
X146493571Y-62592380D02*
X146493571Y-61592380D01*
X146826904Y-62306666D01*
X147160238Y-61592380D01*
X147160238Y-62592380D01*
X147779285Y-62592380D02*
X147684047Y-62544761D01*
X147636428Y-62497142D01*
X147588809Y-62401904D01*
X147588809Y-62116190D01*
X147636428Y-62020952D01*
X147684047Y-61973333D01*
X147779285Y-61925714D01*
X147922142Y-61925714D01*
X148017380Y-61973333D01*
X148065000Y-62020952D01*
X148112619Y-62116190D01*
X148112619Y-62401904D01*
X148065000Y-62497142D01*
X148017380Y-62544761D01*
X147922142Y-62592380D01*
X147779285Y-62592380D01*
X148969761Y-61925714D02*
X148969761Y-62592380D01*
X148541190Y-61925714D02*
X148541190Y-62449523D01*
X148588809Y-62544761D01*
X148684047Y-62592380D01*
X148826904Y-62592380D01*
X148922142Y-62544761D01*
X148969761Y-62497142D01*
X149445952Y-61925714D02*
X149445952Y-62592380D01*
X149445952Y-62020952D02*
X149493571Y-61973333D01*
X149588809Y-61925714D01*
X149731666Y-61925714D01*
X149826904Y-61973333D01*
X149874523Y-62068571D01*
X149874523Y-62592380D01*
X150207857Y-61925714D02*
X150588809Y-61925714D01*
X150350714Y-61592380D02*
X150350714Y-62449523D01*
X150398333Y-62544761D01*
X150493571Y-62592380D01*
X150588809Y-62592380D01*
X150922142Y-62592380D02*
X150922142Y-61925714D01*
X150922142Y-61592380D02*
X150874523Y-61640000D01*
X150922142Y-61687619D01*
X150969761Y-61640000D01*
X150922142Y-61592380D01*
X150922142Y-61687619D01*
X151398333Y-61925714D02*
X151398333Y-62592380D01*
X151398333Y-62020952D02*
X151445952Y-61973333D01*
X151541190Y-61925714D01*
X151684047Y-61925714D01*
X151779285Y-61973333D01*
X151826904Y-62068571D01*
X151826904Y-62592380D01*
X152731666Y-61925714D02*
X152731666Y-62735238D01*
X152684047Y-62830476D01*
X152636428Y-62878095D01*
X152541190Y-62925714D01*
X152398333Y-62925714D01*
X152303095Y-62878095D01*
X152731666Y-62544761D02*
X152636428Y-62592380D01*
X152445952Y-62592380D01*
X152350714Y-62544761D01*
X152303095Y-62497142D01*
X152255476Y-62401904D01*
X152255476Y-62116190D01*
X152303095Y-62020952D01*
X152350714Y-61973333D01*
X152445952Y-61925714D01*
X152636428Y-61925714D01*
X152731666Y-61973333D01*
X153207857Y-62592380D02*
X153207857Y-61592380D01*
X153207857Y-62068571D02*
X153779285Y-62068571D01*
X153779285Y-62592380D02*
X153779285Y-61592380D01*
X154398333Y-62592380D02*
X154303095Y-62544761D01*
X154255476Y-62497142D01*
X154207857Y-62401904D01*
X154207857Y-62116190D01*
X154255476Y-62020952D01*
X154303095Y-61973333D01*
X154398333Y-61925714D01*
X154541190Y-61925714D01*
X154636428Y-61973333D01*
X154684047Y-62020952D01*
X154731666Y-62116190D01*
X154731666Y-62401904D01*
X154684047Y-62497142D01*
X154636428Y-62544761D01*
X154541190Y-62592380D01*
X154398333Y-62592380D01*
X155303095Y-62592380D02*
X155207857Y-62544761D01*
X155160238Y-62449523D01*
X155160238Y-61592380D01*
X156065000Y-62544761D02*
X155969761Y-62592380D01*
X155779285Y-62592380D01*
X155684047Y-62544761D01*
X155636428Y-62449523D01*
X155636428Y-62068571D01*
X155684047Y-61973333D01*
X155779285Y-61925714D01*
X155969761Y-61925714D01*
X156065000Y-61973333D01*
X156112619Y-62068571D01*
X156112619Y-62163809D01*
X155636428Y-62259047D01*
X156303095Y-62687619D02*
X157065000Y-62687619D01*
X157303095Y-62592380D02*
X157303095Y-61592380D01*
X157684047Y-61592380D01*
X157779285Y-61640000D01*
X157826904Y-61687619D01*
X157874523Y-61782857D01*
X157874523Y-61925714D01*
X157826904Y-62020952D01*
X157779285Y-62068571D01*
X157684047Y-62116190D01*
X157303095Y-62116190D01*
X158731666Y-62592380D02*
X158731666Y-62068571D01*
X158684047Y-61973333D01*
X158588809Y-61925714D01*
X158398333Y-61925714D01*
X158303095Y-61973333D01*
X158731666Y-62544761D02*
X158636428Y-62592380D01*
X158398333Y-62592380D01*
X158303095Y-62544761D01*
X158255476Y-62449523D01*
X158255476Y-62354285D01*
X158303095Y-62259047D01*
X158398333Y-62211428D01*
X158636428Y-62211428D01*
X158731666Y-62163809D01*
X159636428Y-62592380D02*
X159636428Y-61592380D01*
X159636428Y-62544761D02*
X159541190Y-62592380D01*
X159350714Y-62592380D01*
X159255476Y-62544761D01*
X159207857Y-62497142D01*
X159160238Y-62401904D01*
X159160238Y-62116190D01*
X159207857Y-62020952D01*
X159255476Y-61973333D01*
X159350714Y-61925714D01*
X159541190Y-61925714D01*
X159636428Y-61973333D01*
X150779285Y-56642380D02*
X151350714Y-56642380D01*
X151065000Y-57642380D02*
X151065000Y-56642380D01*
X152207857Y-56690000D02*
X152112619Y-56642380D01*
X151969761Y-56642380D01*
X151826904Y-56690000D01*
X151731666Y-56785238D01*
X151684047Y-56880476D01*
X151636428Y-57070952D01*
X151636428Y-57213809D01*
X151684047Y-57404285D01*
X151731666Y-57499523D01*
X151826904Y-57594761D01*
X151969761Y-57642380D01*
X152065000Y-57642380D01*
X152207857Y-57594761D01*
X152255476Y-57547142D01*
X152255476Y-57213809D01*
X152065000Y-57213809D01*
X152684047Y-57642380D02*
X152684047Y-56642380D01*
X153255476Y-57642380D01*
X153255476Y-56642380D01*
X153731666Y-57642380D02*
X153731666Y-56642380D01*
X153969761Y-56642380D01*
X154112619Y-56690000D01*
X154207857Y-56785238D01*
X154255476Y-56880476D01*
X154303095Y-57070952D01*
X154303095Y-57213809D01*
X154255476Y-57404285D01*
X154207857Y-57499523D01*
X154112619Y-57594761D01*
X153969761Y-57642380D01*
X153731666Y-57642380D01*
X155255476Y-57642380D02*
X154684047Y-57642380D01*
X154969761Y-57642380D02*
X154969761Y-56642380D01*
X154874523Y-56785238D01*
X154779285Y-56880476D01*
X154684047Y-56928095D01*
X124238571Y-52432380D02*
X124238571Y-51432380D01*
X124571904Y-52146666D01*
X124905238Y-51432380D01*
X124905238Y-52432380D01*
X125524285Y-52432380D02*
X125429047Y-52384761D01*
X125381428Y-52337142D01*
X125333809Y-52241904D01*
X125333809Y-51956190D01*
X125381428Y-51860952D01*
X125429047Y-51813333D01*
X125524285Y-51765714D01*
X125667142Y-51765714D01*
X125762380Y-51813333D01*
X125810000Y-51860952D01*
X125857619Y-51956190D01*
X125857619Y-52241904D01*
X125810000Y-52337142D01*
X125762380Y-52384761D01*
X125667142Y-52432380D01*
X125524285Y-52432380D01*
X126714761Y-51765714D02*
X126714761Y-52432380D01*
X126286190Y-51765714D02*
X126286190Y-52289523D01*
X126333809Y-52384761D01*
X126429047Y-52432380D01*
X126571904Y-52432380D01*
X126667142Y-52384761D01*
X126714761Y-52337142D01*
X127190952Y-51765714D02*
X127190952Y-52432380D01*
X127190952Y-51860952D02*
X127238571Y-51813333D01*
X127333809Y-51765714D01*
X127476666Y-51765714D01*
X127571904Y-51813333D01*
X127619523Y-51908571D01*
X127619523Y-52432380D01*
X127952857Y-51765714D02*
X128333809Y-51765714D01*
X128095714Y-51432380D02*
X128095714Y-52289523D01*
X128143333Y-52384761D01*
X128238571Y-52432380D01*
X128333809Y-52432380D01*
X128667142Y-52432380D02*
X128667142Y-51765714D01*
X128667142Y-51432380D02*
X128619523Y-51480000D01*
X128667142Y-51527619D01*
X128714761Y-51480000D01*
X128667142Y-51432380D01*
X128667142Y-51527619D01*
X129143333Y-51765714D02*
X129143333Y-52432380D01*
X129143333Y-51860952D02*
X129190952Y-51813333D01*
X129286190Y-51765714D01*
X129429047Y-51765714D01*
X129524285Y-51813333D01*
X129571904Y-51908571D01*
X129571904Y-52432380D01*
X130476666Y-51765714D02*
X130476666Y-52575238D01*
X130429047Y-52670476D01*
X130381428Y-52718095D01*
X130286190Y-52765714D01*
X130143333Y-52765714D01*
X130048095Y-52718095D01*
X130476666Y-52384761D02*
X130381428Y-52432380D01*
X130190952Y-52432380D01*
X130095714Y-52384761D01*
X130048095Y-52337142D01*
X130000476Y-52241904D01*
X130000476Y-51956190D01*
X130048095Y-51860952D01*
X130095714Y-51813333D01*
X130190952Y-51765714D01*
X130381428Y-51765714D01*
X130476666Y-51813333D01*
X130952857Y-52432380D02*
X130952857Y-51432380D01*
X130952857Y-51908571D02*
X131524285Y-51908571D01*
X131524285Y-52432380D02*
X131524285Y-51432380D01*
X132143333Y-52432380D02*
X132048095Y-52384761D01*
X132000476Y-52337142D01*
X131952857Y-52241904D01*
X131952857Y-51956190D01*
X132000476Y-51860952D01*
X132048095Y-51813333D01*
X132143333Y-51765714D01*
X132286190Y-51765714D01*
X132381428Y-51813333D01*
X132429047Y-51860952D01*
X132476666Y-51956190D01*
X132476666Y-52241904D01*
X132429047Y-52337142D01*
X132381428Y-52384761D01*
X132286190Y-52432380D01*
X132143333Y-52432380D01*
X133048095Y-52432380D02*
X132952857Y-52384761D01*
X132905238Y-52289523D01*
X132905238Y-51432380D01*
X133810000Y-52384761D02*
X133714761Y-52432380D01*
X133524285Y-52432380D01*
X133429047Y-52384761D01*
X133381428Y-52289523D01*
X133381428Y-51908571D01*
X133429047Y-51813333D01*
X133524285Y-51765714D01*
X133714761Y-51765714D01*
X133810000Y-51813333D01*
X133857619Y-51908571D01*
X133857619Y-52003809D01*
X133381428Y-52099047D01*
X134048095Y-52527619D02*
X134810000Y-52527619D01*
X135048095Y-52432380D02*
X135048095Y-51432380D01*
X135429047Y-51432380D01*
X135524285Y-51480000D01*
X135571904Y-51527619D01*
X135619523Y-51622857D01*
X135619523Y-51765714D01*
X135571904Y-51860952D01*
X135524285Y-51908571D01*
X135429047Y-51956190D01*
X135048095Y-51956190D01*
X136476666Y-52432380D02*
X136476666Y-51908571D01*
X136429047Y-51813333D01*
X136333809Y-51765714D01*
X136143333Y-51765714D01*
X136048095Y-51813333D01*
X136476666Y-52384761D02*
X136381428Y-52432380D01*
X136143333Y-52432380D01*
X136048095Y-52384761D01*
X136000476Y-52289523D01*
X136000476Y-52194285D01*
X136048095Y-52099047D01*
X136143333Y-52051428D01*
X136381428Y-52051428D01*
X136476666Y-52003809D01*
X137381428Y-52432380D02*
X137381428Y-51432380D01*
X137381428Y-52384761D02*
X137286190Y-52432380D01*
X137095714Y-52432380D01*
X137000476Y-52384761D01*
X136952857Y-52337142D01*
X136905238Y-52241904D01*
X136905238Y-51956190D01*
X136952857Y-51860952D01*
X137000476Y-51813333D01*
X137095714Y-51765714D01*
X137286190Y-51765714D01*
X137381428Y-51813333D01*
X130048095Y-46482380D02*
X130619523Y-46482380D01*
X130333809Y-47482380D02*
X130333809Y-46482380D01*
X130905238Y-46577619D02*
X130952857Y-46530000D01*
X131048095Y-46482380D01*
X131286190Y-46482380D01*
X131381428Y-46530000D01*
X131429047Y-46577619D01*
X131476666Y-46672857D01*
X131476666Y-46768095D01*
X131429047Y-46910952D01*
X130857619Y-47482380D01*
X131476666Y-47482380D01*
X115983571Y-56242380D02*
X115983571Y-55242380D01*
X116316904Y-55956666D01*
X116650238Y-55242380D01*
X116650238Y-56242380D01*
X117269285Y-56242380D02*
X117174047Y-56194761D01*
X117126428Y-56147142D01*
X117078809Y-56051904D01*
X117078809Y-55766190D01*
X117126428Y-55670952D01*
X117174047Y-55623333D01*
X117269285Y-55575714D01*
X117412142Y-55575714D01*
X117507380Y-55623333D01*
X117555000Y-55670952D01*
X117602619Y-55766190D01*
X117602619Y-56051904D01*
X117555000Y-56147142D01*
X117507380Y-56194761D01*
X117412142Y-56242380D01*
X117269285Y-56242380D01*
X118459761Y-55575714D02*
X118459761Y-56242380D01*
X118031190Y-55575714D02*
X118031190Y-56099523D01*
X118078809Y-56194761D01*
X118174047Y-56242380D01*
X118316904Y-56242380D01*
X118412142Y-56194761D01*
X118459761Y-56147142D01*
X118935952Y-55575714D02*
X118935952Y-56242380D01*
X118935952Y-55670952D02*
X118983571Y-55623333D01*
X119078809Y-55575714D01*
X119221666Y-55575714D01*
X119316904Y-55623333D01*
X119364523Y-55718571D01*
X119364523Y-56242380D01*
X119697857Y-55575714D02*
X120078809Y-55575714D01*
X119840714Y-55242380D02*
X119840714Y-56099523D01*
X119888333Y-56194761D01*
X119983571Y-56242380D01*
X120078809Y-56242380D01*
X120412142Y-56242380D02*
X120412142Y-55575714D01*
X120412142Y-55242380D02*
X120364523Y-55290000D01*
X120412142Y-55337619D01*
X120459761Y-55290000D01*
X120412142Y-55242380D01*
X120412142Y-55337619D01*
X120888333Y-55575714D02*
X120888333Y-56242380D01*
X120888333Y-55670952D02*
X120935952Y-55623333D01*
X121031190Y-55575714D01*
X121174047Y-55575714D01*
X121269285Y-55623333D01*
X121316904Y-55718571D01*
X121316904Y-56242380D01*
X122221666Y-55575714D02*
X122221666Y-56385238D01*
X122174047Y-56480476D01*
X122126428Y-56528095D01*
X122031190Y-56575714D01*
X121888333Y-56575714D01*
X121793095Y-56528095D01*
X122221666Y-56194761D02*
X122126428Y-56242380D01*
X121935952Y-56242380D01*
X121840714Y-56194761D01*
X121793095Y-56147142D01*
X121745476Y-56051904D01*
X121745476Y-55766190D01*
X121793095Y-55670952D01*
X121840714Y-55623333D01*
X121935952Y-55575714D01*
X122126428Y-55575714D01*
X122221666Y-55623333D01*
X122697857Y-56242380D02*
X122697857Y-55242380D01*
X122697857Y-55718571D02*
X123269285Y-55718571D01*
X123269285Y-56242380D02*
X123269285Y-55242380D01*
X123888333Y-56242380D02*
X123793095Y-56194761D01*
X123745476Y-56147142D01*
X123697857Y-56051904D01*
X123697857Y-55766190D01*
X123745476Y-55670952D01*
X123793095Y-55623333D01*
X123888333Y-55575714D01*
X124031190Y-55575714D01*
X124126428Y-55623333D01*
X124174047Y-55670952D01*
X124221666Y-55766190D01*
X124221666Y-56051904D01*
X124174047Y-56147142D01*
X124126428Y-56194761D01*
X124031190Y-56242380D01*
X123888333Y-56242380D01*
X124793095Y-56242380D02*
X124697857Y-56194761D01*
X124650238Y-56099523D01*
X124650238Y-55242380D01*
X125555000Y-56194761D02*
X125459761Y-56242380D01*
X125269285Y-56242380D01*
X125174047Y-56194761D01*
X125126428Y-56099523D01*
X125126428Y-55718571D01*
X125174047Y-55623333D01*
X125269285Y-55575714D01*
X125459761Y-55575714D01*
X125555000Y-55623333D01*
X125602619Y-55718571D01*
X125602619Y-55813809D01*
X125126428Y-55909047D01*
X125793095Y-56337619D02*
X126555000Y-56337619D01*
X126793095Y-56242380D02*
X126793095Y-55242380D01*
X127174047Y-55242380D01*
X127269285Y-55290000D01*
X127316904Y-55337619D01*
X127364523Y-55432857D01*
X127364523Y-55575714D01*
X127316904Y-55670952D01*
X127269285Y-55718571D01*
X127174047Y-55766190D01*
X126793095Y-55766190D01*
X128221666Y-56242380D02*
X128221666Y-55718571D01*
X128174047Y-55623333D01*
X128078809Y-55575714D01*
X127888333Y-55575714D01*
X127793095Y-55623333D01*
X128221666Y-56194761D02*
X128126428Y-56242380D01*
X127888333Y-56242380D01*
X127793095Y-56194761D01*
X127745476Y-56099523D01*
X127745476Y-56004285D01*
X127793095Y-55909047D01*
X127888333Y-55861428D01*
X128126428Y-55861428D01*
X128221666Y-55813809D01*
X129126428Y-56242380D02*
X129126428Y-55242380D01*
X129126428Y-56194761D02*
X129031190Y-56242380D01*
X128840714Y-56242380D01*
X128745476Y-56194761D01*
X128697857Y-56147142D01*
X128650238Y-56051904D01*
X128650238Y-55766190D01*
X128697857Y-55670952D01*
X128745476Y-55623333D01*
X128840714Y-55575714D01*
X129031190Y-55575714D01*
X129126428Y-55623333D01*
X121793095Y-50292380D02*
X122364523Y-50292380D01*
X122078809Y-51292380D02*
X122078809Y-50292380D01*
X123221666Y-51292380D02*
X122650238Y-51292380D01*
X122935952Y-51292380D02*
X122935952Y-50292380D01*
X122840714Y-50435238D01*
X122745476Y-50530476D01*
X122650238Y-50578095D01*
X107831845Y-60052380D02*
X107831845Y-59052380D01*
X108165178Y-59766666D01*
X108498512Y-59052380D01*
X108498512Y-60052380D01*
X109117559Y-60052380D02*
X109022321Y-60004761D01*
X108974702Y-59957142D01*
X108927083Y-59861904D01*
X108927083Y-59576190D01*
X108974702Y-59480952D01*
X109022321Y-59433333D01*
X109117559Y-59385714D01*
X109260416Y-59385714D01*
X109355654Y-59433333D01*
X109403274Y-59480952D01*
X109450893Y-59576190D01*
X109450893Y-59861904D01*
X109403274Y-59957142D01*
X109355654Y-60004761D01*
X109260416Y-60052380D01*
X109117559Y-60052380D01*
X110308035Y-59385714D02*
X110308035Y-60052380D01*
X109879464Y-59385714D02*
X109879464Y-59909523D01*
X109927083Y-60004761D01*
X110022321Y-60052380D01*
X110165178Y-60052380D01*
X110260416Y-60004761D01*
X110308035Y-59957142D01*
X110784226Y-59385714D02*
X110784226Y-60052380D01*
X110784226Y-59480952D02*
X110831845Y-59433333D01*
X110927083Y-59385714D01*
X111069940Y-59385714D01*
X111165178Y-59433333D01*
X111212797Y-59528571D01*
X111212797Y-60052380D01*
X111546131Y-59385714D02*
X111927083Y-59385714D01*
X111688988Y-59052380D02*
X111688988Y-59909523D01*
X111736607Y-60004761D01*
X111831845Y-60052380D01*
X111927083Y-60052380D01*
X112260416Y-60052380D02*
X112260416Y-59385714D01*
X112260416Y-59052380D02*
X112212797Y-59100000D01*
X112260416Y-59147619D01*
X112308035Y-59100000D01*
X112260416Y-59052380D01*
X112260416Y-59147619D01*
X112736607Y-59385714D02*
X112736607Y-60052380D01*
X112736607Y-59480952D02*
X112784226Y-59433333D01*
X112879464Y-59385714D01*
X113022321Y-59385714D01*
X113117559Y-59433333D01*
X113165178Y-59528571D01*
X113165178Y-60052380D01*
X114069940Y-59385714D02*
X114069940Y-60195238D01*
X114022321Y-60290476D01*
X113974702Y-60338095D01*
X113879464Y-60385714D01*
X113736607Y-60385714D01*
X113641369Y-60338095D01*
X114069940Y-60004761D02*
X113974702Y-60052380D01*
X113784226Y-60052380D01*
X113688988Y-60004761D01*
X113641369Y-59957142D01*
X113593750Y-59861904D01*
X113593750Y-59576190D01*
X113641369Y-59480952D01*
X113688988Y-59433333D01*
X113784226Y-59385714D01*
X113974702Y-59385714D01*
X114069940Y-59433333D01*
X114546131Y-60052380D02*
X114546131Y-59052380D01*
X114546131Y-59528571D02*
X115117559Y-59528571D01*
X115117559Y-60052380D02*
X115117559Y-59052380D01*
X115736607Y-60052380D02*
X115641369Y-60004761D01*
X115593750Y-59957142D01*
X115546131Y-59861904D01*
X115546131Y-59576190D01*
X115593750Y-59480952D01*
X115641369Y-59433333D01*
X115736607Y-59385714D01*
X115879464Y-59385714D01*
X115974702Y-59433333D01*
X116022321Y-59480952D01*
X116069940Y-59576190D01*
X116069940Y-59861904D01*
X116022321Y-59957142D01*
X115974702Y-60004761D01*
X115879464Y-60052380D01*
X115736607Y-60052380D01*
X116641369Y-60052380D02*
X116546131Y-60004761D01*
X116498512Y-59909523D01*
X116498512Y-59052380D01*
X117403274Y-60004761D02*
X117308035Y-60052380D01*
X117117559Y-60052380D01*
X117022321Y-60004761D01*
X116974702Y-59909523D01*
X116974702Y-59528571D01*
X117022321Y-59433333D01*
X117117559Y-59385714D01*
X117308035Y-59385714D01*
X117403274Y-59433333D01*
X117450893Y-59528571D01*
X117450893Y-59623809D01*
X116974702Y-59719047D01*
X117641369Y-60147619D02*
X118403274Y-60147619D01*
X118641369Y-60052380D02*
X118641369Y-59052380D01*
X119022321Y-59052380D01*
X119117559Y-59100000D01*
X119165178Y-59147619D01*
X119212797Y-59242857D01*
X119212797Y-59385714D01*
X119165178Y-59480952D01*
X119117559Y-59528571D01*
X119022321Y-59576190D01*
X118641369Y-59576190D01*
X120069940Y-60052380D02*
X120069940Y-59528571D01*
X120022321Y-59433333D01*
X119927083Y-59385714D01*
X119736607Y-59385714D01*
X119641369Y-59433333D01*
X120069940Y-60004761D02*
X119974702Y-60052380D01*
X119736607Y-60052380D01*
X119641369Y-60004761D01*
X119593750Y-59909523D01*
X119593750Y-59814285D01*
X119641369Y-59719047D01*
X119736607Y-59671428D01*
X119974702Y-59671428D01*
X120069940Y-59623809D01*
X120974702Y-60052380D02*
X120974702Y-59052380D01*
X120974702Y-60004761D02*
X120879464Y-60052380D01*
X120688988Y-60052380D01*
X120593750Y-60004761D01*
X120546131Y-59957142D01*
X120498512Y-59861904D01*
X120498512Y-59576190D01*
X120546131Y-59480952D01*
X120593750Y-59433333D01*
X120688988Y-59385714D01*
X120879464Y-59385714D01*
X120974702Y-59433333D01*
X113641369Y-54102380D02*
X114212797Y-54102380D01*
X113927083Y-55102380D02*
X113927083Y-54102380D01*
X114736607Y-54102380D02*
X114831845Y-54102380D01*
X114927083Y-54150000D01*
X114974702Y-54197619D01*
X115022321Y-54292857D01*
X115069940Y-54483333D01*
X115069940Y-54721428D01*
X115022321Y-54911904D01*
X114974702Y-55007142D01*
X114927083Y-55054761D01*
X114831845Y-55102380D01*
X114736607Y-55102380D01*
X114641369Y-55054761D01*
X114593750Y-55007142D01*
X114546131Y-54911904D01*
X114498512Y-54721428D01*
X114498512Y-54483333D01*
X114546131Y-54292857D01*
X114593750Y-54197619D01*
X114641369Y-54150000D01*
X114736607Y-54102380D01*
X157139285Y-170387380D02*
X157139285Y-169387380D01*
X157472619Y-170101666D01*
X157805952Y-169387380D01*
X157805952Y-170387380D01*
X158425000Y-170387380D02*
X158329761Y-170339761D01*
X158282142Y-170292142D01*
X158234523Y-170196904D01*
X158234523Y-169911190D01*
X158282142Y-169815952D01*
X158329761Y-169768333D01*
X158425000Y-169720714D01*
X158567857Y-169720714D01*
X158663095Y-169768333D01*
X158710714Y-169815952D01*
X158758333Y-169911190D01*
X158758333Y-170196904D01*
X158710714Y-170292142D01*
X158663095Y-170339761D01*
X158567857Y-170387380D01*
X158425000Y-170387380D01*
X159615476Y-169720714D02*
X159615476Y-170387380D01*
X159186904Y-169720714D02*
X159186904Y-170244523D01*
X159234523Y-170339761D01*
X159329761Y-170387380D01*
X159472619Y-170387380D01*
X159567857Y-170339761D01*
X159615476Y-170292142D01*
X160091666Y-169720714D02*
X160091666Y-170387380D01*
X160091666Y-169815952D02*
X160139285Y-169768333D01*
X160234523Y-169720714D01*
X160377380Y-169720714D01*
X160472619Y-169768333D01*
X160520238Y-169863571D01*
X160520238Y-170387380D01*
X160853571Y-169720714D02*
X161234523Y-169720714D01*
X160996428Y-169387380D02*
X160996428Y-170244523D01*
X161044047Y-170339761D01*
X161139285Y-170387380D01*
X161234523Y-170387380D01*
X161567857Y-170387380D02*
X161567857Y-169720714D01*
X161567857Y-169387380D02*
X161520238Y-169435000D01*
X161567857Y-169482619D01*
X161615476Y-169435000D01*
X161567857Y-169387380D01*
X161567857Y-169482619D01*
X162044047Y-169720714D02*
X162044047Y-170387380D01*
X162044047Y-169815952D02*
X162091666Y-169768333D01*
X162186904Y-169720714D01*
X162329761Y-169720714D01*
X162425000Y-169768333D01*
X162472619Y-169863571D01*
X162472619Y-170387380D01*
X163377380Y-169720714D02*
X163377380Y-170530238D01*
X163329761Y-170625476D01*
X163282142Y-170673095D01*
X163186904Y-170720714D01*
X163044047Y-170720714D01*
X162948809Y-170673095D01*
X163377380Y-170339761D02*
X163282142Y-170387380D01*
X163091666Y-170387380D01*
X162996428Y-170339761D01*
X162948809Y-170292142D01*
X162901190Y-170196904D01*
X162901190Y-169911190D01*
X162948809Y-169815952D01*
X162996428Y-169768333D01*
X163091666Y-169720714D01*
X163282142Y-169720714D01*
X163377380Y-169768333D01*
X163853571Y-170387380D02*
X163853571Y-169387380D01*
X163853571Y-169863571D02*
X164425000Y-169863571D01*
X164425000Y-170387380D02*
X164425000Y-169387380D01*
X165044047Y-170387380D02*
X164948809Y-170339761D01*
X164901190Y-170292142D01*
X164853571Y-170196904D01*
X164853571Y-169911190D01*
X164901190Y-169815952D01*
X164948809Y-169768333D01*
X165044047Y-169720714D01*
X165186904Y-169720714D01*
X165282142Y-169768333D01*
X165329761Y-169815952D01*
X165377380Y-169911190D01*
X165377380Y-170196904D01*
X165329761Y-170292142D01*
X165282142Y-170339761D01*
X165186904Y-170387380D01*
X165044047Y-170387380D01*
X165948809Y-170387380D02*
X165853571Y-170339761D01*
X165805952Y-170244523D01*
X165805952Y-169387380D01*
X166710714Y-170339761D02*
X166615476Y-170387380D01*
X166425000Y-170387380D01*
X166329761Y-170339761D01*
X166282142Y-170244523D01*
X166282142Y-169863571D01*
X166329761Y-169768333D01*
X166425000Y-169720714D01*
X166615476Y-169720714D01*
X166710714Y-169768333D01*
X166758333Y-169863571D01*
X166758333Y-169958809D01*
X166282142Y-170054047D01*
X161463095Y-166187380D02*
X161463095Y-165187380D01*
X161463095Y-165663571D02*
X162034523Y-165663571D01*
X162034523Y-166187380D02*
X162034523Y-165187380D01*
X162415476Y-165187380D02*
X163034523Y-165187380D01*
X162701190Y-165568333D01*
X162844047Y-165568333D01*
X162939285Y-165615952D01*
X162986904Y-165663571D01*
X163034523Y-165758809D01*
X163034523Y-165996904D01*
X162986904Y-166092142D01*
X162939285Y-166139761D01*
X162844047Y-166187380D01*
X162558333Y-166187380D01*
X162463095Y-166139761D01*
X162415476Y-166092142D01*
X157139285Y-45927380D02*
X157139285Y-44927380D01*
X157472619Y-45641666D01*
X157805952Y-44927380D01*
X157805952Y-45927380D01*
X158425000Y-45927380D02*
X158329761Y-45879761D01*
X158282142Y-45832142D01*
X158234523Y-45736904D01*
X158234523Y-45451190D01*
X158282142Y-45355952D01*
X158329761Y-45308333D01*
X158425000Y-45260714D01*
X158567857Y-45260714D01*
X158663095Y-45308333D01*
X158710714Y-45355952D01*
X158758333Y-45451190D01*
X158758333Y-45736904D01*
X158710714Y-45832142D01*
X158663095Y-45879761D01*
X158567857Y-45927380D01*
X158425000Y-45927380D01*
X159615476Y-45260714D02*
X159615476Y-45927380D01*
X159186904Y-45260714D02*
X159186904Y-45784523D01*
X159234523Y-45879761D01*
X159329761Y-45927380D01*
X159472619Y-45927380D01*
X159567857Y-45879761D01*
X159615476Y-45832142D01*
X160091666Y-45260714D02*
X160091666Y-45927380D01*
X160091666Y-45355952D02*
X160139285Y-45308333D01*
X160234523Y-45260714D01*
X160377380Y-45260714D01*
X160472619Y-45308333D01*
X160520238Y-45403571D01*
X160520238Y-45927380D01*
X160853571Y-45260714D02*
X161234523Y-45260714D01*
X160996428Y-44927380D02*
X160996428Y-45784523D01*
X161044047Y-45879761D01*
X161139285Y-45927380D01*
X161234523Y-45927380D01*
X161567857Y-45927380D02*
X161567857Y-45260714D01*
X161567857Y-44927380D02*
X161520238Y-44975000D01*
X161567857Y-45022619D01*
X161615476Y-44975000D01*
X161567857Y-44927380D01*
X161567857Y-45022619D01*
X162044047Y-45260714D02*
X162044047Y-45927380D01*
X162044047Y-45355952D02*
X162091666Y-45308333D01*
X162186904Y-45260714D01*
X162329761Y-45260714D01*
X162425000Y-45308333D01*
X162472619Y-45403571D01*
X162472619Y-45927380D01*
X163377380Y-45260714D02*
X163377380Y-46070238D01*
X163329761Y-46165476D01*
X163282142Y-46213095D01*
X163186904Y-46260714D01*
X163044047Y-46260714D01*
X162948809Y-46213095D01*
X163377380Y-45879761D02*
X163282142Y-45927380D01*
X163091666Y-45927380D01*
X162996428Y-45879761D01*
X162948809Y-45832142D01*
X162901190Y-45736904D01*
X162901190Y-45451190D01*
X162948809Y-45355952D01*
X162996428Y-45308333D01*
X163091666Y-45260714D01*
X163282142Y-45260714D01*
X163377380Y-45308333D01*
X163853571Y-45927380D02*
X163853571Y-44927380D01*
X163853571Y-45403571D02*
X164425000Y-45403571D01*
X164425000Y-45927380D02*
X164425000Y-44927380D01*
X165044047Y-45927380D02*
X164948809Y-45879761D01*
X164901190Y-45832142D01*
X164853571Y-45736904D01*
X164853571Y-45451190D01*
X164901190Y-45355952D01*
X164948809Y-45308333D01*
X165044047Y-45260714D01*
X165186904Y-45260714D01*
X165282142Y-45308333D01*
X165329761Y-45355952D01*
X165377380Y-45451190D01*
X165377380Y-45736904D01*
X165329761Y-45832142D01*
X165282142Y-45879761D01*
X165186904Y-45927380D01*
X165044047Y-45927380D01*
X165948809Y-45927380D02*
X165853571Y-45879761D01*
X165805952Y-45784523D01*
X165805952Y-44927380D01*
X166710714Y-45879761D02*
X166615476Y-45927380D01*
X166425000Y-45927380D01*
X166329761Y-45879761D01*
X166282142Y-45784523D01*
X166282142Y-45403571D01*
X166329761Y-45308333D01*
X166425000Y-45260714D01*
X166615476Y-45260714D01*
X166710714Y-45308333D01*
X166758333Y-45403571D01*
X166758333Y-45498809D01*
X166282142Y-45594047D01*
X161463095Y-41727380D02*
X161463095Y-40727380D01*
X161463095Y-41203571D02*
X162034523Y-41203571D01*
X162034523Y-41727380D02*
X162034523Y-40727380D01*
X162463095Y-40822619D02*
X162510714Y-40775000D01*
X162605952Y-40727380D01*
X162844047Y-40727380D01*
X162939285Y-40775000D01*
X162986904Y-40822619D01*
X163034523Y-40917857D01*
X163034523Y-41013095D01*
X162986904Y-41155952D01*
X162415476Y-41727380D01*
X163034523Y-41727380D01*
X43474285Y-170387380D02*
X43474285Y-169387380D01*
X43807619Y-170101666D01*
X44140952Y-169387380D01*
X44140952Y-170387380D01*
X44760000Y-170387380D02*
X44664761Y-170339761D01*
X44617142Y-170292142D01*
X44569523Y-170196904D01*
X44569523Y-169911190D01*
X44617142Y-169815952D01*
X44664761Y-169768333D01*
X44760000Y-169720714D01*
X44902857Y-169720714D01*
X44998095Y-169768333D01*
X45045714Y-169815952D01*
X45093333Y-169911190D01*
X45093333Y-170196904D01*
X45045714Y-170292142D01*
X44998095Y-170339761D01*
X44902857Y-170387380D01*
X44760000Y-170387380D01*
X45950476Y-169720714D02*
X45950476Y-170387380D01*
X45521904Y-169720714D02*
X45521904Y-170244523D01*
X45569523Y-170339761D01*
X45664761Y-170387380D01*
X45807619Y-170387380D01*
X45902857Y-170339761D01*
X45950476Y-170292142D01*
X46426666Y-169720714D02*
X46426666Y-170387380D01*
X46426666Y-169815952D02*
X46474285Y-169768333D01*
X46569523Y-169720714D01*
X46712380Y-169720714D01*
X46807619Y-169768333D01*
X46855238Y-169863571D01*
X46855238Y-170387380D01*
X47188571Y-169720714D02*
X47569523Y-169720714D01*
X47331428Y-169387380D02*
X47331428Y-170244523D01*
X47379047Y-170339761D01*
X47474285Y-170387380D01*
X47569523Y-170387380D01*
X47902857Y-170387380D02*
X47902857Y-169720714D01*
X47902857Y-169387380D02*
X47855238Y-169435000D01*
X47902857Y-169482619D01*
X47950476Y-169435000D01*
X47902857Y-169387380D01*
X47902857Y-169482619D01*
X48379047Y-169720714D02*
X48379047Y-170387380D01*
X48379047Y-169815952D02*
X48426666Y-169768333D01*
X48521904Y-169720714D01*
X48664761Y-169720714D01*
X48760000Y-169768333D01*
X48807619Y-169863571D01*
X48807619Y-170387380D01*
X49712380Y-169720714D02*
X49712380Y-170530238D01*
X49664761Y-170625476D01*
X49617142Y-170673095D01*
X49521904Y-170720714D01*
X49379047Y-170720714D01*
X49283809Y-170673095D01*
X49712380Y-170339761D02*
X49617142Y-170387380D01*
X49426666Y-170387380D01*
X49331428Y-170339761D01*
X49283809Y-170292142D01*
X49236190Y-170196904D01*
X49236190Y-169911190D01*
X49283809Y-169815952D01*
X49331428Y-169768333D01*
X49426666Y-169720714D01*
X49617142Y-169720714D01*
X49712380Y-169768333D01*
X50188571Y-170387380D02*
X50188571Y-169387380D01*
X50188571Y-169863571D02*
X50760000Y-169863571D01*
X50760000Y-170387380D02*
X50760000Y-169387380D01*
X51379047Y-170387380D02*
X51283809Y-170339761D01*
X51236190Y-170292142D01*
X51188571Y-170196904D01*
X51188571Y-169911190D01*
X51236190Y-169815952D01*
X51283809Y-169768333D01*
X51379047Y-169720714D01*
X51521904Y-169720714D01*
X51617142Y-169768333D01*
X51664761Y-169815952D01*
X51712380Y-169911190D01*
X51712380Y-170196904D01*
X51664761Y-170292142D01*
X51617142Y-170339761D01*
X51521904Y-170387380D01*
X51379047Y-170387380D01*
X52283809Y-170387380D02*
X52188571Y-170339761D01*
X52140952Y-170244523D01*
X52140952Y-169387380D01*
X53045714Y-170339761D02*
X52950476Y-170387380D01*
X52760000Y-170387380D01*
X52664761Y-170339761D01*
X52617142Y-170244523D01*
X52617142Y-169863571D01*
X52664761Y-169768333D01*
X52760000Y-169720714D01*
X52950476Y-169720714D01*
X53045714Y-169768333D01*
X53093333Y-169863571D01*
X53093333Y-169958809D01*
X52617142Y-170054047D01*
X47798095Y-166187380D02*
X47798095Y-165187380D01*
X47798095Y-165663571D02*
X48369523Y-165663571D01*
X48369523Y-166187380D02*
X48369523Y-165187380D01*
X49369523Y-166187380D02*
X48798095Y-166187380D01*
X49083809Y-166187380D02*
X49083809Y-165187380D01*
X48988571Y-165330238D01*
X48893333Y-165425476D01*
X48798095Y-165473095D01*
X43474285Y-45927380D02*
X43474285Y-44927380D01*
X43807619Y-45641666D01*
X44140952Y-44927380D01*
X44140952Y-45927380D01*
X44760000Y-45927380D02*
X44664761Y-45879761D01*
X44617142Y-45832142D01*
X44569523Y-45736904D01*
X44569523Y-45451190D01*
X44617142Y-45355952D01*
X44664761Y-45308333D01*
X44760000Y-45260714D01*
X44902857Y-45260714D01*
X44998095Y-45308333D01*
X45045714Y-45355952D01*
X45093333Y-45451190D01*
X45093333Y-45736904D01*
X45045714Y-45832142D01*
X44998095Y-45879761D01*
X44902857Y-45927380D01*
X44760000Y-45927380D01*
X45950476Y-45260714D02*
X45950476Y-45927380D01*
X45521904Y-45260714D02*
X45521904Y-45784523D01*
X45569523Y-45879761D01*
X45664761Y-45927380D01*
X45807619Y-45927380D01*
X45902857Y-45879761D01*
X45950476Y-45832142D01*
X46426666Y-45260714D02*
X46426666Y-45927380D01*
X46426666Y-45355952D02*
X46474285Y-45308333D01*
X46569523Y-45260714D01*
X46712380Y-45260714D01*
X46807619Y-45308333D01*
X46855238Y-45403571D01*
X46855238Y-45927380D01*
X47188571Y-45260714D02*
X47569523Y-45260714D01*
X47331428Y-44927380D02*
X47331428Y-45784523D01*
X47379047Y-45879761D01*
X47474285Y-45927380D01*
X47569523Y-45927380D01*
X47902857Y-45927380D02*
X47902857Y-45260714D01*
X47902857Y-44927380D02*
X47855238Y-44975000D01*
X47902857Y-45022619D01*
X47950476Y-44975000D01*
X47902857Y-44927380D01*
X47902857Y-45022619D01*
X48379047Y-45260714D02*
X48379047Y-45927380D01*
X48379047Y-45355952D02*
X48426666Y-45308333D01*
X48521904Y-45260714D01*
X48664761Y-45260714D01*
X48760000Y-45308333D01*
X48807619Y-45403571D01*
X48807619Y-45927380D01*
X49712380Y-45260714D02*
X49712380Y-46070238D01*
X49664761Y-46165476D01*
X49617142Y-46213095D01*
X49521904Y-46260714D01*
X49379047Y-46260714D01*
X49283809Y-46213095D01*
X49712380Y-45879761D02*
X49617142Y-45927380D01*
X49426666Y-45927380D01*
X49331428Y-45879761D01*
X49283809Y-45832142D01*
X49236190Y-45736904D01*
X49236190Y-45451190D01*
X49283809Y-45355952D01*
X49331428Y-45308333D01*
X49426666Y-45260714D01*
X49617142Y-45260714D01*
X49712380Y-45308333D01*
X50188571Y-45927380D02*
X50188571Y-44927380D01*
X50188571Y-45403571D02*
X50760000Y-45403571D01*
X50760000Y-45927380D02*
X50760000Y-44927380D01*
X51379047Y-45927380D02*
X51283809Y-45879761D01*
X51236190Y-45832142D01*
X51188571Y-45736904D01*
X51188571Y-45451190D01*
X51236190Y-45355952D01*
X51283809Y-45308333D01*
X51379047Y-45260714D01*
X51521904Y-45260714D01*
X51617142Y-45308333D01*
X51664761Y-45355952D01*
X51712380Y-45451190D01*
X51712380Y-45736904D01*
X51664761Y-45832142D01*
X51617142Y-45879761D01*
X51521904Y-45927380D01*
X51379047Y-45927380D01*
X52283809Y-45927380D02*
X52188571Y-45879761D01*
X52140952Y-45784523D01*
X52140952Y-44927380D01*
X53045714Y-45879761D02*
X52950476Y-45927380D01*
X52760000Y-45927380D01*
X52664761Y-45879761D01*
X52617142Y-45784523D01*
X52617142Y-45403571D01*
X52664761Y-45308333D01*
X52760000Y-45260714D01*
X52950476Y-45260714D01*
X53045714Y-45308333D01*
X53093333Y-45403571D01*
X53093333Y-45498809D01*
X52617142Y-45594047D01*
X47798095Y-41727380D02*
X47798095Y-40727380D01*
X47798095Y-41203571D02*
X48369523Y-41203571D01*
X48369523Y-41727380D02*
X48369523Y-40727380D01*
X49036190Y-40727380D02*
X49131428Y-40727380D01*
X49226666Y-40775000D01*
X49274285Y-40822619D01*
X49321904Y-40917857D01*
X49369523Y-41108333D01*
X49369523Y-41346428D01*
X49321904Y-41536904D01*
X49274285Y-41632142D01*
X49226666Y-41679761D01*
X49131428Y-41727380D01*
X49036190Y-41727380D01*
X48940952Y-41679761D01*
X48893333Y-41632142D01*
X48845714Y-41536904D01*
X48798095Y-41346428D01*
X48798095Y-41108333D01*
X48845714Y-40917857D01*
X48893333Y-40822619D01*
X48940952Y-40775000D01*
X49036190Y-40727380D01*
X67548571Y-69302380D02*
X68120000Y-69302380D01*
X67834285Y-70302380D02*
X67834285Y-69302380D01*
X68834285Y-70254761D02*
X68739047Y-70302380D01*
X68548571Y-70302380D01*
X68453333Y-70254761D01*
X68405714Y-70159523D01*
X68405714Y-69778571D01*
X68453333Y-69683333D01*
X68548571Y-69635714D01*
X68739047Y-69635714D01*
X68834285Y-69683333D01*
X68881904Y-69778571D01*
X68881904Y-69873809D01*
X68405714Y-69969047D01*
X69691428Y-70254761D02*
X69596190Y-70302380D01*
X69405714Y-70302380D01*
X69310476Y-70254761D01*
X69262857Y-70159523D01*
X69262857Y-69778571D01*
X69310476Y-69683333D01*
X69405714Y-69635714D01*
X69596190Y-69635714D01*
X69691428Y-69683333D01*
X69739047Y-69778571D01*
X69739047Y-69873809D01*
X69262857Y-69969047D01*
X70167619Y-69635714D02*
X70167619Y-70302380D01*
X70167619Y-69730952D02*
X70215238Y-69683333D01*
X70310476Y-69635714D01*
X70453333Y-69635714D01*
X70548571Y-69683333D01*
X70596190Y-69778571D01*
X70596190Y-70302380D01*
X71024761Y-70254761D02*
X71120000Y-70302380D01*
X71310476Y-70302380D01*
X71405714Y-70254761D01*
X71453333Y-70159523D01*
X71453333Y-70111904D01*
X71405714Y-70016666D01*
X71310476Y-69969047D01*
X71167619Y-69969047D01*
X71072380Y-69921428D01*
X71024761Y-69826190D01*
X71024761Y-69778571D01*
X71072380Y-69683333D01*
X71167619Y-69635714D01*
X71310476Y-69635714D01*
X71405714Y-69683333D01*
X71786666Y-69635714D02*
X72024761Y-70302380D01*
X72262857Y-69635714D02*
X72024761Y-70302380D01*
X71929523Y-70540476D01*
X71881904Y-70588095D01*
X71786666Y-70635714D01*
X73072380Y-69635714D02*
X73072380Y-70302380D01*
X72834285Y-69254761D02*
X72596190Y-69969047D01*
X73215238Y-69969047D01*
X73596190Y-70207142D02*
X73643809Y-70254761D01*
X73596190Y-70302380D01*
X73548571Y-70254761D01*
X73596190Y-70207142D01*
X73596190Y-70302380D01*
X74262857Y-69302380D02*
X74358095Y-69302380D01*
X74453333Y-69350000D01*
X74500952Y-69397619D01*
X74548571Y-69492857D01*
X74596190Y-69683333D01*
X74596190Y-69921428D01*
X74548571Y-70111904D01*
X74500952Y-70207142D01*
X74453333Y-70254761D01*
X74358095Y-70302380D01*
X74262857Y-70302380D01*
X74167619Y-70254761D01*
X74120000Y-70207142D01*
X74072380Y-70111904D01*
X74024761Y-69921428D01*
X74024761Y-69683333D01*
X74072380Y-69492857D01*
X74120000Y-69397619D01*
X74167619Y-69350000D01*
X74262857Y-69302380D01*
X145010714Y-159408761D02*
X145153571Y-159456380D01*
X145391666Y-159456380D01*
X145486904Y-159408761D01*
X145534523Y-159361142D01*
X145582142Y-159265904D01*
X145582142Y-159170666D01*
X145534523Y-159075428D01*
X145486904Y-159027809D01*
X145391666Y-158980190D01*
X145201190Y-158932571D01*
X145105952Y-158884952D01*
X145058333Y-158837333D01*
X145010714Y-158742095D01*
X145010714Y-158646857D01*
X145058333Y-158551619D01*
X145105952Y-158504000D01*
X145201190Y-158456380D01*
X145439285Y-158456380D01*
X145582142Y-158504000D01*
X145915476Y-158456380D02*
X146153571Y-159456380D01*
X146344047Y-158742095D01*
X146534523Y-159456380D01*
X146772619Y-158456380D01*
X146915476Y-159551619D02*
X147677380Y-159551619D01*
X147915476Y-159456380D02*
X147915476Y-158456380D01*
X148153571Y-158456380D01*
X148296428Y-158504000D01*
X148391666Y-158599238D01*
X148439285Y-158694476D01*
X148486904Y-158884952D01*
X148486904Y-159027809D01*
X148439285Y-159218285D01*
X148391666Y-159313523D01*
X148296428Y-159408761D01*
X148153571Y-159456380D01*
X147915476Y-159456380D01*
X148915476Y-159456380D02*
X148915476Y-158456380D01*
X149391666Y-159456380D02*
X149391666Y-158456380D01*
X149772619Y-158456380D01*
X149867857Y-158504000D01*
X149915476Y-158551619D01*
X149963095Y-158646857D01*
X149963095Y-158789714D01*
X149915476Y-158884952D01*
X149867857Y-158932571D01*
X149772619Y-158980190D01*
X149391666Y-158980190D01*
X150153571Y-159551619D02*
X150915476Y-159551619D01*
X151058333Y-159456380D02*
X151582142Y-158789714D01*
X151058333Y-158789714D02*
X151582142Y-159456380D01*
X152153571Y-158456380D02*
X152248809Y-158456380D01*
X152344047Y-158504000D01*
X152391666Y-158551619D01*
X152439285Y-158646857D01*
X152486904Y-158837333D01*
X152486904Y-159075428D01*
X152439285Y-159265904D01*
X152391666Y-159361142D01*
X152344047Y-159408761D01*
X152248809Y-159456380D01*
X152153571Y-159456380D01*
X152058333Y-159408761D01*
X152010714Y-159361142D01*
X151963095Y-159265904D01*
X151915476Y-159075428D01*
X151915476Y-158837333D01*
X151963095Y-158646857D01*
X152010714Y-158551619D01*
X152058333Y-158504000D01*
X152153571Y-158456380D01*
X153439285Y-159456380D02*
X152867857Y-159456380D01*
X153153571Y-159456380D02*
X153153571Y-158456380D01*
X153058333Y-158599238D01*
X152963095Y-158694476D01*
X152867857Y-158742095D01*
X147415476Y-143660761D02*
X147558333Y-143708380D01*
X147796428Y-143708380D01*
X147891666Y-143660761D01*
X147939285Y-143613142D01*
X147986904Y-143517904D01*
X147986904Y-143422666D01*
X147939285Y-143327428D01*
X147891666Y-143279809D01*
X147796428Y-143232190D01*
X147605952Y-143184571D01*
X147510714Y-143136952D01*
X147463095Y-143089333D01*
X147415476Y-142994095D01*
X147415476Y-142898857D01*
X147463095Y-142803619D01*
X147510714Y-142756000D01*
X147605952Y-142708380D01*
X147844047Y-142708380D01*
X147986904Y-142756000D01*
X148320238Y-142708380D02*
X148558333Y-143708380D01*
X148748809Y-142994095D01*
X148939285Y-143708380D01*
X149177380Y-142708380D01*
X149510714Y-142803619D02*
X149558333Y-142756000D01*
X149653571Y-142708380D01*
X149891666Y-142708380D01*
X149986904Y-142756000D01*
X150034523Y-142803619D01*
X150082142Y-142898857D01*
X150082142Y-142994095D01*
X150034523Y-143136952D01*
X149463095Y-143708380D01*
X150082142Y-143708380D01*
X150701190Y-142708380D02*
X150796428Y-142708380D01*
X150891666Y-142756000D01*
X150939285Y-142803619D01*
X150986904Y-142898857D01*
X151034523Y-143089333D01*
X151034523Y-143327428D01*
X150986904Y-143517904D01*
X150939285Y-143613142D01*
X150891666Y-143660761D01*
X150796428Y-143708380D01*
X150701190Y-143708380D01*
X150605952Y-143660761D01*
X150558333Y-143613142D01*
X150510714Y-143517904D01*
X150463095Y-143327428D01*
X150463095Y-143089333D01*
X150510714Y-142898857D01*
X150558333Y-142803619D01*
X150605952Y-142756000D01*
X150701190Y-142708380D01*
X145010714Y-139088761D02*
X145153571Y-139136380D01*
X145391666Y-139136380D01*
X145486904Y-139088761D01*
X145534523Y-139041142D01*
X145582142Y-138945904D01*
X145582142Y-138850666D01*
X145534523Y-138755428D01*
X145486904Y-138707809D01*
X145391666Y-138660190D01*
X145201190Y-138612571D01*
X145105952Y-138564952D01*
X145058333Y-138517333D01*
X145010714Y-138422095D01*
X145010714Y-138326857D01*
X145058333Y-138231619D01*
X145105952Y-138184000D01*
X145201190Y-138136380D01*
X145439285Y-138136380D01*
X145582142Y-138184000D01*
X145915476Y-138136380D02*
X146153571Y-139136380D01*
X146344047Y-138422095D01*
X146534523Y-139136380D01*
X146772619Y-138136380D01*
X146915476Y-139231619D02*
X147677380Y-139231619D01*
X147915476Y-139136380D02*
X147915476Y-138136380D01*
X148153571Y-138136380D01*
X148296428Y-138184000D01*
X148391666Y-138279238D01*
X148439285Y-138374476D01*
X148486904Y-138564952D01*
X148486904Y-138707809D01*
X148439285Y-138898285D01*
X148391666Y-138993523D01*
X148296428Y-139088761D01*
X148153571Y-139136380D01*
X147915476Y-139136380D01*
X148915476Y-139136380D02*
X148915476Y-138136380D01*
X149391666Y-139136380D02*
X149391666Y-138136380D01*
X149772619Y-138136380D01*
X149867857Y-138184000D01*
X149915476Y-138231619D01*
X149963095Y-138326857D01*
X149963095Y-138469714D01*
X149915476Y-138564952D01*
X149867857Y-138612571D01*
X149772619Y-138660190D01*
X149391666Y-138660190D01*
X150153571Y-139231619D02*
X150915476Y-139231619D01*
X151058333Y-139136380D02*
X151582142Y-138469714D01*
X151058333Y-138469714D02*
X151582142Y-139136380D01*
X152153571Y-138136380D02*
X152248809Y-138136380D01*
X152344047Y-138184000D01*
X152391666Y-138231619D01*
X152439285Y-138326857D01*
X152486904Y-138517333D01*
X152486904Y-138755428D01*
X152439285Y-138945904D01*
X152391666Y-139041142D01*
X152344047Y-139088761D01*
X152248809Y-139136380D01*
X152153571Y-139136380D01*
X152058333Y-139088761D01*
X152010714Y-139041142D01*
X151963095Y-138945904D01*
X151915476Y-138755428D01*
X151915476Y-138517333D01*
X151963095Y-138326857D01*
X152010714Y-138231619D01*
X152058333Y-138184000D01*
X152153571Y-138136380D01*
X153439285Y-139136380D02*
X152867857Y-139136380D01*
X153153571Y-139136380D02*
X153153571Y-138136380D01*
X153058333Y-138279238D01*
X152963095Y-138374476D01*
X152867857Y-138422095D01*
X147415476Y-123340761D02*
X147558333Y-123388380D01*
X147796428Y-123388380D01*
X147891666Y-123340761D01*
X147939285Y-123293142D01*
X147986904Y-123197904D01*
X147986904Y-123102666D01*
X147939285Y-123007428D01*
X147891666Y-122959809D01*
X147796428Y-122912190D01*
X147605952Y-122864571D01*
X147510714Y-122816952D01*
X147463095Y-122769333D01*
X147415476Y-122674095D01*
X147415476Y-122578857D01*
X147463095Y-122483619D01*
X147510714Y-122436000D01*
X147605952Y-122388380D01*
X147844047Y-122388380D01*
X147986904Y-122436000D01*
X148320238Y-122388380D02*
X148558333Y-123388380D01*
X148748809Y-122674095D01*
X148939285Y-123388380D01*
X149177380Y-122388380D01*
X150082142Y-123388380D02*
X149510714Y-123388380D01*
X149796428Y-123388380D02*
X149796428Y-122388380D01*
X149701190Y-122531238D01*
X149605952Y-122626476D01*
X149510714Y-122674095D01*
X150558333Y-123388380D02*
X150748809Y-123388380D01*
X150844047Y-123340761D01*
X150891666Y-123293142D01*
X150986904Y-123150285D01*
X151034523Y-122959809D01*
X151034523Y-122578857D01*
X150986904Y-122483619D01*
X150939285Y-122436000D01*
X150844047Y-122388380D01*
X150653571Y-122388380D01*
X150558333Y-122436000D01*
X150510714Y-122483619D01*
X150463095Y-122578857D01*
X150463095Y-122816952D01*
X150510714Y-122912190D01*
X150558333Y-122959809D01*
X150653571Y-123007428D01*
X150844047Y-123007428D01*
X150939285Y-122959809D01*
X150986904Y-122912190D01*
X151034523Y-122816952D01*
X145010714Y-118768761D02*
X145153571Y-118816380D01*
X145391666Y-118816380D01*
X145486904Y-118768761D01*
X145534523Y-118721142D01*
X145582142Y-118625904D01*
X145582142Y-118530666D01*
X145534523Y-118435428D01*
X145486904Y-118387809D01*
X145391666Y-118340190D01*
X145201190Y-118292571D01*
X145105952Y-118244952D01*
X145058333Y-118197333D01*
X145010714Y-118102095D01*
X145010714Y-118006857D01*
X145058333Y-117911619D01*
X145105952Y-117864000D01*
X145201190Y-117816380D01*
X145439285Y-117816380D01*
X145582142Y-117864000D01*
X145915476Y-117816380D02*
X146153571Y-118816380D01*
X146344047Y-118102095D01*
X146534523Y-118816380D01*
X146772619Y-117816380D01*
X146915476Y-118911619D02*
X147677380Y-118911619D01*
X147915476Y-118816380D02*
X147915476Y-117816380D01*
X148153571Y-117816380D01*
X148296428Y-117864000D01*
X148391666Y-117959238D01*
X148439285Y-118054476D01*
X148486904Y-118244952D01*
X148486904Y-118387809D01*
X148439285Y-118578285D01*
X148391666Y-118673523D01*
X148296428Y-118768761D01*
X148153571Y-118816380D01*
X147915476Y-118816380D01*
X148915476Y-118816380D02*
X148915476Y-117816380D01*
X149391666Y-118816380D02*
X149391666Y-117816380D01*
X149772619Y-117816380D01*
X149867857Y-117864000D01*
X149915476Y-117911619D01*
X149963095Y-118006857D01*
X149963095Y-118149714D01*
X149915476Y-118244952D01*
X149867857Y-118292571D01*
X149772619Y-118340190D01*
X149391666Y-118340190D01*
X150153571Y-118911619D02*
X150915476Y-118911619D01*
X151058333Y-118816380D02*
X151582142Y-118149714D01*
X151058333Y-118149714D02*
X151582142Y-118816380D01*
X152153571Y-117816380D02*
X152248809Y-117816380D01*
X152344047Y-117864000D01*
X152391666Y-117911619D01*
X152439285Y-118006857D01*
X152486904Y-118197333D01*
X152486904Y-118435428D01*
X152439285Y-118625904D01*
X152391666Y-118721142D01*
X152344047Y-118768761D01*
X152248809Y-118816380D01*
X152153571Y-118816380D01*
X152058333Y-118768761D01*
X152010714Y-118721142D01*
X151963095Y-118625904D01*
X151915476Y-118435428D01*
X151915476Y-118197333D01*
X151963095Y-118006857D01*
X152010714Y-117911619D01*
X152058333Y-117864000D01*
X152153571Y-117816380D01*
X153439285Y-118816380D02*
X152867857Y-118816380D01*
X153153571Y-118816380D02*
X153153571Y-117816380D01*
X153058333Y-117959238D01*
X152963095Y-118054476D01*
X152867857Y-118102095D01*
X147415476Y-103020761D02*
X147558333Y-103068380D01*
X147796428Y-103068380D01*
X147891666Y-103020761D01*
X147939285Y-102973142D01*
X147986904Y-102877904D01*
X147986904Y-102782666D01*
X147939285Y-102687428D01*
X147891666Y-102639809D01*
X147796428Y-102592190D01*
X147605952Y-102544571D01*
X147510714Y-102496952D01*
X147463095Y-102449333D01*
X147415476Y-102354095D01*
X147415476Y-102258857D01*
X147463095Y-102163619D01*
X147510714Y-102116000D01*
X147605952Y-102068380D01*
X147844047Y-102068380D01*
X147986904Y-102116000D01*
X148320238Y-102068380D02*
X148558333Y-103068380D01*
X148748809Y-102354095D01*
X148939285Y-103068380D01*
X149177380Y-102068380D01*
X150082142Y-103068380D02*
X149510714Y-103068380D01*
X149796428Y-103068380D02*
X149796428Y-102068380D01*
X149701190Y-102211238D01*
X149605952Y-102306476D01*
X149510714Y-102354095D01*
X150653571Y-102496952D02*
X150558333Y-102449333D01*
X150510714Y-102401714D01*
X150463095Y-102306476D01*
X150463095Y-102258857D01*
X150510714Y-102163619D01*
X150558333Y-102116000D01*
X150653571Y-102068380D01*
X150844047Y-102068380D01*
X150939285Y-102116000D01*
X150986904Y-102163619D01*
X151034523Y-102258857D01*
X151034523Y-102306476D01*
X150986904Y-102401714D01*
X150939285Y-102449333D01*
X150844047Y-102496952D01*
X150653571Y-102496952D01*
X150558333Y-102544571D01*
X150510714Y-102592190D01*
X150463095Y-102687428D01*
X150463095Y-102877904D01*
X150510714Y-102973142D01*
X150558333Y-103020761D01*
X150653571Y-103068380D01*
X150844047Y-103068380D01*
X150939285Y-103020761D01*
X150986904Y-102973142D01*
X151034523Y-102877904D01*
X151034523Y-102687428D01*
X150986904Y-102592190D01*
X150939285Y-102544571D01*
X150844047Y-102496952D01*
X145010714Y-98448761D02*
X145153571Y-98496380D01*
X145391666Y-98496380D01*
X145486904Y-98448761D01*
X145534523Y-98401142D01*
X145582142Y-98305904D01*
X145582142Y-98210666D01*
X145534523Y-98115428D01*
X145486904Y-98067809D01*
X145391666Y-98020190D01*
X145201190Y-97972571D01*
X145105952Y-97924952D01*
X145058333Y-97877333D01*
X145010714Y-97782095D01*
X145010714Y-97686857D01*
X145058333Y-97591619D01*
X145105952Y-97544000D01*
X145201190Y-97496380D01*
X145439285Y-97496380D01*
X145582142Y-97544000D01*
X145915476Y-97496380D02*
X146153571Y-98496380D01*
X146344047Y-97782095D01*
X146534523Y-98496380D01*
X146772619Y-97496380D01*
X146915476Y-98591619D02*
X147677380Y-98591619D01*
X147915476Y-98496380D02*
X147915476Y-97496380D01*
X148153571Y-97496380D01*
X148296428Y-97544000D01*
X148391666Y-97639238D01*
X148439285Y-97734476D01*
X148486904Y-97924952D01*
X148486904Y-98067809D01*
X148439285Y-98258285D01*
X148391666Y-98353523D01*
X148296428Y-98448761D01*
X148153571Y-98496380D01*
X147915476Y-98496380D01*
X148915476Y-98496380D02*
X148915476Y-97496380D01*
X149391666Y-98496380D02*
X149391666Y-97496380D01*
X149772619Y-97496380D01*
X149867857Y-97544000D01*
X149915476Y-97591619D01*
X149963095Y-97686857D01*
X149963095Y-97829714D01*
X149915476Y-97924952D01*
X149867857Y-97972571D01*
X149772619Y-98020190D01*
X149391666Y-98020190D01*
X150153571Y-98591619D02*
X150915476Y-98591619D01*
X151058333Y-98496380D02*
X151582142Y-97829714D01*
X151058333Y-97829714D02*
X151582142Y-98496380D01*
X152153571Y-97496380D02*
X152248809Y-97496380D01*
X152344047Y-97544000D01*
X152391666Y-97591619D01*
X152439285Y-97686857D01*
X152486904Y-97877333D01*
X152486904Y-98115428D01*
X152439285Y-98305904D01*
X152391666Y-98401142D01*
X152344047Y-98448761D01*
X152248809Y-98496380D01*
X152153571Y-98496380D01*
X152058333Y-98448761D01*
X152010714Y-98401142D01*
X151963095Y-98305904D01*
X151915476Y-98115428D01*
X151915476Y-97877333D01*
X151963095Y-97686857D01*
X152010714Y-97591619D01*
X152058333Y-97544000D01*
X152153571Y-97496380D01*
X153439285Y-98496380D02*
X152867857Y-98496380D01*
X153153571Y-98496380D02*
X153153571Y-97496380D01*
X153058333Y-97639238D01*
X152963095Y-97734476D01*
X152867857Y-97782095D01*
X147415476Y-82700761D02*
X147558333Y-82748380D01*
X147796428Y-82748380D01*
X147891666Y-82700761D01*
X147939285Y-82653142D01*
X147986904Y-82557904D01*
X147986904Y-82462666D01*
X147939285Y-82367428D01*
X147891666Y-82319809D01*
X147796428Y-82272190D01*
X147605952Y-82224571D01*
X147510714Y-82176952D01*
X147463095Y-82129333D01*
X147415476Y-82034095D01*
X147415476Y-81938857D01*
X147463095Y-81843619D01*
X147510714Y-81796000D01*
X147605952Y-81748380D01*
X147844047Y-81748380D01*
X147986904Y-81796000D01*
X148320238Y-81748380D02*
X148558333Y-82748380D01*
X148748809Y-82034095D01*
X148939285Y-82748380D01*
X149177380Y-81748380D01*
X150082142Y-82748380D02*
X149510714Y-82748380D01*
X149796428Y-82748380D02*
X149796428Y-81748380D01*
X149701190Y-81891238D01*
X149605952Y-81986476D01*
X149510714Y-82034095D01*
X150415476Y-81748380D02*
X151082142Y-81748380D01*
X150653571Y-82748380D01*
X124690714Y-159408761D02*
X124833571Y-159456380D01*
X125071666Y-159456380D01*
X125166904Y-159408761D01*
X125214523Y-159361142D01*
X125262142Y-159265904D01*
X125262142Y-159170666D01*
X125214523Y-159075428D01*
X125166904Y-159027809D01*
X125071666Y-158980190D01*
X124881190Y-158932571D01*
X124785952Y-158884952D01*
X124738333Y-158837333D01*
X124690714Y-158742095D01*
X124690714Y-158646857D01*
X124738333Y-158551619D01*
X124785952Y-158504000D01*
X124881190Y-158456380D01*
X125119285Y-158456380D01*
X125262142Y-158504000D01*
X125595476Y-158456380D02*
X125833571Y-159456380D01*
X126024047Y-158742095D01*
X126214523Y-159456380D01*
X126452619Y-158456380D01*
X126595476Y-159551619D02*
X127357380Y-159551619D01*
X127595476Y-159456380D02*
X127595476Y-158456380D01*
X127833571Y-158456380D01*
X127976428Y-158504000D01*
X128071666Y-158599238D01*
X128119285Y-158694476D01*
X128166904Y-158884952D01*
X128166904Y-159027809D01*
X128119285Y-159218285D01*
X128071666Y-159313523D01*
X127976428Y-159408761D01*
X127833571Y-159456380D01*
X127595476Y-159456380D01*
X128595476Y-159456380D02*
X128595476Y-158456380D01*
X129071666Y-159456380D02*
X129071666Y-158456380D01*
X129452619Y-158456380D01*
X129547857Y-158504000D01*
X129595476Y-158551619D01*
X129643095Y-158646857D01*
X129643095Y-158789714D01*
X129595476Y-158884952D01*
X129547857Y-158932571D01*
X129452619Y-158980190D01*
X129071666Y-158980190D01*
X129833571Y-159551619D02*
X130595476Y-159551619D01*
X130738333Y-159456380D02*
X131262142Y-158789714D01*
X130738333Y-158789714D02*
X131262142Y-159456380D01*
X131833571Y-158456380D02*
X131928809Y-158456380D01*
X132024047Y-158504000D01*
X132071666Y-158551619D01*
X132119285Y-158646857D01*
X132166904Y-158837333D01*
X132166904Y-159075428D01*
X132119285Y-159265904D01*
X132071666Y-159361142D01*
X132024047Y-159408761D01*
X131928809Y-159456380D01*
X131833571Y-159456380D01*
X131738333Y-159408761D01*
X131690714Y-159361142D01*
X131643095Y-159265904D01*
X131595476Y-159075428D01*
X131595476Y-158837333D01*
X131643095Y-158646857D01*
X131690714Y-158551619D01*
X131738333Y-158504000D01*
X131833571Y-158456380D01*
X133119285Y-159456380D02*
X132547857Y-159456380D01*
X132833571Y-159456380D02*
X132833571Y-158456380D01*
X132738333Y-158599238D01*
X132643095Y-158694476D01*
X132547857Y-158742095D01*
X127095476Y-143660761D02*
X127238333Y-143708380D01*
X127476428Y-143708380D01*
X127571666Y-143660761D01*
X127619285Y-143613142D01*
X127666904Y-143517904D01*
X127666904Y-143422666D01*
X127619285Y-143327428D01*
X127571666Y-143279809D01*
X127476428Y-143232190D01*
X127285952Y-143184571D01*
X127190714Y-143136952D01*
X127143095Y-143089333D01*
X127095476Y-142994095D01*
X127095476Y-142898857D01*
X127143095Y-142803619D01*
X127190714Y-142756000D01*
X127285952Y-142708380D01*
X127524047Y-142708380D01*
X127666904Y-142756000D01*
X128000238Y-142708380D02*
X128238333Y-143708380D01*
X128428809Y-142994095D01*
X128619285Y-143708380D01*
X128857380Y-142708380D01*
X129762142Y-143708380D02*
X129190714Y-143708380D01*
X129476428Y-143708380D02*
X129476428Y-142708380D01*
X129381190Y-142851238D01*
X129285952Y-142946476D01*
X129190714Y-142994095D01*
X130619285Y-142708380D02*
X130428809Y-142708380D01*
X130333571Y-142756000D01*
X130285952Y-142803619D01*
X130190714Y-142946476D01*
X130143095Y-143136952D01*
X130143095Y-143517904D01*
X130190714Y-143613142D01*
X130238333Y-143660761D01*
X130333571Y-143708380D01*
X130524047Y-143708380D01*
X130619285Y-143660761D01*
X130666904Y-143613142D01*
X130714523Y-143517904D01*
X130714523Y-143279809D01*
X130666904Y-143184571D01*
X130619285Y-143136952D01*
X130524047Y-143089333D01*
X130333571Y-143089333D01*
X130238333Y-143136952D01*
X130190714Y-143184571D01*
X130143095Y-143279809D01*
X124055714Y-139088761D02*
X124198571Y-139136380D01*
X124436666Y-139136380D01*
X124531904Y-139088761D01*
X124579523Y-139041142D01*
X124627142Y-138945904D01*
X124627142Y-138850666D01*
X124579523Y-138755428D01*
X124531904Y-138707809D01*
X124436666Y-138660190D01*
X124246190Y-138612571D01*
X124150952Y-138564952D01*
X124103333Y-138517333D01*
X124055714Y-138422095D01*
X124055714Y-138326857D01*
X124103333Y-138231619D01*
X124150952Y-138184000D01*
X124246190Y-138136380D01*
X124484285Y-138136380D01*
X124627142Y-138184000D01*
X124960476Y-138136380D02*
X125198571Y-139136380D01*
X125389047Y-138422095D01*
X125579523Y-139136380D01*
X125817619Y-138136380D01*
X125960476Y-139231619D02*
X126722380Y-139231619D01*
X126960476Y-139136380D02*
X126960476Y-138136380D01*
X127198571Y-138136380D01*
X127341428Y-138184000D01*
X127436666Y-138279238D01*
X127484285Y-138374476D01*
X127531904Y-138564952D01*
X127531904Y-138707809D01*
X127484285Y-138898285D01*
X127436666Y-138993523D01*
X127341428Y-139088761D01*
X127198571Y-139136380D01*
X126960476Y-139136380D01*
X127960476Y-139136380D02*
X127960476Y-138136380D01*
X128436666Y-139136380D02*
X128436666Y-138136380D01*
X128817619Y-138136380D01*
X128912857Y-138184000D01*
X128960476Y-138231619D01*
X129008095Y-138326857D01*
X129008095Y-138469714D01*
X128960476Y-138564952D01*
X128912857Y-138612571D01*
X128817619Y-138660190D01*
X128436666Y-138660190D01*
X129198571Y-139231619D02*
X129960476Y-139231619D01*
X130103333Y-139136380D02*
X130627142Y-138469714D01*
X130103333Y-138469714D02*
X130627142Y-139136380D01*
X131198571Y-138136380D02*
X131293809Y-138136380D01*
X131389047Y-138184000D01*
X131436666Y-138231619D01*
X131484285Y-138326857D01*
X131531904Y-138517333D01*
X131531904Y-138755428D01*
X131484285Y-138945904D01*
X131436666Y-139041142D01*
X131389047Y-139088761D01*
X131293809Y-139136380D01*
X131198571Y-139136380D01*
X131103333Y-139088761D01*
X131055714Y-139041142D01*
X131008095Y-138945904D01*
X130960476Y-138755428D01*
X130960476Y-138517333D01*
X131008095Y-138326857D01*
X131055714Y-138231619D01*
X131103333Y-138184000D01*
X131198571Y-138136380D01*
X132484285Y-139136380D02*
X131912857Y-139136380D01*
X132198571Y-139136380D02*
X132198571Y-138136380D01*
X132103333Y-138279238D01*
X132008095Y-138374476D01*
X131912857Y-138422095D01*
X126460476Y-123340761D02*
X126603333Y-123388380D01*
X126841428Y-123388380D01*
X126936666Y-123340761D01*
X126984285Y-123293142D01*
X127031904Y-123197904D01*
X127031904Y-123102666D01*
X126984285Y-123007428D01*
X126936666Y-122959809D01*
X126841428Y-122912190D01*
X126650952Y-122864571D01*
X126555714Y-122816952D01*
X126508095Y-122769333D01*
X126460476Y-122674095D01*
X126460476Y-122578857D01*
X126508095Y-122483619D01*
X126555714Y-122436000D01*
X126650952Y-122388380D01*
X126889047Y-122388380D01*
X127031904Y-122436000D01*
X127365238Y-122388380D02*
X127603333Y-123388380D01*
X127793809Y-122674095D01*
X127984285Y-123388380D01*
X128222380Y-122388380D01*
X129127142Y-123388380D02*
X128555714Y-123388380D01*
X128841428Y-123388380D02*
X128841428Y-122388380D01*
X128746190Y-122531238D01*
X128650952Y-122626476D01*
X128555714Y-122674095D01*
X130031904Y-122388380D02*
X129555714Y-122388380D01*
X129508095Y-122864571D01*
X129555714Y-122816952D01*
X129650952Y-122769333D01*
X129889047Y-122769333D01*
X129984285Y-122816952D01*
X130031904Y-122864571D01*
X130079523Y-122959809D01*
X130079523Y-123197904D01*
X130031904Y-123293142D01*
X129984285Y-123340761D01*
X129889047Y-123388380D01*
X129650952Y-123388380D01*
X129555714Y-123340761D01*
X129508095Y-123293142D01*
X123420714Y-118768761D02*
X123563571Y-118816380D01*
X123801666Y-118816380D01*
X123896904Y-118768761D01*
X123944523Y-118721142D01*
X123992142Y-118625904D01*
X123992142Y-118530666D01*
X123944523Y-118435428D01*
X123896904Y-118387809D01*
X123801666Y-118340190D01*
X123611190Y-118292571D01*
X123515952Y-118244952D01*
X123468333Y-118197333D01*
X123420714Y-118102095D01*
X123420714Y-118006857D01*
X123468333Y-117911619D01*
X123515952Y-117864000D01*
X123611190Y-117816380D01*
X123849285Y-117816380D01*
X123992142Y-117864000D01*
X124325476Y-117816380D02*
X124563571Y-118816380D01*
X124754047Y-118102095D01*
X124944523Y-118816380D01*
X125182619Y-117816380D01*
X125325476Y-118911619D02*
X126087380Y-118911619D01*
X126325476Y-118816380D02*
X126325476Y-117816380D01*
X126563571Y-117816380D01*
X126706428Y-117864000D01*
X126801666Y-117959238D01*
X126849285Y-118054476D01*
X126896904Y-118244952D01*
X126896904Y-118387809D01*
X126849285Y-118578285D01*
X126801666Y-118673523D01*
X126706428Y-118768761D01*
X126563571Y-118816380D01*
X126325476Y-118816380D01*
X127325476Y-118816380D02*
X127325476Y-117816380D01*
X127801666Y-118816380D02*
X127801666Y-117816380D01*
X128182619Y-117816380D01*
X128277857Y-117864000D01*
X128325476Y-117911619D01*
X128373095Y-118006857D01*
X128373095Y-118149714D01*
X128325476Y-118244952D01*
X128277857Y-118292571D01*
X128182619Y-118340190D01*
X127801666Y-118340190D01*
X128563571Y-118911619D02*
X129325476Y-118911619D01*
X129468333Y-118816380D02*
X129992142Y-118149714D01*
X129468333Y-118149714D02*
X129992142Y-118816380D01*
X130563571Y-117816380D02*
X130658809Y-117816380D01*
X130754047Y-117864000D01*
X130801666Y-117911619D01*
X130849285Y-118006857D01*
X130896904Y-118197333D01*
X130896904Y-118435428D01*
X130849285Y-118625904D01*
X130801666Y-118721142D01*
X130754047Y-118768761D01*
X130658809Y-118816380D01*
X130563571Y-118816380D01*
X130468333Y-118768761D01*
X130420714Y-118721142D01*
X130373095Y-118625904D01*
X130325476Y-118435428D01*
X130325476Y-118197333D01*
X130373095Y-118006857D01*
X130420714Y-117911619D01*
X130468333Y-117864000D01*
X130563571Y-117816380D01*
X131849285Y-118816380D02*
X131277857Y-118816380D01*
X131563571Y-118816380D02*
X131563571Y-117816380D01*
X131468333Y-117959238D01*
X131373095Y-118054476D01*
X131277857Y-118102095D01*
X125825476Y-103020761D02*
X125968333Y-103068380D01*
X126206428Y-103068380D01*
X126301666Y-103020761D01*
X126349285Y-102973142D01*
X126396904Y-102877904D01*
X126396904Y-102782666D01*
X126349285Y-102687428D01*
X126301666Y-102639809D01*
X126206428Y-102592190D01*
X126015952Y-102544571D01*
X125920714Y-102496952D01*
X125873095Y-102449333D01*
X125825476Y-102354095D01*
X125825476Y-102258857D01*
X125873095Y-102163619D01*
X125920714Y-102116000D01*
X126015952Y-102068380D01*
X126254047Y-102068380D01*
X126396904Y-102116000D01*
X126730238Y-102068380D02*
X126968333Y-103068380D01*
X127158809Y-102354095D01*
X127349285Y-103068380D01*
X127587380Y-102068380D01*
X128492142Y-103068380D02*
X127920714Y-103068380D01*
X128206428Y-103068380D02*
X128206428Y-102068380D01*
X128111190Y-102211238D01*
X128015952Y-102306476D01*
X127920714Y-102354095D01*
X129349285Y-102401714D02*
X129349285Y-103068380D01*
X129111190Y-102020761D02*
X128873095Y-102735047D01*
X129492142Y-102735047D01*
X122785714Y-98448761D02*
X122928571Y-98496380D01*
X123166666Y-98496380D01*
X123261904Y-98448761D01*
X123309523Y-98401142D01*
X123357142Y-98305904D01*
X123357142Y-98210666D01*
X123309523Y-98115428D01*
X123261904Y-98067809D01*
X123166666Y-98020190D01*
X122976190Y-97972571D01*
X122880952Y-97924952D01*
X122833333Y-97877333D01*
X122785714Y-97782095D01*
X122785714Y-97686857D01*
X122833333Y-97591619D01*
X122880952Y-97544000D01*
X122976190Y-97496380D01*
X123214285Y-97496380D01*
X123357142Y-97544000D01*
X123690476Y-97496380D02*
X123928571Y-98496380D01*
X124119047Y-97782095D01*
X124309523Y-98496380D01*
X124547619Y-97496380D01*
X124690476Y-98591619D02*
X125452380Y-98591619D01*
X125690476Y-98496380D02*
X125690476Y-97496380D01*
X125928571Y-97496380D01*
X126071428Y-97544000D01*
X126166666Y-97639238D01*
X126214285Y-97734476D01*
X126261904Y-97924952D01*
X126261904Y-98067809D01*
X126214285Y-98258285D01*
X126166666Y-98353523D01*
X126071428Y-98448761D01*
X125928571Y-98496380D01*
X125690476Y-98496380D01*
X126690476Y-98496380D02*
X126690476Y-97496380D01*
X127166666Y-98496380D02*
X127166666Y-97496380D01*
X127547619Y-97496380D01*
X127642857Y-97544000D01*
X127690476Y-97591619D01*
X127738095Y-97686857D01*
X127738095Y-97829714D01*
X127690476Y-97924952D01*
X127642857Y-97972571D01*
X127547619Y-98020190D01*
X127166666Y-98020190D01*
X127928571Y-98591619D02*
X128690476Y-98591619D01*
X128833333Y-98496380D02*
X129357142Y-97829714D01*
X128833333Y-97829714D02*
X129357142Y-98496380D01*
X129928571Y-97496380D02*
X130023809Y-97496380D01*
X130119047Y-97544000D01*
X130166666Y-97591619D01*
X130214285Y-97686857D01*
X130261904Y-97877333D01*
X130261904Y-98115428D01*
X130214285Y-98305904D01*
X130166666Y-98401142D01*
X130119047Y-98448761D01*
X130023809Y-98496380D01*
X129928571Y-98496380D01*
X129833333Y-98448761D01*
X129785714Y-98401142D01*
X129738095Y-98305904D01*
X129690476Y-98115428D01*
X129690476Y-97877333D01*
X129738095Y-97686857D01*
X129785714Y-97591619D01*
X129833333Y-97544000D01*
X129928571Y-97496380D01*
X131214285Y-98496380D02*
X130642857Y-98496380D01*
X130928571Y-98496380D02*
X130928571Y-97496380D01*
X130833333Y-97639238D01*
X130738095Y-97734476D01*
X130642857Y-97782095D01*
X125190476Y-82700761D02*
X125333333Y-82748380D01*
X125571428Y-82748380D01*
X125666666Y-82700761D01*
X125714285Y-82653142D01*
X125761904Y-82557904D01*
X125761904Y-82462666D01*
X125714285Y-82367428D01*
X125666666Y-82319809D01*
X125571428Y-82272190D01*
X125380952Y-82224571D01*
X125285714Y-82176952D01*
X125238095Y-82129333D01*
X125190476Y-82034095D01*
X125190476Y-81938857D01*
X125238095Y-81843619D01*
X125285714Y-81796000D01*
X125380952Y-81748380D01*
X125619047Y-81748380D01*
X125761904Y-81796000D01*
X126095238Y-81748380D02*
X126333333Y-82748380D01*
X126523809Y-82034095D01*
X126714285Y-82748380D01*
X126952380Y-81748380D01*
X127857142Y-82748380D02*
X127285714Y-82748380D01*
X127571428Y-82748380D02*
X127571428Y-81748380D01*
X127476190Y-81891238D01*
X127380952Y-81986476D01*
X127285714Y-82034095D01*
X128190476Y-81748380D02*
X128809523Y-81748380D01*
X128476190Y-82129333D01*
X128619047Y-82129333D01*
X128714285Y-82176952D01*
X128761904Y-82224571D01*
X128809523Y-82319809D01*
X128809523Y-82557904D01*
X128761904Y-82653142D01*
X128714285Y-82700761D01*
X128619047Y-82748380D01*
X128333333Y-82748380D01*
X128238095Y-82700761D01*
X128190476Y-82653142D01*
X104370714Y-159408761D02*
X104513571Y-159456380D01*
X104751666Y-159456380D01*
X104846904Y-159408761D01*
X104894523Y-159361142D01*
X104942142Y-159265904D01*
X104942142Y-159170666D01*
X104894523Y-159075428D01*
X104846904Y-159027809D01*
X104751666Y-158980190D01*
X104561190Y-158932571D01*
X104465952Y-158884952D01*
X104418333Y-158837333D01*
X104370714Y-158742095D01*
X104370714Y-158646857D01*
X104418333Y-158551619D01*
X104465952Y-158504000D01*
X104561190Y-158456380D01*
X104799285Y-158456380D01*
X104942142Y-158504000D01*
X105275476Y-158456380D02*
X105513571Y-159456380D01*
X105704047Y-158742095D01*
X105894523Y-159456380D01*
X106132619Y-158456380D01*
X106275476Y-159551619D02*
X107037380Y-159551619D01*
X107275476Y-159456380D02*
X107275476Y-158456380D01*
X107513571Y-158456380D01*
X107656428Y-158504000D01*
X107751666Y-158599238D01*
X107799285Y-158694476D01*
X107846904Y-158884952D01*
X107846904Y-159027809D01*
X107799285Y-159218285D01*
X107751666Y-159313523D01*
X107656428Y-159408761D01*
X107513571Y-159456380D01*
X107275476Y-159456380D01*
X108275476Y-159456380D02*
X108275476Y-158456380D01*
X108751666Y-159456380D02*
X108751666Y-158456380D01*
X109132619Y-158456380D01*
X109227857Y-158504000D01*
X109275476Y-158551619D01*
X109323095Y-158646857D01*
X109323095Y-158789714D01*
X109275476Y-158884952D01*
X109227857Y-158932571D01*
X109132619Y-158980190D01*
X108751666Y-158980190D01*
X109513571Y-159551619D02*
X110275476Y-159551619D01*
X110418333Y-159456380D02*
X110942142Y-158789714D01*
X110418333Y-158789714D02*
X110942142Y-159456380D01*
X111513571Y-158456380D02*
X111608809Y-158456380D01*
X111704047Y-158504000D01*
X111751666Y-158551619D01*
X111799285Y-158646857D01*
X111846904Y-158837333D01*
X111846904Y-159075428D01*
X111799285Y-159265904D01*
X111751666Y-159361142D01*
X111704047Y-159408761D01*
X111608809Y-159456380D01*
X111513571Y-159456380D01*
X111418333Y-159408761D01*
X111370714Y-159361142D01*
X111323095Y-159265904D01*
X111275476Y-159075428D01*
X111275476Y-158837333D01*
X111323095Y-158646857D01*
X111370714Y-158551619D01*
X111418333Y-158504000D01*
X111513571Y-158456380D01*
X112799285Y-159456380D02*
X112227857Y-159456380D01*
X112513571Y-159456380D02*
X112513571Y-158456380D01*
X112418333Y-158599238D01*
X112323095Y-158694476D01*
X112227857Y-158742095D01*
X106775476Y-143660761D02*
X106918333Y-143708380D01*
X107156428Y-143708380D01*
X107251666Y-143660761D01*
X107299285Y-143613142D01*
X107346904Y-143517904D01*
X107346904Y-143422666D01*
X107299285Y-143327428D01*
X107251666Y-143279809D01*
X107156428Y-143232190D01*
X106965952Y-143184571D01*
X106870714Y-143136952D01*
X106823095Y-143089333D01*
X106775476Y-142994095D01*
X106775476Y-142898857D01*
X106823095Y-142803619D01*
X106870714Y-142756000D01*
X106965952Y-142708380D01*
X107204047Y-142708380D01*
X107346904Y-142756000D01*
X107680238Y-142708380D02*
X107918333Y-143708380D01*
X108108809Y-142994095D01*
X108299285Y-143708380D01*
X108537380Y-142708380D01*
X109442142Y-143708380D02*
X108870714Y-143708380D01*
X109156428Y-143708380D02*
X109156428Y-142708380D01*
X109061190Y-142851238D01*
X108965952Y-142946476D01*
X108870714Y-142994095D01*
X109823095Y-142803619D02*
X109870714Y-142756000D01*
X109965952Y-142708380D01*
X110204047Y-142708380D01*
X110299285Y-142756000D01*
X110346904Y-142803619D01*
X110394523Y-142898857D01*
X110394523Y-142994095D01*
X110346904Y-143136952D01*
X109775476Y-143708380D01*
X110394523Y-143708380D01*
X103735714Y-139088761D02*
X103878571Y-139136380D01*
X104116666Y-139136380D01*
X104211904Y-139088761D01*
X104259523Y-139041142D01*
X104307142Y-138945904D01*
X104307142Y-138850666D01*
X104259523Y-138755428D01*
X104211904Y-138707809D01*
X104116666Y-138660190D01*
X103926190Y-138612571D01*
X103830952Y-138564952D01*
X103783333Y-138517333D01*
X103735714Y-138422095D01*
X103735714Y-138326857D01*
X103783333Y-138231619D01*
X103830952Y-138184000D01*
X103926190Y-138136380D01*
X104164285Y-138136380D01*
X104307142Y-138184000D01*
X104640476Y-138136380D02*
X104878571Y-139136380D01*
X105069047Y-138422095D01*
X105259523Y-139136380D01*
X105497619Y-138136380D01*
X105640476Y-139231619D02*
X106402380Y-139231619D01*
X106640476Y-139136380D02*
X106640476Y-138136380D01*
X106878571Y-138136380D01*
X107021428Y-138184000D01*
X107116666Y-138279238D01*
X107164285Y-138374476D01*
X107211904Y-138564952D01*
X107211904Y-138707809D01*
X107164285Y-138898285D01*
X107116666Y-138993523D01*
X107021428Y-139088761D01*
X106878571Y-139136380D01*
X106640476Y-139136380D01*
X107640476Y-139136380D02*
X107640476Y-138136380D01*
X108116666Y-139136380D02*
X108116666Y-138136380D01*
X108497619Y-138136380D01*
X108592857Y-138184000D01*
X108640476Y-138231619D01*
X108688095Y-138326857D01*
X108688095Y-138469714D01*
X108640476Y-138564952D01*
X108592857Y-138612571D01*
X108497619Y-138660190D01*
X108116666Y-138660190D01*
X108878571Y-139231619D02*
X109640476Y-139231619D01*
X109783333Y-139136380D02*
X110307142Y-138469714D01*
X109783333Y-138469714D02*
X110307142Y-139136380D01*
X110878571Y-138136380D02*
X110973809Y-138136380D01*
X111069047Y-138184000D01*
X111116666Y-138231619D01*
X111164285Y-138326857D01*
X111211904Y-138517333D01*
X111211904Y-138755428D01*
X111164285Y-138945904D01*
X111116666Y-139041142D01*
X111069047Y-139088761D01*
X110973809Y-139136380D01*
X110878571Y-139136380D01*
X110783333Y-139088761D01*
X110735714Y-139041142D01*
X110688095Y-138945904D01*
X110640476Y-138755428D01*
X110640476Y-138517333D01*
X110688095Y-138326857D01*
X110735714Y-138231619D01*
X110783333Y-138184000D01*
X110878571Y-138136380D01*
X112164285Y-139136380D02*
X111592857Y-139136380D01*
X111878571Y-139136380D02*
X111878571Y-138136380D01*
X111783333Y-138279238D01*
X111688095Y-138374476D01*
X111592857Y-138422095D01*
X106140476Y-123340761D02*
X106283333Y-123388380D01*
X106521428Y-123388380D01*
X106616666Y-123340761D01*
X106664285Y-123293142D01*
X106711904Y-123197904D01*
X106711904Y-123102666D01*
X106664285Y-123007428D01*
X106616666Y-122959809D01*
X106521428Y-122912190D01*
X106330952Y-122864571D01*
X106235714Y-122816952D01*
X106188095Y-122769333D01*
X106140476Y-122674095D01*
X106140476Y-122578857D01*
X106188095Y-122483619D01*
X106235714Y-122436000D01*
X106330952Y-122388380D01*
X106569047Y-122388380D01*
X106711904Y-122436000D01*
X107045238Y-122388380D02*
X107283333Y-123388380D01*
X107473809Y-122674095D01*
X107664285Y-123388380D01*
X107902380Y-122388380D01*
X108807142Y-123388380D02*
X108235714Y-123388380D01*
X108521428Y-123388380D02*
X108521428Y-122388380D01*
X108426190Y-122531238D01*
X108330952Y-122626476D01*
X108235714Y-122674095D01*
X109759523Y-123388380D02*
X109188095Y-123388380D01*
X109473809Y-123388380D02*
X109473809Y-122388380D01*
X109378571Y-122531238D01*
X109283333Y-122626476D01*
X109188095Y-122674095D01*
X103100714Y-118768761D02*
X103243571Y-118816380D01*
X103481666Y-118816380D01*
X103576904Y-118768761D01*
X103624523Y-118721142D01*
X103672142Y-118625904D01*
X103672142Y-118530666D01*
X103624523Y-118435428D01*
X103576904Y-118387809D01*
X103481666Y-118340190D01*
X103291190Y-118292571D01*
X103195952Y-118244952D01*
X103148333Y-118197333D01*
X103100714Y-118102095D01*
X103100714Y-118006857D01*
X103148333Y-117911619D01*
X103195952Y-117864000D01*
X103291190Y-117816380D01*
X103529285Y-117816380D01*
X103672142Y-117864000D01*
X104005476Y-117816380D02*
X104243571Y-118816380D01*
X104434047Y-118102095D01*
X104624523Y-118816380D01*
X104862619Y-117816380D01*
X105005476Y-118911619D02*
X105767380Y-118911619D01*
X106005476Y-118816380D02*
X106005476Y-117816380D01*
X106243571Y-117816380D01*
X106386428Y-117864000D01*
X106481666Y-117959238D01*
X106529285Y-118054476D01*
X106576904Y-118244952D01*
X106576904Y-118387809D01*
X106529285Y-118578285D01*
X106481666Y-118673523D01*
X106386428Y-118768761D01*
X106243571Y-118816380D01*
X106005476Y-118816380D01*
X107005476Y-118816380D02*
X107005476Y-117816380D01*
X107481666Y-118816380D02*
X107481666Y-117816380D01*
X107862619Y-117816380D01*
X107957857Y-117864000D01*
X108005476Y-117911619D01*
X108053095Y-118006857D01*
X108053095Y-118149714D01*
X108005476Y-118244952D01*
X107957857Y-118292571D01*
X107862619Y-118340190D01*
X107481666Y-118340190D01*
X108243571Y-118911619D02*
X109005476Y-118911619D01*
X109148333Y-118816380D02*
X109672142Y-118149714D01*
X109148333Y-118149714D02*
X109672142Y-118816380D01*
X110243571Y-117816380D02*
X110338809Y-117816380D01*
X110434047Y-117864000D01*
X110481666Y-117911619D01*
X110529285Y-118006857D01*
X110576904Y-118197333D01*
X110576904Y-118435428D01*
X110529285Y-118625904D01*
X110481666Y-118721142D01*
X110434047Y-118768761D01*
X110338809Y-118816380D01*
X110243571Y-118816380D01*
X110148333Y-118768761D01*
X110100714Y-118721142D01*
X110053095Y-118625904D01*
X110005476Y-118435428D01*
X110005476Y-118197333D01*
X110053095Y-118006857D01*
X110100714Y-117911619D01*
X110148333Y-117864000D01*
X110243571Y-117816380D01*
X111529285Y-118816380D02*
X110957857Y-118816380D01*
X111243571Y-118816380D02*
X111243571Y-117816380D01*
X111148333Y-117959238D01*
X111053095Y-118054476D01*
X110957857Y-118102095D01*
X105505476Y-103020761D02*
X105648333Y-103068380D01*
X105886428Y-103068380D01*
X105981666Y-103020761D01*
X106029285Y-102973142D01*
X106076904Y-102877904D01*
X106076904Y-102782666D01*
X106029285Y-102687428D01*
X105981666Y-102639809D01*
X105886428Y-102592190D01*
X105695952Y-102544571D01*
X105600714Y-102496952D01*
X105553095Y-102449333D01*
X105505476Y-102354095D01*
X105505476Y-102258857D01*
X105553095Y-102163619D01*
X105600714Y-102116000D01*
X105695952Y-102068380D01*
X105934047Y-102068380D01*
X106076904Y-102116000D01*
X106410238Y-102068380D02*
X106648333Y-103068380D01*
X106838809Y-102354095D01*
X107029285Y-103068380D01*
X107267380Y-102068380D01*
X108172142Y-103068380D02*
X107600714Y-103068380D01*
X107886428Y-103068380D02*
X107886428Y-102068380D01*
X107791190Y-102211238D01*
X107695952Y-102306476D01*
X107600714Y-102354095D01*
X108791190Y-102068380D02*
X108886428Y-102068380D01*
X108981666Y-102116000D01*
X109029285Y-102163619D01*
X109076904Y-102258857D01*
X109124523Y-102449333D01*
X109124523Y-102687428D01*
X109076904Y-102877904D01*
X109029285Y-102973142D01*
X108981666Y-103020761D01*
X108886428Y-103068380D01*
X108791190Y-103068380D01*
X108695952Y-103020761D01*
X108648333Y-102973142D01*
X108600714Y-102877904D01*
X108553095Y-102687428D01*
X108553095Y-102449333D01*
X108600714Y-102258857D01*
X108648333Y-102163619D01*
X108695952Y-102116000D01*
X108791190Y-102068380D01*
X102465714Y-98448761D02*
X102608571Y-98496380D01*
X102846666Y-98496380D01*
X102941904Y-98448761D01*
X102989523Y-98401142D01*
X103037142Y-98305904D01*
X103037142Y-98210666D01*
X102989523Y-98115428D01*
X102941904Y-98067809D01*
X102846666Y-98020190D01*
X102656190Y-97972571D01*
X102560952Y-97924952D01*
X102513333Y-97877333D01*
X102465714Y-97782095D01*
X102465714Y-97686857D01*
X102513333Y-97591619D01*
X102560952Y-97544000D01*
X102656190Y-97496380D01*
X102894285Y-97496380D01*
X103037142Y-97544000D01*
X103370476Y-97496380D02*
X103608571Y-98496380D01*
X103799047Y-97782095D01*
X103989523Y-98496380D01*
X104227619Y-97496380D01*
X104370476Y-98591619D02*
X105132380Y-98591619D01*
X105370476Y-98496380D02*
X105370476Y-97496380D01*
X105608571Y-97496380D01*
X105751428Y-97544000D01*
X105846666Y-97639238D01*
X105894285Y-97734476D01*
X105941904Y-97924952D01*
X105941904Y-98067809D01*
X105894285Y-98258285D01*
X105846666Y-98353523D01*
X105751428Y-98448761D01*
X105608571Y-98496380D01*
X105370476Y-98496380D01*
X106370476Y-98496380D02*
X106370476Y-97496380D01*
X106846666Y-98496380D02*
X106846666Y-97496380D01*
X107227619Y-97496380D01*
X107322857Y-97544000D01*
X107370476Y-97591619D01*
X107418095Y-97686857D01*
X107418095Y-97829714D01*
X107370476Y-97924952D01*
X107322857Y-97972571D01*
X107227619Y-98020190D01*
X106846666Y-98020190D01*
X107608571Y-98591619D02*
X108370476Y-98591619D01*
X108513333Y-98496380D02*
X109037142Y-97829714D01*
X108513333Y-97829714D02*
X109037142Y-98496380D01*
X109608571Y-97496380D02*
X109703809Y-97496380D01*
X109799047Y-97544000D01*
X109846666Y-97591619D01*
X109894285Y-97686857D01*
X109941904Y-97877333D01*
X109941904Y-98115428D01*
X109894285Y-98305904D01*
X109846666Y-98401142D01*
X109799047Y-98448761D01*
X109703809Y-98496380D01*
X109608571Y-98496380D01*
X109513333Y-98448761D01*
X109465714Y-98401142D01*
X109418095Y-98305904D01*
X109370476Y-98115428D01*
X109370476Y-97877333D01*
X109418095Y-97686857D01*
X109465714Y-97591619D01*
X109513333Y-97544000D01*
X109608571Y-97496380D01*
X110894285Y-98496380D02*
X110322857Y-98496380D01*
X110608571Y-98496380D02*
X110608571Y-97496380D01*
X110513333Y-97639238D01*
X110418095Y-97734476D01*
X110322857Y-97782095D01*
X105346666Y-82700761D02*
X105489523Y-82748380D01*
X105727619Y-82748380D01*
X105822857Y-82700761D01*
X105870476Y-82653142D01*
X105918095Y-82557904D01*
X105918095Y-82462666D01*
X105870476Y-82367428D01*
X105822857Y-82319809D01*
X105727619Y-82272190D01*
X105537142Y-82224571D01*
X105441904Y-82176952D01*
X105394285Y-82129333D01*
X105346666Y-82034095D01*
X105346666Y-81938857D01*
X105394285Y-81843619D01*
X105441904Y-81796000D01*
X105537142Y-81748380D01*
X105775238Y-81748380D01*
X105918095Y-81796000D01*
X106251428Y-81748380D02*
X106489523Y-82748380D01*
X106680000Y-82034095D01*
X106870476Y-82748380D01*
X107108571Y-81748380D01*
X107537142Y-82748380D02*
X107727619Y-82748380D01*
X107822857Y-82700761D01*
X107870476Y-82653142D01*
X107965714Y-82510285D01*
X108013333Y-82319809D01*
X108013333Y-81938857D01*
X107965714Y-81843619D01*
X107918095Y-81796000D01*
X107822857Y-81748380D01*
X107632380Y-81748380D01*
X107537142Y-81796000D01*
X107489523Y-81843619D01*
X107441904Y-81938857D01*
X107441904Y-82176952D01*
X107489523Y-82272190D01*
X107537142Y-82319809D01*
X107632380Y-82367428D01*
X107822857Y-82367428D01*
X107918095Y-82319809D01*
X107965714Y-82272190D01*
X108013333Y-82176952D01*
X84050714Y-159408761D02*
X84193571Y-159456380D01*
X84431666Y-159456380D01*
X84526904Y-159408761D01*
X84574523Y-159361142D01*
X84622142Y-159265904D01*
X84622142Y-159170666D01*
X84574523Y-159075428D01*
X84526904Y-159027809D01*
X84431666Y-158980190D01*
X84241190Y-158932571D01*
X84145952Y-158884952D01*
X84098333Y-158837333D01*
X84050714Y-158742095D01*
X84050714Y-158646857D01*
X84098333Y-158551619D01*
X84145952Y-158504000D01*
X84241190Y-158456380D01*
X84479285Y-158456380D01*
X84622142Y-158504000D01*
X84955476Y-158456380D02*
X85193571Y-159456380D01*
X85384047Y-158742095D01*
X85574523Y-159456380D01*
X85812619Y-158456380D01*
X85955476Y-159551619D02*
X86717380Y-159551619D01*
X86955476Y-159456380D02*
X86955476Y-158456380D01*
X87193571Y-158456380D01*
X87336428Y-158504000D01*
X87431666Y-158599238D01*
X87479285Y-158694476D01*
X87526904Y-158884952D01*
X87526904Y-159027809D01*
X87479285Y-159218285D01*
X87431666Y-159313523D01*
X87336428Y-159408761D01*
X87193571Y-159456380D01*
X86955476Y-159456380D01*
X87955476Y-159456380D02*
X87955476Y-158456380D01*
X88431666Y-159456380D02*
X88431666Y-158456380D01*
X88812619Y-158456380D01*
X88907857Y-158504000D01*
X88955476Y-158551619D01*
X89003095Y-158646857D01*
X89003095Y-158789714D01*
X88955476Y-158884952D01*
X88907857Y-158932571D01*
X88812619Y-158980190D01*
X88431666Y-158980190D01*
X89193571Y-159551619D02*
X89955476Y-159551619D01*
X90098333Y-159456380D02*
X90622142Y-158789714D01*
X90098333Y-158789714D02*
X90622142Y-159456380D01*
X91193571Y-158456380D02*
X91288809Y-158456380D01*
X91384047Y-158504000D01*
X91431666Y-158551619D01*
X91479285Y-158646857D01*
X91526904Y-158837333D01*
X91526904Y-159075428D01*
X91479285Y-159265904D01*
X91431666Y-159361142D01*
X91384047Y-159408761D01*
X91288809Y-159456380D01*
X91193571Y-159456380D01*
X91098333Y-159408761D01*
X91050714Y-159361142D01*
X91003095Y-159265904D01*
X90955476Y-159075428D01*
X90955476Y-158837333D01*
X91003095Y-158646857D01*
X91050714Y-158551619D01*
X91098333Y-158504000D01*
X91193571Y-158456380D01*
X92479285Y-159456380D02*
X91907857Y-159456380D01*
X92193571Y-159456380D02*
X92193571Y-158456380D01*
X92098333Y-158599238D01*
X92003095Y-158694476D01*
X91907857Y-158742095D01*
X86931666Y-143660761D02*
X87074523Y-143708380D01*
X87312619Y-143708380D01*
X87407857Y-143660761D01*
X87455476Y-143613142D01*
X87503095Y-143517904D01*
X87503095Y-143422666D01*
X87455476Y-143327428D01*
X87407857Y-143279809D01*
X87312619Y-143232190D01*
X87122142Y-143184571D01*
X87026904Y-143136952D01*
X86979285Y-143089333D01*
X86931666Y-142994095D01*
X86931666Y-142898857D01*
X86979285Y-142803619D01*
X87026904Y-142756000D01*
X87122142Y-142708380D01*
X87360238Y-142708380D01*
X87503095Y-142756000D01*
X87836428Y-142708380D02*
X88074523Y-143708380D01*
X88265000Y-142994095D01*
X88455476Y-143708380D01*
X88693571Y-142708380D01*
X89217380Y-143136952D02*
X89122142Y-143089333D01*
X89074523Y-143041714D01*
X89026904Y-142946476D01*
X89026904Y-142898857D01*
X89074523Y-142803619D01*
X89122142Y-142756000D01*
X89217380Y-142708380D01*
X89407857Y-142708380D01*
X89503095Y-142756000D01*
X89550714Y-142803619D01*
X89598333Y-142898857D01*
X89598333Y-142946476D01*
X89550714Y-143041714D01*
X89503095Y-143089333D01*
X89407857Y-143136952D01*
X89217380Y-143136952D01*
X89122142Y-143184571D01*
X89074523Y-143232190D01*
X89026904Y-143327428D01*
X89026904Y-143517904D01*
X89074523Y-143613142D01*
X89122142Y-143660761D01*
X89217380Y-143708380D01*
X89407857Y-143708380D01*
X89503095Y-143660761D01*
X89550714Y-143613142D01*
X89598333Y-143517904D01*
X89598333Y-143327428D01*
X89550714Y-143232190D01*
X89503095Y-143184571D01*
X89407857Y-143136952D01*
X83415714Y-139088761D02*
X83558571Y-139136380D01*
X83796666Y-139136380D01*
X83891904Y-139088761D01*
X83939523Y-139041142D01*
X83987142Y-138945904D01*
X83987142Y-138850666D01*
X83939523Y-138755428D01*
X83891904Y-138707809D01*
X83796666Y-138660190D01*
X83606190Y-138612571D01*
X83510952Y-138564952D01*
X83463333Y-138517333D01*
X83415714Y-138422095D01*
X83415714Y-138326857D01*
X83463333Y-138231619D01*
X83510952Y-138184000D01*
X83606190Y-138136380D01*
X83844285Y-138136380D01*
X83987142Y-138184000D01*
X84320476Y-138136380D02*
X84558571Y-139136380D01*
X84749047Y-138422095D01*
X84939523Y-139136380D01*
X85177619Y-138136380D01*
X85320476Y-139231619D02*
X86082380Y-139231619D01*
X86320476Y-139136380D02*
X86320476Y-138136380D01*
X86558571Y-138136380D01*
X86701428Y-138184000D01*
X86796666Y-138279238D01*
X86844285Y-138374476D01*
X86891904Y-138564952D01*
X86891904Y-138707809D01*
X86844285Y-138898285D01*
X86796666Y-138993523D01*
X86701428Y-139088761D01*
X86558571Y-139136380D01*
X86320476Y-139136380D01*
X87320476Y-139136380D02*
X87320476Y-138136380D01*
X87796666Y-139136380D02*
X87796666Y-138136380D01*
X88177619Y-138136380D01*
X88272857Y-138184000D01*
X88320476Y-138231619D01*
X88368095Y-138326857D01*
X88368095Y-138469714D01*
X88320476Y-138564952D01*
X88272857Y-138612571D01*
X88177619Y-138660190D01*
X87796666Y-138660190D01*
X88558571Y-139231619D02*
X89320476Y-139231619D01*
X89463333Y-139136380D02*
X89987142Y-138469714D01*
X89463333Y-138469714D02*
X89987142Y-139136380D01*
X90558571Y-138136380D02*
X90653809Y-138136380D01*
X90749047Y-138184000D01*
X90796666Y-138231619D01*
X90844285Y-138326857D01*
X90891904Y-138517333D01*
X90891904Y-138755428D01*
X90844285Y-138945904D01*
X90796666Y-139041142D01*
X90749047Y-139088761D01*
X90653809Y-139136380D01*
X90558571Y-139136380D01*
X90463333Y-139088761D01*
X90415714Y-139041142D01*
X90368095Y-138945904D01*
X90320476Y-138755428D01*
X90320476Y-138517333D01*
X90368095Y-138326857D01*
X90415714Y-138231619D01*
X90463333Y-138184000D01*
X90558571Y-138136380D01*
X91844285Y-139136380D02*
X91272857Y-139136380D01*
X91558571Y-139136380D02*
X91558571Y-138136380D01*
X91463333Y-138279238D01*
X91368095Y-138374476D01*
X91272857Y-138422095D01*
X86296666Y-123340761D02*
X86439523Y-123388380D01*
X86677619Y-123388380D01*
X86772857Y-123340761D01*
X86820476Y-123293142D01*
X86868095Y-123197904D01*
X86868095Y-123102666D01*
X86820476Y-123007428D01*
X86772857Y-122959809D01*
X86677619Y-122912190D01*
X86487142Y-122864571D01*
X86391904Y-122816952D01*
X86344285Y-122769333D01*
X86296666Y-122674095D01*
X86296666Y-122578857D01*
X86344285Y-122483619D01*
X86391904Y-122436000D01*
X86487142Y-122388380D01*
X86725238Y-122388380D01*
X86868095Y-122436000D01*
X87201428Y-122388380D02*
X87439523Y-123388380D01*
X87630000Y-122674095D01*
X87820476Y-123388380D01*
X88058571Y-122388380D01*
X88344285Y-122388380D02*
X89010952Y-122388380D01*
X88582380Y-123388380D01*
X82780714Y-118768761D02*
X82923571Y-118816380D01*
X83161666Y-118816380D01*
X83256904Y-118768761D01*
X83304523Y-118721142D01*
X83352142Y-118625904D01*
X83352142Y-118530666D01*
X83304523Y-118435428D01*
X83256904Y-118387809D01*
X83161666Y-118340190D01*
X82971190Y-118292571D01*
X82875952Y-118244952D01*
X82828333Y-118197333D01*
X82780714Y-118102095D01*
X82780714Y-118006857D01*
X82828333Y-117911619D01*
X82875952Y-117864000D01*
X82971190Y-117816380D01*
X83209285Y-117816380D01*
X83352142Y-117864000D01*
X83685476Y-117816380D02*
X83923571Y-118816380D01*
X84114047Y-118102095D01*
X84304523Y-118816380D01*
X84542619Y-117816380D01*
X84685476Y-118911619D02*
X85447380Y-118911619D01*
X85685476Y-118816380D02*
X85685476Y-117816380D01*
X85923571Y-117816380D01*
X86066428Y-117864000D01*
X86161666Y-117959238D01*
X86209285Y-118054476D01*
X86256904Y-118244952D01*
X86256904Y-118387809D01*
X86209285Y-118578285D01*
X86161666Y-118673523D01*
X86066428Y-118768761D01*
X85923571Y-118816380D01*
X85685476Y-118816380D01*
X86685476Y-118816380D02*
X86685476Y-117816380D01*
X87161666Y-118816380D02*
X87161666Y-117816380D01*
X87542619Y-117816380D01*
X87637857Y-117864000D01*
X87685476Y-117911619D01*
X87733095Y-118006857D01*
X87733095Y-118149714D01*
X87685476Y-118244952D01*
X87637857Y-118292571D01*
X87542619Y-118340190D01*
X87161666Y-118340190D01*
X87923571Y-118911619D02*
X88685476Y-118911619D01*
X88828333Y-118816380D02*
X89352142Y-118149714D01*
X88828333Y-118149714D02*
X89352142Y-118816380D01*
X89923571Y-117816380D02*
X90018809Y-117816380D01*
X90114047Y-117864000D01*
X90161666Y-117911619D01*
X90209285Y-118006857D01*
X90256904Y-118197333D01*
X90256904Y-118435428D01*
X90209285Y-118625904D01*
X90161666Y-118721142D01*
X90114047Y-118768761D01*
X90018809Y-118816380D01*
X89923571Y-118816380D01*
X89828333Y-118768761D01*
X89780714Y-118721142D01*
X89733095Y-118625904D01*
X89685476Y-118435428D01*
X89685476Y-118197333D01*
X89733095Y-118006857D01*
X89780714Y-117911619D01*
X89828333Y-117864000D01*
X89923571Y-117816380D01*
X91209285Y-118816380D02*
X90637857Y-118816380D01*
X90923571Y-118816380D02*
X90923571Y-117816380D01*
X90828333Y-117959238D01*
X90733095Y-118054476D01*
X90637857Y-118102095D01*
X85661666Y-103020761D02*
X85804523Y-103068380D01*
X86042619Y-103068380D01*
X86137857Y-103020761D01*
X86185476Y-102973142D01*
X86233095Y-102877904D01*
X86233095Y-102782666D01*
X86185476Y-102687428D01*
X86137857Y-102639809D01*
X86042619Y-102592190D01*
X85852142Y-102544571D01*
X85756904Y-102496952D01*
X85709285Y-102449333D01*
X85661666Y-102354095D01*
X85661666Y-102258857D01*
X85709285Y-102163619D01*
X85756904Y-102116000D01*
X85852142Y-102068380D01*
X86090238Y-102068380D01*
X86233095Y-102116000D01*
X86566428Y-102068380D02*
X86804523Y-103068380D01*
X86995000Y-102354095D01*
X87185476Y-103068380D01*
X87423571Y-102068380D01*
X88233095Y-102068380D02*
X88042619Y-102068380D01*
X87947380Y-102116000D01*
X87899761Y-102163619D01*
X87804523Y-102306476D01*
X87756904Y-102496952D01*
X87756904Y-102877904D01*
X87804523Y-102973142D01*
X87852142Y-103020761D01*
X87947380Y-103068380D01*
X88137857Y-103068380D01*
X88233095Y-103020761D01*
X88280714Y-102973142D01*
X88328333Y-102877904D01*
X88328333Y-102639809D01*
X88280714Y-102544571D01*
X88233095Y-102496952D01*
X88137857Y-102449333D01*
X87947380Y-102449333D01*
X87852142Y-102496952D01*
X87804523Y-102544571D01*
X87756904Y-102639809D01*
X82145714Y-98448761D02*
X82288571Y-98496380D01*
X82526666Y-98496380D01*
X82621904Y-98448761D01*
X82669523Y-98401142D01*
X82717142Y-98305904D01*
X82717142Y-98210666D01*
X82669523Y-98115428D01*
X82621904Y-98067809D01*
X82526666Y-98020190D01*
X82336190Y-97972571D01*
X82240952Y-97924952D01*
X82193333Y-97877333D01*
X82145714Y-97782095D01*
X82145714Y-97686857D01*
X82193333Y-97591619D01*
X82240952Y-97544000D01*
X82336190Y-97496380D01*
X82574285Y-97496380D01*
X82717142Y-97544000D01*
X83050476Y-97496380D02*
X83288571Y-98496380D01*
X83479047Y-97782095D01*
X83669523Y-98496380D01*
X83907619Y-97496380D01*
X84050476Y-98591619D02*
X84812380Y-98591619D01*
X85050476Y-98496380D02*
X85050476Y-97496380D01*
X85288571Y-97496380D01*
X85431428Y-97544000D01*
X85526666Y-97639238D01*
X85574285Y-97734476D01*
X85621904Y-97924952D01*
X85621904Y-98067809D01*
X85574285Y-98258285D01*
X85526666Y-98353523D01*
X85431428Y-98448761D01*
X85288571Y-98496380D01*
X85050476Y-98496380D01*
X86050476Y-98496380D02*
X86050476Y-97496380D01*
X86526666Y-98496380D02*
X86526666Y-97496380D01*
X86907619Y-97496380D01*
X87002857Y-97544000D01*
X87050476Y-97591619D01*
X87098095Y-97686857D01*
X87098095Y-97829714D01*
X87050476Y-97924952D01*
X87002857Y-97972571D01*
X86907619Y-98020190D01*
X86526666Y-98020190D01*
X87288571Y-98591619D02*
X88050476Y-98591619D01*
X88193333Y-98496380D02*
X88717142Y-97829714D01*
X88193333Y-97829714D02*
X88717142Y-98496380D01*
X89288571Y-97496380D02*
X89383809Y-97496380D01*
X89479047Y-97544000D01*
X89526666Y-97591619D01*
X89574285Y-97686857D01*
X89621904Y-97877333D01*
X89621904Y-98115428D01*
X89574285Y-98305904D01*
X89526666Y-98401142D01*
X89479047Y-98448761D01*
X89383809Y-98496380D01*
X89288571Y-98496380D01*
X89193333Y-98448761D01*
X89145714Y-98401142D01*
X89098095Y-98305904D01*
X89050476Y-98115428D01*
X89050476Y-97877333D01*
X89098095Y-97686857D01*
X89145714Y-97591619D01*
X89193333Y-97544000D01*
X89288571Y-97496380D01*
X90574285Y-98496380D02*
X90002857Y-98496380D01*
X90288571Y-98496380D02*
X90288571Y-97496380D01*
X90193333Y-97639238D01*
X90098095Y-97734476D01*
X90002857Y-97782095D01*
X85026666Y-82700761D02*
X85169523Y-82748380D01*
X85407619Y-82748380D01*
X85502857Y-82700761D01*
X85550476Y-82653142D01*
X85598095Y-82557904D01*
X85598095Y-82462666D01*
X85550476Y-82367428D01*
X85502857Y-82319809D01*
X85407619Y-82272190D01*
X85217142Y-82224571D01*
X85121904Y-82176952D01*
X85074285Y-82129333D01*
X85026666Y-82034095D01*
X85026666Y-81938857D01*
X85074285Y-81843619D01*
X85121904Y-81796000D01*
X85217142Y-81748380D01*
X85455238Y-81748380D01*
X85598095Y-81796000D01*
X85931428Y-81748380D02*
X86169523Y-82748380D01*
X86360000Y-82034095D01*
X86550476Y-82748380D01*
X86788571Y-81748380D01*
X87645714Y-81748380D02*
X87169523Y-81748380D01*
X87121904Y-82224571D01*
X87169523Y-82176952D01*
X87264761Y-82129333D01*
X87502857Y-82129333D01*
X87598095Y-82176952D01*
X87645714Y-82224571D01*
X87693333Y-82319809D01*
X87693333Y-82557904D01*
X87645714Y-82653142D01*
X87598095Y-82700761D01*
X87502857Y-82748380D01*
X87264761Y-82748380D01*
X87169523Y-82700761D01*
X87121904Y-82653142D01*
X63730714Y-163218761D02*
X63873571Y-163266380D01*
X64111666Y-163266380D01*
X64206904Y-163218761D01*
X64254523Y-163171142D01*
X64302142Y-163075904D01*
X64302142Y-162980666D01*
X64254523Y-162885428D01*
X64206904Y-162837809D01*
X64111666Y-162790190D01*
X63921190Y-162742571D01*
X63825952Y-162694952D01*
X63778333Y-162647333D01*
X63730714Y-162552095D01*
X63730714Y-162456857D01*
X63778333Y-162361619D01*
X63825952Y-162314000D01*
X63921190Y-162266380D01*
X64159285Y-162266380D01*
X64302142Y-162314000D01*
X64635476Y-162266380D02*
X64873571Y-163266380D01*
X65064047Y-162552095D01*
X65254523Y-163266380D01*
X65492619Y-162266380D01*
X65635476Y-163361619D02*
X66397380Y-163361619D01*
X66635476Y-163266380D02*
X66635476Y-162266380D01*
X66873571Y-162266380D01*
X67016428Y-162314000D01*
X67111666Y-162409238D01*
X67159285Y-162504476D01*
X67206904Y-162694952D01*
X67206904Y-162837809D01*
X67159285Y-163028285D01*
X67111666Y-163123523D01*
X67016428Y-163218761D01*
X66873571Y-163266380D01*
X66635476Y-163266380D01*
X67635476Y-163266380D02*
X67635476Y-162266380D01*
X68111666Y-163266380D02*
X68111666Y-162266380D01*
X68492619Y-162266380D01*
X68587857Y-162314000D01*
X68635476Y-162361619D01*
X68683095Y-162456857D01*
X68683095Y-162599714D01*
X68635476Y-162694952D01*
X68587857Y-162742571D01*
X68492619Y-162790190D01*
X68111666Y-162790190D01*
X68873571Y-163361619D02*
X69635476Y-163361619D01*
X69778333Y-163266380D02*
X70302142Y-162599714D01*
X69778333Y-162599714D02*
X70302142Y-163266380D01*
X70873571Y-162266380D02*
X70968809Y-162266380D01*
X71064047Y-162314000D01*
X71111666Y-162361619D01*
X71159285Y-162456857D01*
X71206904Y-162647333D01*
X71206904Y-162885428D01*
X71159285Y-163075904D01*
X71111666Y-163171142D01*
X71064047Y-163218761D01*
X70968809Y-163266380D01*
X70873571Y-163266380D01*
X70778333Y-163218761D01*
X70730714Y-163171142D01*
X70683095Y-163075904D01*
X70635476Y-162885428D01*
X70635476Y-162647333D01*
X70683095Y-162456857D01*
X70730714Y-162361619D01*
X70778333Y-162314000D01*
X70873571Y-162266380D01*
X72159285Y-163266380D02*
X71587857Y-163266380D01*
X71873571Y-163266380D02*
X71873571Y-162266380D01*
X71778333Y-162409238D01*
X71683095Y-162504476D01*
X71587857Y-162552095D01*
X66611666Y-147470761D02*
X66754523Y-147518380D01*
X66992619Y-147518380D01*
X67087857Y-147470761D01*
X67135476Y-147423142D01*
X67183095Y-147327904D01*
X67183095Y-147232666D01*
X67135476Y-147137428D01*
X67087857Y-147089809D01*
X66992619Y-147042190D01*
X66802142Y-146994571D01*
X66706904Y-146946952D01*
X66659285Y-146899333D01*
X66611666Y-146804095D01*
X66611666Y-146708857D01*
X66659285Y-146613619D01*
X66706904Y-146566000D01*
X66802142Y-146518380D01*
X67040238Y-146518380D01*
X67183095Y-146566000D01*
X67516428Y-146518380D02*
X67754523Y-147518380D01*
X67945000Y-146804095D01*
X68135476Y-147518380D01*
X68373571Y-146518380D01*
X69183095Y-146851714D02*
X69183095Y-147518380D01*
X68945000Y-146470761D02*
X68706904Y-147185047D01*
X69325952Y-147185047D01*
X63095714Y-142898761D02*
X63238571Y-142946380D01*
X63476666Y-142946380D01*
X63571904Y-142898761D01*
X63619523Y-142851142D01*
X63667142Y-142755904D01*
X63667142Y-142660666D01*
X63619523Y-142565428D01*
X63571904Y-142517809D01*
X63476666Y-142470190D01*
X63286190Y-142422571D01*
X63190952Y-142374952D01*
X63143333Y-142327333D01*
X63095714Y-142232095D01*
X63095714Y-142136857D01*
X63143333Y-142041619D01*
X63190952Y-141994000D01*
X63286190Y-141946380D01*
X63524285Y-141946380D01*
X63667142Y-141994000D01*
X64000476Y-141946380D02*
X64238571Y-142946380D01*
X64429047Y-142232095D01*
X64619523Y-142946380D01*
X64857619Y-141946380D01*
X65000476Y-143041619D02*
X65762380Y-143041619D01*
X66000476Y-142946380D02*
X66000476Y-141946380D01*
X66238571Y-141946380D01*
X66381428Y-141994000D01*
X66476666Y-142089238D01*
X66524285Y-142184476D01*
X66571904Y-142374952D01*
X66571904Y-142517809D01*
X66524285Y-142708285D01*
X66476666Y-142803523D01*
X66381428Y-142898761D01*
X66238571Y-142946380D01*
X66000476Y-142946380D01*
X67000476Y-142946380D02*
X67000476Y-141946380D01*
X67476666Y-142946380D02*
X67476666Y-141946380D01*
X67857619Y-141946380D01*
X67952857Y-141994000D01*
X68000476Y-142041619D01*
X68048095Y-142136857D01*
X68048095Y-142279714D01*
X68000476Y-142374952D01*
X67952857Y-142422571D01*
X67857619Y-142470190D01*
X67476666Y-142470190D01*
X68238571Y-143041619D02*
X69000476Y-143041619D01*
X69143333Y-142946380D02*
X69667142Y-142279714D01*
X69143333Y-142279714D02*
X69667142Y-142946380D01*
X70238571Y-141946380D02*
X70333809Y-141946380D01*
X70429047Y-141994000D01*
X70476666Y-142041619D01*
X70524285Y-142136857D01*
X70571904Y-142327333D01*
X70571904Y-142565428D01*
X70524285Y-142755904D01*
X70476666Y-142851142D01*
X70429047Y-142898761D01*
X70333809Y-142946380D01*
X70238571Y-142946380D01*
X70143333Y-142898761D01*
X70095714Y-142851142D01*
X70048095Y-142755904D01*
X70000476Y-142565428D01*
X70000476Y-142327333D01*
X70048095Y-142136857D01*
X70095714Y-142041619D01*
X70143333Y-141994000D01*
X70238571Y-141946380D01*
X71524285Y-142946380D02*
X70952857Y-142946380D01*
X71238571Y-142946380D02*
X71238571Y-141946380D01*
X71143333Y-142089238D01*
X71048095Y-142184476D01*
X70952857Y-142232095D01*
X65976666Y-127150761D02*
X66119523Y-127198380D01*
X66357619Y-127198380D01*
X66452857Y-127150761D01*
X66500476Y-127103142D01*
X66548095Y-127007904D01*
X66548095Y-126912666D01*
X66500476Y-126817428D01*
X66452857Y-126769809D01*
X66357619Y-126722190D01*
X66167142Y-126674571D01*
X66071904Y-126626952D01*
X66024285Y-126579333D01*
X65976666Y-126484095D01*
X65976666Y-126388857D01*
X66024285Y-126293619D01*
X66071904Y-126246000D01*
X66167142Y-126198380D01*
X66405238Y-126198380D01*
X66548095Y-126246000D01*
X66881428Y-126198380D02*
X67119523Y-127198380D01*
X67310000Y-126484095D01*
X67500476Y-127198380D01*
X67738571Y-126198380D01*
X68024285Y-126198380D02*
X68643333Y-126198380D01*
X68310000Y-126579333D01*
X68452857Y-126579333D01*
X68548095Y-126626952D01*
X68595714Y-126674571D01*
X68643333Y-126769809D01*
X68643333Y-127007904D01*
X68595714Y-127103142D01*
X68548095Y-127150761D01*
X68452857Y-127198380D01*
X68167142Y-127198380D01*
X68071904Y-127150761D01*
X68024285Y-127103142D01*
X62460714Y-122578761D02*
X62603571Y-122626380D01*
X62841666Y-122626380D01*
X62936904Y-122578761D01*
X62984523Y-122531142D01*
X63032142Y-122435904D01*
X63032142Y-122340666D01*
X62984523Y-122245428D01*
X62936904Y-122197809D01*
X62841666Y-122150190D01*
X62651190Y-122102571D01*
X62555952Y-122054952D01*
X62508333Y-122007333D01*
X62460714Y-121912095D01*
X62460714Y-121816857D01*
X62508333Y-121721619D01*
X62555952Y-121674000D01*
X62651190Y-121626380D01*
X62889285Y-121626380D01*
X63032142Y-121674000D01*
X63365476Y-121626380D02*
X63603571Y-122626380D01*
X63794047Y-121912095D01*
X63984523Y-122626380D01*
X64222619Y-121626380D01*
X64365476Y-122721619D02*
X65127380Y-122721619D01*
X65365476Y-122626380D02*
X65365476Y-121626380D01*
X65603571Y-121626380D01*
X65746428Y-121674000D01*
X65841666Y-121769238D01*
X65889285Y-121864476D01*
X65936904Y-122054952D01*
X65936904Y-122197809D01*
X65889285Y-122388285D01*
X65841666Y-122483523D01*
X65746428Y-122578761D01*
X65603571Y-122626380D01*
X65365476Y-122626380D01*
X66365476Y-122626380D02*
X66365476Y-121626380D01*
X66841666Y-122626380D02*
X66841666Y-121626380D01*
X67222619Y-121626380D01*
X67317857Y-121674000D01*
X67365476Y-121721619D01*
X67413095Y-121816857D01*
X67413095Y-121959714D01*
X67365476Y-122054952D01*
X67317857Y-122102571D01*
X67222619Y-122150190D01*
X66841666Y-122150190D01*
X67603571Y-122721619D02*
X68365476Y-122721619D01*
X68508333Y-122626380D02*
X69032142Y-121959714D01*
X68508333Y-121959714D02*
X69032142Y-122626380D01*
X69603571Y-121626380D02*
X69698809Y-121626380D01*
X69794047Y-121674000D01*
X69841666Y-121721619D01*
X69889285Y-121816857D01*
X69936904Y-122007333D01*
X69936904Y-122245428D01*
X69889285Y-122435904D01*
X69841666Y-122531142D01*
X69794047Y-122578761D01*
X69698809Y-122626380D01*
X69603571Y-122626380D01*
X69508333Y-122578761D01*
X69460714Y-122531142D01*
X69413095Y-122435904D01*
X69365476Y-122245428D01*
X69365476Y-122007333D01*
X69413095Y-121816857D01*
X69460714Y-121721619D01*
X69508333Y-121674000D01*
X69603571Y-121626380D01*
X70889285Y-122626380D02*
X70317857Y-122626380D01*
X70603571Y-122626380D02*
X70603571Y-121626380D01*
X70508333Y-121769238D01*
X70413095Y-121864476D01*
X70317857Y-121912095D01*
X65341666Y-106830761D02*
X65484523Y-106878380D01*
X65722619Y-106878380D01*
X65817857Y-106830761D01*
X65865476Y-106783142D01*
X65913095Y-106687904D01*
X65913095Y-106592666D01*
X65865476Y-106497428D01*
X65817857Y-106449809D01*
X65722619Y-106402190D01*
X65532142Y-106354571D01*
X65436904Y-106306952D01*
X65389285Y-106259333D01*
X65341666Y-106164095D01*
X65341666Y-106068857D01*
X65389285Y-105973619D01*
X65436904Y-105926000D01*
X65532142Y-105878380D01*
X65770238Y-105878380D01*
X65913095Y-105926000D01*
X66246428Y-105878380D02*
X66484523Y-106878380D01*
X66675000Y-106164095D01*
X66865476Y-106878380D01*
X67103571Y-105878380D01*
X67436904Y-105973619D02*
X67484523Y-105926000D01*
X67579761Y-105878380D01*
X67817857Y-105878380D01*
X67913095Y-105926000D01*
X67960714Y-105973619D01*
X68008333Y-106068857D01*
X68008333Y-106164095D01*
X67960714Y-106306952D01*
X67389285Y-106878380D01*
X68008333Y-106878380D01*
X61825714Y-102258761D02*
X61968571Y-102306380D01*
X62206666Y-102306380D01*
X62301904Y-102258761D01*
X62349523Y-102211142D01*
X62397142Y-102115904D01*
X62397142Y-102020666D01*
X62349523Y-101925428D01*
X62301904Y-101877809D01*
X62206666Y-101830190D01*
X62016190Y-101782571D01*
X61920952Y-101734952D01*
X61873333Y-101687333D01*
X61825714Y-101592095D01*
X61825714Y-101496857D01*
X61873333Y-101401619D01*
X61920952Y-101354000D01*
X62016190Y-101306380D01*
X62254285Y-101306380D01*
X62397142Y-101354000D01*
X62730476Y-101306380D02*
X62968571Y-102306380D01*
X63159047Y-101592095D01*
X63349523Y-102306380D01*
X63587619Y-101306380D01*
X63730476Y-102401619D02*
X64492380Y-102401619D01*
X64730476Y-102306380D02*
X64730476Y-101306380D01*
X64968571Y-101306380D01*
X65111428Y-101354000D01*
X65206666Y-101449238D01*
X65254285Y-101544476D01*
X65301904Y-101734952D01*
X65301904Y-101877809D01*
X65254285Y-102068285D01*
X65206666Y-102163523D01*
X65111428Y-102258761D01*
X64968571Y-102306380D01*
X64730476Y-102306380D01*
X65730476Y-102306380D02*
X65730476Y-101306380D01*
X66206666Y-102306380D02*
X66206666Y-101306380D01*
X66587619Y-101306380D01*
X66682857Y-101354000D01*
X66730476Y-101401619D01*
X66778095Y-101496857D01*
X66778095Y-101639714D01*
X66730476Y-101734952D01*
X66682857Y-101782571D01*
X66587619Y-101830190D01*
X66206666Y-101830190D01*
X66968571Y-102401619D02*
X67730476Y-102401619D01*
X67873333Y-102306380D02*
X68397142Y-101639714D01*
X67873333Y-101639714D02*
X68397142Y-102306380D01*
X68968571Y-101306380D02*
X69063809Y-101306380D01*
X69159047Y-101354000D01*
X69206666Y-101401619D01*
X69254285Y-101496857D01*
X69301904Y-101687333D01*
X69301904Y-101925428D01*
X69254285Y-102115904D01*
X69206666Y-102211142D01*
X69159047Y-102258761D01*
X69063809Y-102306380D01*
X68968571Y-102306380D01*
X68873333Y-102258761D01*
X68825714Y-102211142D01*
X68778095Y-102115904D01*
X68730476Y-101925428D01*
X68730476Y-101687333D01*
X68778095Y-101496857D01*
X68825714Y-101401619D01*
X68873333Y-101354000D01*
X68968571Y-101306380D01*
X70254285Y-102306380D02*
X69682857Y-102306380D01*
X69968571Y-102306380D02*
X69968571Y-101306380D01*
X69873333Y-101449238D01*
X69778095Y-101544476D01*
X69682857Y-101592095D01*
X64706666Y-86510761D02*
X64849523Y-86558380D01*
X65087619Y-86558380D01*
X65182857Y-86510761D01*
X65230476Y-86463142D01*
X65278095Y-86367904D01*
X65278095Y-86272666D01*
X65230476Y-86177428D01*
X65182857Y-86129809D01*
X65087619Y-86082190D01*
X64897142Y-86034571D01*
X64801904Y-85986952D01*
X64754285Y-85939333D01*
X64706666Y-85844095D01*
X64706666Y-85748857D01*
X64754285Y-85653619D01*
X64801904Y-85606000D01*
X64897142Y-85558380D01*
X65135238Y-85558380D01*
X65278095Y-85606000D01*
X65611428Y-85558380D02*
X65849523Y-86558380D01*
X66040000Y-85844095D01*
X66230476Y-86558380D01*
X66468571Y-85558380D01*
X67373333Y-86558380D02*
X66801904Y-86558380D01*
X67087619Y-86558380D02*
X67087619Y-85558380D01*
X66992380Y-85701238D01*
X66897142Y-85796476D01*
X66801904Y-85844095D01*
M02*
