G04 #@! TF.GenerationSoftware,KiCad,Pcbnew,(5.1.10)-1*
G04 #@! TF.CreationDate,2021-09-13T16:17:20-07:00*
G04 #@! TF.ProjectId,keyboard_pcb,6b657962-6f61-4726-945f-7063622e6b69,v0.1*
G04 #@! TF.SameCoordinates,Original*
G04 #@! TF.FileFunction,Copper,L1,Top*
G04 #@! TF.FilePolarity,Positive*
%FSLAX46Y46*%
G04 Gerber Fmt 4.6, Leading zero omitted, Abs format (unit mm)*
G04 Created by KiCad (PCBNEW (5.1.10)-1) date 2021-09-13 16:17:20*
%MOMM*%
%LPD*%
G01*
G04 APERTURE LIST*
G04 #@! TA.AperFunction,ComponentPad*
%ADD10C,3.000000*%
G04 #@! TD*
G04 #@! TA.AperFunction,ComponentPad*
%ADD11C,1.600000*%
G04 #@! TD*
G04 #@! TA.AperFunction,ComponentPad*
%ADD12C,2.200000*%
G04 #@! TD*
G04 #@! TA.AperFunction,Conductor*
%ADD13C,1.000000*%
G04 #@! TD*
G04 APERTURE END LIST*
D10*
X153065000Y-59690000D03*
X130810000Y-49530000D03*
X122555000Y-53340000D03*
X114403274Y-57150000D03*
D11*
X87630000Y-52070000D03*
X87630000Y-67310000D03*
X85090000Y-52070000D03*
X82550000Y-52070000D03*
X80010000Y-52070000D03*
X77470000Y-52070000D03*
X74930000Y-52070000D03*
X72390000Y-52070000D03*
X69850000Y-52070000D03*
X67310000Y-52070000D03*
X64770000Y-52070000D03*
X62230000Y-52070000D03*
X59690000Y-52070000D03*
X57150000Y-52070000D03*
X54610000Y-52070000D03*
X85090000Y-67310000D03*
X82550000Y-67310000D03*
X80010000Y-67310000D03*
X77470000Y-67310000D03*
X74930000Y-67310000D03*
X72390000Y-67310000D03*
X69850000Y-67310000D03*
X67310000Y-67310000D03*
X64770000Y-67310000D03*
X62230000Y-67310000D03*
X59690000Y-67310000D03*
X57150000Y-67310000D03*
X54610000Y-67310000D03*
D12*
X145415000Y-148590000D03*
X151765000Y-146050000D03*
X145415000Y-128270000D03*
X151765000Y-125730000D03*
X145415000Y-107950000D03*
X151765000Y-105410000D03*
X145415000Y-87630000D03*
X151765000Y-85090000D03*
X125095000Y-148590000D03*
X131445000Y-146050000D03*
X124460000Y-128270000D03*
X130810000Y-125730000D03*
X123825000Y-107950000D03*
X130175000Y-105410000D03*
X123190000Y-87630000D03*
X129540000Y-85090000D03*
X104775000Y-148590000D03*
X111125000Y-146050000D03*
X104140000Y-128270000D03*
X110490000Y-125730000D03*
X103505000Y-107950000D03*
X109855000Y-105410000D03*
X102870000Y-87630000D03*
X109220000Y-85090000D03*
X84455000Y-148590000D03*
X90805000Y-146050000D03*
X83820000Y-128270000D03*
X90170000Y-125730000D03*
X83185000Y-107950000D03*
X89535000Y-105410000D03*
X82550000Y-87630000D03*
X88900000Y-85090000D03*
X64135000Y-152400000D03*
X70485000Y-149860000D03*
X63500000Y-132080000D03*
X69850000Y-129540000D03*
X62865000Y-111760000D03*
X69215000Y-109220000D03*
X62230000Y-91440000D03*
X68580000Y-88900000D03*
D13*
X93980000Y-79375000D02*
X96520000Y-76835000D01*
X81915000Y-79375000D02*
X93980000Y-79375000D01*
X96520000Y-48260000D02*
X95885000Y-47625000D01*
X76200000Y-83185000D02*
X78105000Y-83185000D01*
X73660000Y-85725000D02*
X76200000Y-83185000D01*
X96520000Y-76835000D02*
X96520000Y-48260000D01*
X63500000Y-85725000D02*
X73660000Y-85725000D01*
X62230000Y-86995000D02*
X63500000Y-85725000D01*
X78105000Y-83185000D02*
X81915000Y-79375000D01*
X62230000Y-91440000D02*
X62230000Y-86995000D01*
X95885000Y-47625000D02*
X83185000Y-47625000D01*
X82550000Y-48260000D02*
X82550000Y-52070000D01*
X83185000Y-47625000D02*
X82550000Y-48260000D01*
X95885000Y-146050000D02*
X97155000Y-147320000D01*
X90805000Y-146050000D02*
X95885000Y-146050000D01*
X118110000Y-158750000D02*
X118110000Y-148590000D01*
X114935000Y-146050000D02*
X117475000Y-148590000D01*
X111125000Y-146050000D02*
X114935000Y-146050000D01*
X137795000Y-158750000D02*
X137795000Y-147320000D01*
X136525000Y-146050000D02*
X137795000Y-147320000D01*
X131445000Y-146050000D02*
X136525000Y-146050000D01*
X155575000Y-146050000D02*
X151765000Y-146050000D01*
X156845000Y-147320000D02*
X155575000Y-146050000D01*
X156845000Y-158750000D02*
X156845000Y-147320000D01*
X155575000Y-160020000D02*
X156845000Y-158750000D01*
X138430000Y-160020000D02*
X156210000Y-160020000D01*
X96520000Y-128270000D02*
X93980000Y-125730000D01*
X96520000Y-134620000D02*
X96520000Y-128270000D01*
X90170000Y-125730000D02*
X93980000Y-125730000D01*
X115570000Y-128270000D02*
X113030000Y-125730000D01*
X115570000Y-133350000D02*
X115570000Y-128270000D01*
X96520000Y-134620000D02*
X97790000Y-135890000D01*
X136525000Y-128270000D02*
X133985000Y-125730000D01*
X136525000Y-133350000D02*
X136525000Y-128270000D01*
X130175000Y-125730000D02*
X133985000Y-125730000D01*
X137795000Y-135890000D02*
X155575000Y-135890000D01*
X155575000Y-135890000D02*
X158115000Y-133350000D01*
X158115000Y-133350000D02*
X158115000Y-128270000D01*
X158115000Y-128270000D02*
X155575000Y-125730000D01*
X97155000Y-109220000D02*
X93345000Y-105410000D01*
X89535000Y-105410000D02*
X93345000Y-105410000D01*
X116205000Y-106680000D02*
X114935000Y-105410000D01*
X109855000Y-105410000D02*
X114935000Y-105410000D01*
X136525000Y-106680000D02*
X135255000Y-105410000D01*
X136525000Y-113030000D02*
X136525000Y-106680000D01*
X133985000Y-115570000D02*
X136525000Y-113030000D01*
X117475000Y-115570000D02*
X133985000Y-115570000D01*
X130175000Y-105410000D02*
X135255000Y-105410000D01*
X136525000Y-113030000D02*
X136525000Y-114300000D01*
X136525000Y-114300000D02*
X137795000Y-115570000D01*
X155575000Y-115570000D02*
X158115000Y-113030000D01*
X158115000Y-113030000D02*
X158115000Y-107950000D01*
X155575000Y-105410000D02*
X151765000Y-105410000D01*
X158115000Y-107950000D02*
X155575000Y-105410000D01*
X95250000Y-86360000D02*
X95250000Y-92710000D01*
X93980000Y-85090000D02*
X95250000Y-86360000D01*
X88900000Y-85090000D02*
X93980000Y-85090000D01*
X95250000Y-92710000D02*
X95250000Y-93980000D01*
X95250000Y-93980000D02*
X96520000Y-95250000D01*
X113030000Y-95250000D02*
X115570000Y-92710000D01*
X115570000Y-92710000D02*
X115570000Y-87630000D01*
X113030000Y-85090000D02*
X115570000Y-87630000D01*
X109220000Y-85090000D02*
X113030000Y-85090000D01*
X137160000Y-92710000D02*
X137160000Y-87630000D01*
X116840000Y-95250000D02*
X134620000Y-95250000D01*
X134620000Y-85090000D02*
X137160000Y-87630000D01*
X129540000Y-85090000D02*
X134620000Y-85090000D01*
X158115000Y-92710000D02*
X158115000Y-86360000D01*
X158115000Y-86360000D02*
X156845000Y-85090000D01*
X156845000Y-85090000D02*
X151765000Y-85090000D01*
X158115000Y-143510000D02*
X158115000Y-128270000D01*
X155575000Y-146050000D02*
X158115000Y-143510000D01*
X151765000Y-125730000D02*
X155575000Y-125730000D01*
X158115000Y-123190000D02*
X158115000Y-107950000D01*
X155575000Y-125730000D02*
X158115000Y-123190000D01*
X151765000Y-105410000D02*
X156845000Y-100330000D01*
X156845000Y-93980000D02*
X158115000Y-92710000D01*
X137795000Y-134620000D02*
X136525000Y-133350000D01*
X137795000Y-135890000D02*
X137795000Y-134620000D01*
X138430000Y-159385000D02*
X137795000Y-158750000D01*
X138430000Y-160020000D02*
X138430000Y-159385000D01*
X118110000Y-158750000D02*
X119380000Y-160020000D01*
X119380000Y-160020000D02*
X138430000Y-160020000D01*
X118110000Y-148590000D02*
X117475000Y-148590000D01*
X98425000Y-147320000D02*
X98425000Y-160020000D01*
X97155000Y-147320000D02*
X98425000Y-147320000D01*
X116840000Y-160020000D02*
X118110000Y-158750000D01*
X78740000Y-160020000D02*
X116840000Y-160020000D01*
X78740000Y-152400000D02*
X78740000Y-160020000D01*
X76200000Y-149860000D02*
X78740000Y-152400000D01*
X76200000Y-149860000D02*
X73660000Y-149860000D01*
X73660000Y-149860000D02*
X74295000Y-149860000D01*
X70485000Y-149860000D02*
X73660000Y-149860000D01*
X113030000Y-135890000D02*
X115570000Y-133350000D01*
X133985000Y-135890000D02*
X136525000Y-133350000D01*
X116840000Y-135890000D02*
X133985000Y-135890000D01*
X115570000Y-134620000D02*
X116840000Y-135890000D01*
X115570000Y-133350000D02*
X115570000Y-134620000D01*
X113030000Y-125730000D02*
X110490000Y-125730000D01*
X95250000Y-135890000D02*
X96520000Y-134620000D01*
X79375000Y-135890000D02*
X95250000Y-135890000D01*
X73025000Y-129540000D02*
X79375000Y-135890000D01*
X69850000Y-129540000D02*
X73025000Y-129540000D01*
X97790000Y-135890000D02*
X113030000Y-135890000D01*
X155575000Y-115570000D02*
X137795000Y-115570000D01*
X117475000Y-114300000D02*
X116205000Y-113030000D01*
X117475000Y-115570000D02*
X117475000Y-114300000D01*
X116205000Y-113030000D02*
X116205000Y-106680000D01*
X113665000Y-115570000D02*
X116205000Y-113030000D01*
X97155000Y-115570000D02*
X97155000Y-109220000D01*
X97155000Y-115570000D02*
X113665000Y-115570000D01*
X73025000Y-109220000D02*
X69215000Y-109220000D01*
X79375000Y-115570000D02*
X73025000Y-109220000D01*
X97155000Y-115570000D02*
X79375000Y-115570000D01*
X134620000Y-95250000D02*
X137160000Y-92710000D01*
X137160000Y-92710000D02*
X137160000Y-93345000D01*
X139065000Y-95250000D02*
X156845000Y-95250000D01*
X137160000Y-93345000D02*
X139065000Y-95250000D01*
X156845000Y-95250000D02*
X156845000Y-93980000D01*
X156845000Y-100330000D02*
X156845000Y-95250000D01*
X92710000Y-95250000D02*
X95250000Y-92710000D01*
X75565000Y-95250000D02*
X92710000Y-95250000D01*
X69215000Y-88900000D02*
X75565000Y-95250000D01*
X96520000Y-95250000D02*
X113030000Y-95250000D01*
X116840000Y-93980000D02*
X115570000Y-92710000D01*
X116840000Y-95250000D02*
X116840000Y-93980000D01*
X151765000Y-67310000D02*
X147320000Y-62865000D01*
X151765000Y-85090000D02*
X151765000Y-67310000D01*
X147320000Y-62865000D02*
X141605000Y-62865000D01*
X147320000Y-62865000D02*
X134620000Y-62865000D01*
X109220000Y-60960000D02*
X111125000Y-62865000D01*
X109220000Y-43180000D02*
X109220000Y-60960000D01*
X62865000Y-38100000D02*
X104140000Y-38100000D01*
X53340000Y-47625000D02*
X62865000Y-38100000D01*
X49530000Y-47625000D02*
X53340000Y-47625000D01*
X111125000Y-62865000D02*
X134620000Y-62865000D01*
X45720000Y-51435000D02*
X49530000Y-47625000D01*
X45720000Y-62865000D02*
X45720000Y-51435000D01*
X104140000Y-38100000D02*
X109220000Y-43180000D01*
X50165000Y-67310000D02*
X45720000Y-62865000D01*
X50165000Y-67310000D02*
X54610000Y-67310000D01*
X153035000Y-59720000D02*
X153065000Y-59690000D01*
X149890000Y-62865000D02*
X153065000Y-59690000D01*
X147320000Y-62865000D02*
X149890000Y-62865000D01*
X62865000Y-111760000D02*
X52070000Y-111760000D01*
X52070000Y-111760000D02*
X47625000Y-107315000D01*
X47625000Y-107315000D02*
X47625000Y-81915000D01*
X47625000Y-81915000D02*
X48260000Y-81915000D01*
X48260000Y-81915000D02*
X50800000Y-79375000D01*
X50800000Y-79375000D02*
X53975000Y-79375000D01*
X53975000Y-79375000D02*
X57785000Y-75565000D01*
X57785000Y-75565000D02*
X67945000Y-75565000D01*
X67945000Y-75565000D02*
X69850000Y-73660000D01*
X69850000Y-73660000D02*
X71755000Y-73660000D01*
X71755000Y-73660000D02*
X75565000Y-69850000D01*
X75565000Y-69850000D02*
X82550000Y-69850000D01*
X82550000Y-69850000D02*
X82550000Y-67310000D01*
X82550000Y-81915000D02*
X82550000Y-87630000D01*
X94615000Y-81915000D02*
X82550000Y-81915000D01*
X99060000Y-77470000D02*
X94615000Y-81915000D01*
X99060000Y-77470000D02*
X99060000Y-46990000D01*
X99060000Y-46990000D02*
X97790000Y-45720000D01*
X97790000Y-45720000D02*
X80645000Y-45720000D01*
X80010000Y-46355000D02*
X80010000Y-52070000D01*
X80645000Y-45720000D02*
X80010000Y-46355000D01*
X85090000Y-71755000D02*
X85090000Y-67310000D01*
X83185000Y-107950000D02*
X80645000Y-105410000D01*
X80645000Y-105410000D02*
X51435000Y-105410000D01*
X76835000Y-71755000D02*
X85090000Y-71755000D01*
X50165000Y-104140000D02*
X50165000Y-83185000D01*
X50165000Y-83185000D02*
X50800000Y-83185000D01*
X50800000Y-83185000D02*
X52705000Y-81280000D01*
X73025000Y-75565000D02*
X76835000Y-71755000D01*
X52705000Y-81280000D02*
X55245000Y-81280000D01*
X51435000Y-105410000D02*
X50165000Y-104140000D01*
X59055000Y-77470000D02*
X69215000Y-77470000D01*
X55245000Y-81280000D02*
X59055000Y-77470000D01*
X71120000Y-75565000D02*
X73025000Y-75565000D01*
X69215000Y-77470000D02*
X71120000Y-75565000D01*
X101600000Y-46355000D02*
X99060000Y-43815000D01*
X101600000Y-66675000D02*
X101600000Y-46355000D01*
X102870000Y-67945000D02*
X101600000Y-66675000D01*
X102870000Y-87630000D02*
X102870000Y-67945000D01*
X99060000Y-43815000D02*
X78105000Y-43815000D01*
X77470000Y-44450000D02*
X77470000Y-52070000D01*
X78105000Y-43815000D02*
X77470000Y-44450000D01*
X103505000Y-107950000D02*
X101600000Y-107950000D01*
X72390000Y-77470000D02*
X74295000Y-77470000D01*
X101600000Y-107950000D02*
X96520000Y-102870000D01*
X52705000Y-102235000D02*
X52705000Y-84455000D01*
X53340000Y-102870000D02*
X52705000Y-102235000D01*
X56515000Y-83185000D02*
X60325000Y-79375000D01*
X52705000Y-84455000D02*
X53975000Y-83185000D01*
X53975000Y-83185000D02*
X56515000Y-83185000D01*
X78105000Y-73660000D02*
X87630000Y-73660000D01*
X87630000Y-73660000D02*
X87630000Y-67310000D01*
X60325000Y-79375000D02*
X70485000Y-79375000D01*
X70485000Y-79375000D02*
X72390000Y-77470000D01*
X96520000Y-102870000D02*
X53340000Y-102870000D01*
X74295000Y-77470000D02*
X78105000Y-73660000D01*
X74930000Y-43815000D02*
X74930000Y-52070000D01*
X76835000Y-41910000D02*
X74930000Y-43815000D01*
X100330000Y-41910000D02*
X76835000Y-41910000D01*
X104140000Y-45720000D02*
X100330000Y-41910000D01*
X106045000Y-67310000D02*
X104140000Y-65405000D01*
X104140000Y-65405000D02*
X104140000Y-45720000D01*
X106045000Y-68580000D02*
X106045000Y-67310000D01*
X123190000Y-68580000D02*
X106045000Y-68580000D01*
X123190000Y-87630000D02*
X123190000Y-68580000D01*
X89535000Y-75565000D02*
X90805000Y-74295000D01*
X79375000Y-75565000D02*
X89535000Y-75565000D01*
X75565000Y-79375000D02*
X79375000Y-75565000D01*
X71755000Y-81280000D02*
X73660000Y-79375000D01*
X73660000Y-79375000D02*
X75565000Y-79375000D01*
X61595000Y-81280000D02*
X71755000Y-81280000D01*
X57785000Y-85090000D02*
X61595000Y-81280000D01*
X55245000Y-85090000D02*
X57785000Y-85090000D01*
X55245000Y-100330000D02*
X55245000Y-85090000D01*
X116205000Y-100330000D02*
X55245000Y-100330000D01*
X123825000Y-107950000D02*
X116205000Y-100330000D01*
X90805000Y-74295000D02*
X90805000Y-52070000D01*
X90805000Y-52070000D02*
X87630000Y-52070000D01*
X106680000Y-44450000D02*
X102235000Y-40005000D01*
X106680000Y-64770000D02*
X106680000Y-44450000D01*
X107315000Y-65405000D02*
X106680000Y-64770000D01*
X145415000Y-65405000D02*
X107315000Y-65405000D01*
X145415000Y-87630000D02*
X145415000Y-65405000D01*
X102235000Y-40005000D02*
X73025000Y-40005000D01*
X72390000Y-40640000D02*
X72390000Y-52070000D01*
X73025000Y-40005000D02*
X72390000Y-40640000D01*
X145415000Y-107950000D02*
X145415000Y-102870000D01*
X145415000Y-102870000D02*
X140335000Y-97790000D01*
X140335000Y-97790000D02*
X57785000Y-97790000D01*
X57785000Y-97790000D02*
X57785000Y-86995000D01*
X59055000Y-86995000D02*
X62865000Y-83185000D01*
X57785000Y-86995000D02*
X59055000Y-86995000D01*
X74930000Y-81280000D02*
X76835000Y-81280000D01*
X62865000Y-83185000D02*
X73025000Y-83185000D01*
X73025000Y-83185000D02*
X74930000Y-81280000D01*
X76835000Y-81280000D02*
X80645000Y-77470000D01*
X92075000Y-77470000D02*
X93980000Y-75565000D01*
X80645000Y-77470000D02*
X92075000Y-77470000D01*
X93980000Y-75565000D02*
X93980000Y-49530000D01*
X93980000Y-49530000D02*
X85090000Y-49530000D01*
X85090000Y-49530000D02*
X85090000Y-52070000D01*
M02*
