G04 #@! TF.GenerationSoftware,KiCad,Pcbnew,(5.1.10)-1*
G04 #@! TF.CreationDate,2021-09-13T16:17:20-07:00*
G04 #@! TF.ProjectId,keyboard_pcb,6b657962-6f61-4726-945f-7063622e6b69,v0.1*
G04 #@! TF.SameCoordinates,Original*
G04 #@! TF.FileFunction,Copper,L2,Bot*
G04 #@! TF.FilePolarity,Positive*
%FSLAX46Y46*%
G04 Gerber Fmt 4.6, Leading zero omitted, Abs format (unit mm)*
G04 Created by KiCad (PCBNEW (5.1.10)-1) date 2021-09-13 16:17:20*
%MOMM*%
%LPD*%
G01*
G04 APERTURE LIST*
G04 #@! TA.AperFunction,ComponentPad*
%ADD10C,3.000000*%
G04 #@! TD*
G04 #@! TA.AperFunction,ComponentPad*
%ADD11C,1.600000*%
G04 #@! TD*
G04 #@! TA.AperFunction,ComponentPad*
%ADD12C,2.200000*%
G04 #@! TD*
G04 #@! TA.AperFunction,Conductor*
%ADD13C,1.000000*%
G04 #@! TD*
G04 APERTURE END LIST*
D10*
X153065000Y-59690000D03*
X130810000Y-49530000D03*
X122555000Y-53340000D03*
X114403274Y-57150000D03*
D11*
X87630000Y-52070000D03*
X87630000Y-67310000D03*
X85090000Y-52070000D03*
X82550000Y-52070000D03*
X80010000Y-52070000D03*
X77470000Y-52070000D03*
X74930000Y-52070000D03*
X72390000Y-52070000D03*
X69850000Y-52070000D03*
X67310000Y-52070000D03*
X64770000Y-52070000D03*
X62230000Y-52070000D03*
X59690000Y-52070000D03*
X57150000Y-52070000D03*
X54610000Y-52070000D03*
X85090000Y-67310000D03*
X82550000Y-67310000D03*
X80010000Y-67310000D03*
X77470000Y-67310000D03*
X74930000Y-67310000D03*
X72390000Y-67310000D03*
X69850000Y-67310000D03*
X67310000Y-67310000D03*
X64770000Y-67310000D03*
X62230000Y-67310000D03*
X59690000Y-67310000D03*
X57150000Y-67310000D03*
X54610000Y-67310000D03*
D12*
X145415000Y-148590000D03*
X151765000Y-146050000D03*
X145415000Y-128270000D03*
X151765000Y-125730000D03*
X145415000Y-107950000D03*
X151765000Y-105410000D03*
X145415000Y-87630000D03*
X151765000Y-85090000D03*
X125095000Y-148590000D03*
X131445000Y-146050000D03*
X124460000Y-128270000D03*
X130810000Y-125730000D03*
X123825000Y-107950000D03*
X130175000Y-105410000D03*
X123190000Y-87630000D03*
X129540000Y-85090000D03*
X104775000Y-148590000D03*
X111125000Y-146050000D03*
X104140000Y-128270000D03*
X110490000Y-125730000D03*
X103505000Y-107950000D03*
X109855000Y-105410000D03*
X102870000Y-87630000D03*
X109220000Y-85090000D03*
X84455000Y-148590000D03*
X90805000Y-146050000D03*
X83820000Y-128270000D03*
X90170000Y-125730000D03*
X83185000Y-107950000D03*
X89535000Y-105410000D03*
X82550000Y-87630000D03*
X88900000Y-85090000D03*
X64135000Y-152400000D03*
X70485000Y-149860000D03*
X63500000Y-132080000D03*
X69850000Y-129540000D03*
X62865000Y-111760000D03*
X69215000Y-109220000D03*
X62230000Y-91440000D03*
X68580000Y-88900000D03*
D13*
X75565000Y-126365000D02*
X78105000Y-123825000D01*
X64135000Y-126365000D02*
X75565000Y-126365000D01*
X63500000Y-127000000D02*
X64135000Y-126365000D01*
X63500000Y-132080000D02*
X63500000Y-127000000D01*
X78105000Y-123825000D02*
X78105000Y-84455000D01*
X78105000Y-84455000D02*
X76200000Y-82550000D01*
X76200000Y-82550000D02*
X74295000Y-82550000D01*
X69850000Y-78105000D02*
X69850000Y-67310000D01*
X74295000Y-82550000D02*
X69850000Y-78105000D01*
X57150000Y-67945000D02*
X57150000Y-67310000D01*
X50800000Y-74295000D02*
X57150000Y-67945000D01*
X48895000Y-74295000D02*
X50800000Y-74295000D01*
X48895000Y-140970000D02*
X48895000Y-74295000D01*
X56515000Y-148590000D02*
X48895000Y-140970000D01*
X64135000Y-150495000D02*
X62230000Y-148590000D01*
X62230000Y-148590000D02*
X56515000Y-148590000D01*
X64135000Y-152400000D02*
X64135000Y-150495000D01*
X114300000Y-118110000D02*
X114935000Y-117475000D01*
X90170000Y-118110000D02*
X114300000Y-118110000D01*
X83820000Y-124460000D02*
X90170000Y-118110000D01*
X83820000Y-128270000D02*
X83820000Y-124460000D01*
X114935000Y-117475000D02*
X114935000Y-81280000D01*
X114935000Y-81280000D02*
X114300000Y-80645000D01*
X114300000Y-80645000D02*
X75565000Y-80645000D01*
X72390000Y-77470000D02*
X72390000Y-67310000D01*
X75565000Y-80645000D02*
X72390000Y-77470000D01*
X51435000Y-139700000D02*
X51435000Y-76200000D01*
X57785000Y-146050000D02*
X51435000Y-139700000D01*
X80010000Y-146050000D02*
X57785000Y-146050000D01*
X82550000Y-148590000D02*
X80010000Y-146050000D01*
X84455000Y-148590000D02*
X82550000Y-148590000D01*
X51435000Y-76200000D02*
X52070000Y-76200000D01*
X52070000Y-76200000D02*
X56515000Y-71755000D01*
X56515000Y-71755000D02*
X59690000Y-71755000D01*
X59690000Y-71755000D02*
X59690000Y-67310000D01*
X116840000Y-121920000D02*
X118745000Y-120015000D01*
X108585000Y-121920000D02*
X116840000Y-121920000D01*
X104140000Y-126365000D02*
X108585000Y-121920000D01*
X104140000Y-128270000D02*
X104140000Y-126365000D01*
X118745000Y-120015000D02*
X118745000Y-80645000D01*
X118745000Y-80645000D02*
X116205000Y-78105000D01*
X116205000Y-78105000D02*
X76200000Y-78105000D01*
X74930000Y-76835000D02*
X74930000Y-67310000D01*
X76200000Y-78105000D02*
X74930000Y-76835000D01*
X53975000Y-77470000D02*
X57785000Y-73660000D01*
X53975000Y-138430000D02*
X53975000Y-77470000D01*
X59055000Y-143510000D02*
X53975000Y-138430000D01*
X99695000Y-143510000D02*
X59055000Y-143510000D01*
X104775000Y-148590000D02*
X99695000Y-143510000D01*
X57785000Y-73660000D02*
X62230000Y-73660000D01*
X62230000Y-73660000D02*
X62230000Y-67310000D01*
X137795000Y-78105000D02*
X134620000Y-74930000D01*
X137795000Y-119380000D02*
X137795000Y-78105000D01*
X135890000Y-121285000D02*
X137795000Y-119380000D01*
X127635000Y-121285000D02*
X135890000Y-121285000D01*
X124460000Y-124460000D02*
X127635000Y-121285000D01*
X124460000Y-128270000D02*
X124460000Y-124460000D01*
X134620000Y-74930000D02*
X77470000Y-74930000D01*
X77470000Y-74930000D02*
X77470000Y-67310000D01*
X125095000Y-148590000D02*
X125095000Y-144145000D01*
X125095000Y-144145000D02*
X121920000Y-140970000D01*
X121920000Y-140970000D02*
X60325000Y-140970000D01*
X60325000Y-140970000D02*
X56515000Y-137160000D01*
X56515000Y-137160000D02*
X56515000Y-79375000D01*
X56515000Y-79375000D02*
X60325000Y-75565000D01*
X60325000Y-75565000D02*
X64770000Y-75565000D01*
X64770000Y-75565000D02*
X64770000Y-67310000D01*
X145415000Y-122555000D02*
X140970000Y-118110000D01*
X145415000Y-128270000D02*
X145415000Y-122555000D01*
X140970000Y-118110000D02*
X140970000Y-77470000D01*
X140970000Y-77470000D02*
X135890000Y-72390000D01*
X135890000Y-72390000D02*
X80010000Y-72390000D01*
X80010000Y-72390000D02*
X80010000Y-67310000D01*
X145415000Y-148590000D02*
X145415000Y-139065000D01*
X145415000Y-139065000D02*
X144780000Y-138430000D01*
X144780000Y-138430000D02*
X60960000Y-138430000D01*
X60960000Y-138430000D02*
X59055000Y-136525000D01*
X59055000Y-136525000D02*
X59055000Y-121285000D01*
X59055000Y-121285000D02*
X73660000Y-121285000D01*
X73660000Y-121285000D02*
X74295000Y-120650000D01*
X74295000Y-120650000D02*
X74295000Y-85090000D01*
X74295000Y-85090000D02*
X73660000Y-85090000D01*
X67310000Y-78740000D02*
X67310000Y-67310000D01*
X73660000Y-85090000D02*
X67310000Y-78740000D01*
X113768274Y-57785000D02*
X114403274Y-57150000D01*
X93345000Y-46355000D02*
X93345000Y-44450000D01*
X104140000Y-57150000D02*
X93345000Y-46355000D01*
X114403274Y-57150000D02*
X104140000Y-57150000D01*
X93345000Y-44450000D02*
X70485000Y-44450000D01*
X69850000Y-45085000D02*
X69850000Y-52070000D01*
X70485000Y-44450000D02*
X69850000Y-45085000D01*
X98425000Y-41910000D02*
X106680000Y-50165000D01*
X119380000Y-50165000D02*
X122555000Y-53340000D01*
X106680000Y-50165000D02*
X119380000Y-50165000D01*
X98425000Y-41910000D02*
X68580000Y-41910000D01*
X67310000Y-43180000D02*
X67310000Y-52070000D01*
X68580000Y-41910000D02*
X67310000Y-43180000D01*
X130175000Y-49530000D02*
X130810000Y-50165000D01*
X130175000Y-48895000D02*
X130810000Y-49530000D01*
X124460000Y-43180000D02*
X130810000Y-49530000D01*
X124460000Y-40005000D02*
X124460000Y-43180000D01*
X124460000Y-40005000D02*
X64770000Y-40005000D01*
X64770000Y-40005000D02*
X64770000Y-52070000D01*
M02*
